{"glyphs":{"0":{"ha":472,"x_min":44,"x_max":428,"o":"m 236 12 l 236 12 q 175 12 132 -23 q 89 -59 67 -139 q 44 -220 44 -357 l 44 -357 q 44 -481 65 -562 q 86 -644 129 -684 q 171 -725 236 -725 l 236 -725 q 300 -725 343 -684 q 385 -643 407 -561 q 428 -480 428 -357 l 428 -357 q 428 -268 417 -199 q 405 -131 382 -84 q 359 -37 323 -12 q 286 12 236 12 z m 236 -64 l 236 -64 q 267 -64 288 -84 q 308 -105 321 -143 q 333 -182 338 -236 q 343 -290 343 -357 l 343 -357 q 343 -423 338 -477 q 333 -531 321 -569 q 308 -608 287 -628 q 266 -649 236 -649 l 236 -649 q 203 -649 183 -628 q 163 -608 151 -570 q 139 -532 135 -478 q 130 -424 130 -357 l 130 -357 q 130 -288 135 -233 q 140 -179 152 -141 q 164 -103 184 -83 q 204 -64 236 -64 z"},"1":{"ha":472,"x_min":70,"x_max":313,"o":"m 313 -714 l 313 0 l 229 0 l 229 -486 q 229 -521 230 -554 q 231 -587 232 -617 l 232 -617 q 226 -609 216 -598 q 206 -587 190 -572 l 190 -572 l 117 -506 l 70 -559 l 240 -714 l 313 -714 z"},"2":{"ha":472,"x_min":38,"x_max":424,"o":"m 424 0 l 38 0 l 38 -65 l 193 -267 q 239 -327 266 -370 q 293 -413 306 -452 q 319 -492 319 -538 l 319 -538 q 319 -572 307 -597 q 294 -622 272 -636 q 249 -650 215 -650 l 215 -650 q 178 -650 147 -636 q 115 -623 84 -600 l 84 -600 l 43 -660 q 69 -680 97 -694 q 125 -709 156 -717 q 186 -725 220 -725 l 220 -725 q 277 -725 318 -702 q 359 -680 382 -639 q 405 -598 405 -542 l 405 -542 q 405 -485 388 -436 q 371 -388 340 -341 q 309 -294 266 -240 l 266 -240 l 140 -80 l 140 -76 l 424 -76 l 424 0 z"},"3":{"ha":472,"x_min":35,"x_max":419,"o":"m 199 12 l 199 12 q 149 12 109 5 q 69 -2 37 -15 l 37 -15 l 37 -95 q 73 -79 111 -70 q 149 -61 194 -61 l 194 -61 q 263 -61 297 -99 q 330 -137 330 -201 l 330 -201 q 330 -244 312 -273 q 294 -302 259 -317 q 223 -332 169 -332 l 169 -332 l 123 -332 l 123 -405 l 171 -405 q 218 -405 251 -422 q 284 -439 302 -470 q 319 -501 319 -541 l 319 -541 q 319 -593 291 -622 q 263 -652 213 -652 l 213 -652 q 174 -652 142 -639 q 110 -627 76 -604 l 76 -604 l 35 -664 q 79 -695 123 -710 q 167 -725 219 -725 l 219 -725 q 274 -725 316 -704 q 357 -684 381 -644 q 404 -605 404 -549 l 404 -549 q 404 -506 390 -471 q 375 -437 347 -412 q 318 -388 277 -375 l 277 -375 l 277 -371 q 346 -359 383 -314 q 419 -269 419 -198 l 419 -198 q 419 -131 392 -84 q 364 -37 315 -12 q 265 12 199 12 z"},"4":{"ha":472,"x_min":18,"x_max":456,"o":"m 373 0 l 290 0 l 290 -157 l 18 -157 l 18 -227 l 283 -719 l 373 -719 l 373 -230 l 456 -230 l 456 -157 l 373 -157 l 373 0 z m 254 -531 l 96 -230 l 290 -230 l 290 -488 q 290 -506 291 -528 q 291 -550 292 -573 q 293 -596 294 -615 l 294 -615 l 291 -615 q 283 -593 274 -572 q 265 -551 254 -531 l 254 -531 z"},"5":{"ha":472,"x_min":53,"x_max":424,"o":"m 201 12 l 201 12 q 155 12 118 5 q 80 -3 53 -16 l 53 -16 l 53 -97 q 84 -79 122 -70 q 159 -62 197 -62 l 197 -62 q 244 -62 275 -83 q 306 -104 322 -141 q 338 -178 338 -224 l 338 -224 q 338 -295 303 -331 q 267 -367 201 -367 l 201 -367 q 177 -367 152 -363 q 126 -359 99 -351 l 99 -351 l 63 -382 l 85 -714 l 382 -714 l 382 -637 l 157 -637 l 141 -430 q 165 -435 188 -437 q 210 -439 226 -439 l 226 -439 q 287 -439 332 -413 q 376 -387 400 -340 q 424 -293 424 -229 l 424 -229 q 424 -155 398 -101 q 371 -47 322 -17 q 272 12 201 12 z"},"6":{"ha":472,"x_min":49,"x_max":431,"o":"m 246 12 l 246 12 q 197 12 160 -10 q 122 -32 98 -73 q 74 -115 62 -173 q 49 -231 49 -304 l 49 -304 q 49 -385 59 -451 q 69 -517 89 -568 q 108 -620 139 -654 q 170 -689 213 -707 q 256 -725 310 -725 l 310 -725 q 333 -725 353 -722 q 372 -720 388 -715 l 388 -715 l 388 -640 q 372 -646 353 -649 q 334 -652 313 -652 l 313 -652 q 256 -652 217 -621 q 177 -590 156 -527 q 135 -464 131 -369 l 131 -369 l 136 -369 q 149 -395 169 -413 q 188 -432 213 -441 q 237 -451 265 -451 l 265 -451 q 320 -451 357 -421 q 394 -392 413 -341 q 431 -290 431 -227 l 431 -227 q 431 -159 410 -104 q 389 -50 348 -19 q 307 12 246 12 z m 245 -63 l 245 -63 q 293 -63 320 -103 q 347 -144 347 -225 l 347 -225 q 347 -300 322 -339 q 296 -378 246 -378 l 246 -378 q 211 -378 186 -360 q 161 -342 148 -313 q 135 -285 135 -253 l 135 -253 q 135 -220 142 -186 q 149 -153 162 -125 q 175 -97 196 -80 q 217 -63 245 -63 z"},"7":{"ha":472,"x_min":35,"x_max":432,"o":"m 196 0 l 106 0 l 345 -636 l 35 -636 l 35 -714 l 432 -714 l 432 -650 l 196 0 z"},"8":{"ha":472,"x_min":39,"x_max":434,"o":"m 240 12 l 240 12 q 179 12 134 -10 q 88 -32 64 -74 q 39 -117 39 -177 l 39 -177 q 39 -219 53 -254 q 66 -289 94 -318 q 122 -348 165 -372 l 165 -372 q 128 -399 105 -427 q 81 -456 70 -488 q 58 -520 58 -556 l 58 -556 q 58 -610 81 -647 q 104 -685 145 -705 q 185 -725 237 -725 l 237 -725 q 290 -725 331 -705 q 371 -685 394 -647 q 416 -610 416 -556 l 416 -556 q 416 -518 403 -485 q 390 -452 364 -425 q 338 -398 297 -374 l 297 -374 q 337 -350 368 -322 q 398 -295 416 -261 q 434 -227 434 -181 l 434 -181 q 434 -122 409 -78 q 384 -35 341 -11 q 297 12 240 12 z m 237 -58 l 237 -58 q 289 -58 320 -91 q 350 -124 350 -181 l 350 -181 q 350 -208 340 -232 q 329 -257 306 -279 q 283 -302 246 -323 l 246 -323 l 226 -335 q 189 -313 166 -289 q 143 -266 133 -238 q 122 -211 122 -176 l 122 -176 q 122 -124 152 -91 q 181 -58 237 -58 z m 237 -413 l 237 -413 q 271 -432 292 -453 q 313 -474 323 -498 q 333 -523 333 -553 l 333 -553 q 333 -604 307 -629 q 280 -655 236 -655 l 236 -655 q 193 -655 167 -627 q 140 -599 140 -551 l 140 -551 q 140 -519 152 -494 q 163 -470 185 -450 q 206 -431 237 -413 z"},"9":{"ha":472,"x_min":42,"x_max":423,"o":"m 161 12 l 161 12 q 143 12 119 9 q 95 6 80 2 l 80 2 l 80 -74 q 97 -67 117 -64 q 136 -61 159 -61 l 159 -61 q 206 -61 240 -82 q 273 -104 295 -142 q 316 -181 327 -232 q 338 -283 341 -344 l 341 -344 l 336 -344 q 323 -319 304 -300 q 285 -282 261 -272 q 237 -263 207 -263 l 207 -263 q 152 -263 115 -292 q 78 -322 60 -372 q 42 -423 42 -487 l 42 -487 q 42 -555 63 -609 q 84 -663 127 -694 q 169 -725 230 -725 l 230 -725 q 279 -725 315 -703 q 351 -682 376 -641 q 400 -600 412 -543 q 423 -486 423 -416 l 423 -416 q 423 -334 414 -266 q 404 -199 383 -147 q 362 -95 331 -59 q 300 -24 258 -6 q 215 12 161 12 z m 227 -336 l 227 -336 q 262 -336 287 -355 q 312 -374 325 -404 q 338 -434 338 -467 l 338 -467 q 338 -495 333 -527 q 327 -559 314 -587 q 301 -615 280 -632 q 259 -650 230 -650 l 230 -650 q 180 -650 154 -609 q 127 -569 127 -488 l 127 -488 q 127 -414 153 -375 q 178 -336 227 -336 z"},"\r":{"ha":247,"x_min":0,"x_max":0,"o":""}," ":{"ha":247,"x_min":0,"x_max":0,"o":""},"ഀ":{"ha":0,"x_min":-409,"x_max":-147,"o":"m -409 -721 l -409 -721 q -409 -787 -372 -825 q -336 -864 -279 -864 l -279 -864 q -220 -864 -183 -826 q -147 -788 -147 -721 l -147 -721 q -147 -655 -183 -616 q -219 -578 -279 -578 l -279 -578 q -337 -578 -373 -616 q -409 -655 -409 -721 z m -341 -722 l -341 -722 q -341 -688 -326 -664 q -311 -640 -279 -640 l -279 -640 q -246 -640 -230 -664 q -215 -688 -215 -722 l -215 -722 q -215 -756 -230 -779 q -246 -802 -279 -802 l -279 -802 q -310 -802 -325 -779 q -341 -756 -341 -722 z"},"ഁ":{"ha":0,"x_min":-429,"x_max":-128,"o":"m -278 -654 l -278 -654 q -348 -654 -388 -693 q -429 -732 -429 -810 l -429 -810 q -429 -823 -427 -837 q -425 -851 -422 -863 l -422 -863 l -357 -852 q -359 -842 -360 -830 q -362 -819 -362 -810 l -362 -810 q -362 -775 -351 -754 q -340 -734 -321 -725 q -302 -717 -279 -717 l -279 -717 q -255 -717 -236 -725 q -217 -734 -206 -754 q -195 -775 -195 -812 l -195 -812 q -195 -819 -196 -830 q -197 -842 -200 -853 l -200 -853 l -135 -862 q -132 -850 -130 -835 q -128 -821 -128 -810 l -128 -810 q -128 -734 -168 -694 q -209 -654 -278 -654 z m -279 -760 l -279 -760 q -299 -760 -311 -773 q -323 -786 -323 -809 l -323 -809 q -323 -831 -311 -845 q -299 -859 -279 -859 l -279 -859 q -259 -859 -246 -845 q -234 -832 -234 -810 l -234 -810 q -234 -786 -246 -773 q -259 -760 -279 -760 z"},"ം":{"ha":389,"x_min":32,"x_max":357,"o":"m 194 12 l 194 12 q 144 12 108 -10 q 71 -33 52 -75 q 32 -118 32 -176 l 32 -176 q 32 -236 53 -277 q 73 -319 110 -341 q 147 -363 194 -363 l 194 -363 q 243 -363 280 -341 q 316 -320 337 -278 q 357 -237 357 -176 l 357 -176 q 357 -116 337 -74 q 316 -32 280 -10 q 243 12 194 12 z m 194 -298 l 194 -298 q 157 -298 134 -269 q 110 -241 110 -175 l 110 -175 q 110 -110 134 -81 q 158 -53 194 -53 l 194 -53 q 231 -53 255 -82 q 279 -111 279 -176 l 279 -176 q 279 -241 256 -269 q 232 -298 194 -298 z"},"ഃ":{"ha":295,"x_min":31,"x_max":265,"o":"m 31 -436 l 31 -436 q 31 -496 64 -531 q 96 -566 147 -566 l 147 -566 q 199 -566 232 -531 q 265 -497 265 -436 l 265 -436 q 265 -376 233 -341 q 200 -306 147 -306 l 147 -306 q 95 -306 63 -341 q 31 -376 31 -436 z m 97 -437 l 97 -437 q 97 -406 110 -387 q 122 -368 147 -368 l 147 -368 q 173 -368 186 -387 q 199 -406 199 -437 l 199 -437 q 199 -468 186 -486 q 172 -504 147 -504 l 147 -504 q 123 -504 110 -486 q 97 -468 97 -437 z m 31 -118 l 31 -118 q 31 -178 64 -213 q 96 -248 147 -248 l 147 -248 q 199 -248 232 -213 q 265 -179 265 -118 l 265 -118 q 265 -57 233 -22 q 200 12 147 12 l 147 12 q 95 12 63 -23 q 31 -58 31 -118 z m 97 -118 l 97 -118 q 97 -87 110 -68 q 122 -49 147 -49 l 147 -49 q 173 -49 186 -68 q 199 -87 199 -118 l 199 -118 q 199 -149 186 -167 q 172 -186 147 -186 l 147 -186 q 123 -186 110 -167 q 97 -149 97 -118 z"},"ഄ":{"ha":512,"x_min":35,"x_max":476,"o":"m 49 -318 l 49 -318 l 127 -303 q 121 -282 119 -259 q 116 -236 116 -211 l 116 -211 q 116 -145 147 -103 q 177 -61 255 -61 l 255 -61 q 335 -61 366 -103 q 396 -145 396 -211 l 396 -211 q 396 -236 394 -259 q 391 -282 385 -303 l 385 -303 l 462 -318 q 467 -299 472 -270 q 476 -242 476 -210 l 476 -210 q 476 -148 455 -98 q 433 -48 385 -19 q 336 9 255 9 l 255 9 q 175 9 127 -19 q 78 -48 57 -98 q 35 -148 35 -210 l 35 -210 q 35 -242 40 -270 q 44 -299 49 -318 z m 221 -171 l 221 -403 l 294 -403 l 294 -171 l 221 -171 z"},"അ":{"ha":1241,"x_min":37,"x_max":1204,"o":"m 319 -566 l 319 -566 q 352 -566 389 -559 q 425 -553 461 -536 l 461 -536 q 467 -534 472 -528 q 476 -522 482 -519 l 482 -519 q 520 -505 544 -483 q 568 -461 580 -433 q 592 -405 592 -369 l 592 -369 q 592 -343 584 -320 q 576 -298 558 -280 q 539 -263 508 -250 l 508 -250 l 506 -257 q 550 -246 576 -214 q 601 -182 601 -134 l 601 -134 q 601 -94 585 -61 q 569 -28 535 -8 q 500 12 443 12 l 443 12 q 379 12 338 -18 q 296 -49 276 -104 q 255 -160 255 -235 l 255 -235 q 255 -291 269 -342 q 283 -394 311 -437 q 339 -480 382 -509 l 382 -509 q 387 -513 392 -518 q 397 -523 402 -526 l 402 -526 q 433 -545 471 -555 q 508 -566 554 -566 l 554 -566 q 611 -566 650 -551 q 688 -536 714 -509 q 740 -482 760 -448 l 760 -448 l 780 -253 l 780 0 l 698 0 l 698 -297 q 698 -367 690 -403 q 681 -440 658 -465 l 658 -465 q 641 -482 615 -492 q 589 -502 547 -502 l 547 -502 q 524 -502 504 -497 q 483 -492 465 -485 l 465 -485 q 431 -471 406 -446 q 381 -422 365 -388 q 349 -355 341 -315 q 333 -276 333 -233 l 333 -233 q 333 -141 362 -96 q 390 -52 443 -52 l 443 -52 q 482 -52 502 -72 q 522 -92 522 -133 l 522 -133 q 522 -174 497 -196 q 471 -219 424 -219 l 424 -219 l 416 -219 l 416 -287 l 422 -287 q 465 -287 489 -309 q 513 -332 513 -370 l 513 -370 q 513 -417 488 -445 q 462 -474 412 -486 l 412 -486 q 383 -496 363 -498 q 342 -501 325 -501 l 325 -501 q 255 -501 210 -471 q 165 -442 143 -392 q 121 -343 121 -279 l 121 -279 q 121 -223 133 -180 q 145 -138 168 -105 q 190 -73 219 -49 l 219 -49 l 165 8 q 130 -20 101 -60 q 72 -101 55 -157 q 37 -213 37 -285 l 37 -285 q 37 -343 54 -393 q 70 -444 105 -483 q 139 -522 192 -544 q 245 -566 319 -566 z m 1028 12 l 1028 12 q 973 12 938 -16 q 902 -44 885 -92 q 867 -140 867 -198 l 867 -198 q 867 -296 908 -349 q 949 -403 1020 -403 l 1020 -403 q 1062 -403 1091 -383 q 1120 -364 1141 -329 q 1162 -295 1176 -248 l 1176 -248 l 1149 -237 q 1143 -258 1129 -281 q 1114 -304 1091 -320 q 1068 -336 1038 -336 l 1038 -336 q 990 -336 968 -299 q 946 -262 946 -198 l 946 -198 q 946 -153 955 -121 q 964 -89 983 -71 q 1001 -54 1029 -54 l 1029 -54 q 1060 -54 1082 -73 q 1103 -93 1115 -136 q 1126 -179 1126 -248 l 1126 -248 q 1126 -253 1125 -270 q 1123 -288 1121 -306 l 1121 -306 q 1120 -312 1120 -321 q 1120 -330 1118 -335 l 1118 -335 q 1111 -377 1089 -413 q 1066 -450 1027 -473 q 988 -497 931 -497 l 931 -497 q 896 -497 870 -488 q 844 -480 824 -462 l 824 -462 q 808 -447 799 -426 q 789 -405 785 -375 q 780 -346 780 -304 l 780 -304 l 780 -206 l 727 -458 q 747 -487 773 -512 q 799 -537 837 -551 q 874 -566 927 -566 l 927 -566 q 996 -566 1048 -542 q 1100 -519 1135 -476 q 1169 -433 1187 -373 q 1204 -314 1204 -242 l 1204 -242 q 1204 -149 1181 -92 q 1158 -36 1119 -12 q 1079 12 1028 12 z"},"ആ":{"ha":1361,"x_min":37,"x_max":1338,"o":"m 319 -566 l 319 -566 q 352 -566 389 -559 q 425 -553 461 -536 l 461 -536 q 467 -534 472 -528 q 476 -522 482 -519 l 482 -519 q 520 -505 544 -483 q 568 -461 580 -433 q 592 -405 592 -369 l 592 -369 q 592 -343 584 -320 q 576 -298 558 -280 q 539 -263 508 -250 l 508 -250 l 506 -257 q 550 -246 576 -214 q 601 -182 601 -134 l 601 -134 q 601 -94 585 -61 q 569 -28 535 -8 q 500 12 443 12 l 443 12 q 379 12 338 -18 q 296 -49 276 -104 q 255 -160 255 -235 l 255 -235 q 255 -291 269 -342 q 283 -394 311 -437 q 339 -480 382 -509 l 382 -509 q 387 -513 392 -518 q 397 -523 402 -526 l 402 -526 q 433 -545 471 -555 q 508 -566 554 -566 l 554 -566 q 611 -566 650 -551 q 688 -536 714 -509 q 740 -482 760 -448 l 760 -448 l 780 -253 l 780 0 l 698 0 l 698 -297 q 698 -367 690 -403 q 681 -440 658 -465 l 658 -465 q 641 -482 615 -492 q 589 -502 547 -502 l 547 -502 q 524 -502 504 -497 q 483 -492 465 -485 l 465 -485 q 431 -471 406 -446 q 381 -422 365 -388 q 349 -355 341 -315 q 333 -276 333 -233 l 333 -233 q 333 -141 362 -96 q 390 -52 443 -52 l 443 -52 q 482 -52 502 -72 q 522 -92 522 -133 l 522 -133 q 522 -174 497 -196 q 471 -219 424 -219 l 424 -219 l 416 -219 l 416 -287 l 422 -287 q 465 -287 489 -309 q 513 -332 513 -370 l 513 -370 q 513 -417 488 -445 q 462 -474 412 -486 l 412 -486 q 383 -496 363 -498 q 342 -501 325 -501 l 325 -501 q 255 -501 210 -471 q 165 -442 143 -392 q 121 -343 121 -279 l 121 -279 q 121 -223 133 -180 q 145 -138 168 -105 q 190 -73 219 -49 l 219 -49 l 165 8 q 130 -20 101 -60 q 72 -101 55 -157 q 37 -213 37 -285 l 37 -285 q 37 -343 54 -393 q 70 -444 105 -483 q 139 -522 192 -544 q 245 -566 319 -566 z m 920 -566 l 920 -566 q 999 -566 1053 -535 q 1106 -504 1137 -451 q 1167 -398 1178 -330 l 1178 -330 q 1182 -305 1184 -279 q 1186 -253 1186 -227 l 1186 -227 q 1186 -139 1165 -86 q 1144 -34 1106 -11 q 1067 12 1013 12 l 1013 12 q 958 12 924 -13 q 889 -38 872 -79 q 855 -120 855 -169 l 855 -169 q 855 -272 917 -326 q 978 -381 1079 -381 l 1079 -381 q 1088 -381 1099 -380 q 1110 -380 1120 -378 l 1120 -378 l 1139 -377 q 1201 -365 1246 -326 q 1290 -287 1314 -226 q 1338 -166 1338 -89 l 1338 -89 q 1338 -23 1322 31 q 1305 84 1272 122 q 1238 160 1188 181 q 1137 201 1069 201 l 1069 201 q 1032 201 1002 195 q 971 189 945 180 l 945 180 l 969 115 q 992 123 1018 127 q 1043 131 1071 131 l 1071 131 q 1124 131 1161 114 q 1197 96 1218 65 q 1239 34 1249 -7 q 1258 -48 1258 -94 l 1258 -94 q 1258 -145 1248 -184 q 1237 -224 1217 -252 q 1196 -281 1165 -298 l 1165 -298 l 1137 -303 q 1123 -309 1108 -311 q 1093 -314 1082 -314 l 1082 -314 q 1037 -314 1005 -299 q 972 -284 954 -252 q 936 -221 936 -171 l 936 -171 q 936 -139 944 -112 q 952 -86 969 -70 q 986 -55 1014 -55 l 1014 -55 q 1061 -55 1085 -95 q 1108 -135 1108 -232 l 1108 -232 q 1108 -258 1106 -285 q 1103 -313 1098 -340 l 1098 -340 l 1094 -363 q 1084 -400 1063 -430 q 1042 -461 1008 -479 q 974 -497 923 -497 l 923 -497 q 895 -497 869 -488 q 843 -480 823 -462 l 823 -462 q 807 -447 798 -426 q 789 -405 785 -375 q 780 -346 780 -304 l 780 -304 l 780 -206 l 726 -456 q 746 -488 773 -513 q 799 -538 836 -552 q 872 -566 920 -566 z"},"ഇ":{"ha":814,"x_min":36,"x_max":777,"o":"m 271 -566 l 271 -566 q 323 -566 357 -554 q 391 -542 415 -521 q 438 -500 457 -471 l 457 -471 l 436 -475 q 464 -525 501 -545 q 537 -566 581 -566 l 581 -566 q 632 -566 669 -546 q 706 -527 730 -491 q 754 -456 766 -409 q 777 -362 777 -308 l 777 -308 q 777 -219 757 -160 q 736 -101 692 -64 l 692 -64 q 666 -41 633 -27 q 600 -13 553 -6 q 506 0 438 0 l 438 0 l 248 0 q 207 0 189 3 q 170 5 156 12 l 156 12 q 140 19 133 33 q 125 46 125 63 l 125 63 q 125 80 131 93 q 137 105 148 113 l 148 113 q 162 123 186 128 q 209 132 248 132 l 248 132 l 760 132 l 760 201 l 244 201 q 195 201 159 194 q 123 186 98 171 l 98 171 q 72 154 58 129 q 43 103 43 69 l 43 69 q 43 34 56 7 q 69 -21 95 -38 l 95 -38 q 109 -48 127 -54 q 145 -60 171 -63 q 196 -67 231 -67 l 231 -67 l 426 -67 q 490 -67 530 -73 q 570 -79 595 -90 q 619 -102 637 -118 l 637 -118 q 673 -150 684 -198 q 694 -247 694 -306 l 694 -306 q 694 -354 682 -397 q 670 -441 645 -469 q 620 -498 579 -498 l 579 -498 q 559 -498 544 -491 q 529 -485 518 -472 l 518 -472 q 501 -452 494 -418 q 486 -385 486 -326 l 486 -326 l 486 -129 l 405 -129 l 405 -328 q 405 -384 396 -414 q 387 -445 370 -464 l 370 -464 q 353 -481 330 -490 q 307 -499 272 -499 l 272 -499 q 238 -499 212 -489 q 185 -480 166 -462 q 146 -445 132 -421 q 118 -398 109 -370 l 109 -370 q 108 -365 111 -360 q 113 -356 112 -352 l 112 -352 q 110 -341 109 -330 q 107 -320 107 -308 l 107 -308 q 107 -245 124 -213 q 141 -181 178 -181 l 178 -181 q 210 -181 224 -206 q 238 -231 238 -267 l 238 -267 q 238 -293 232 -311 q 226 -330 212 -340 q 198 -351 175 -351 l 175 -351 q 141 -351 120 -331 q 98 -312 81 -290 l 81 -290 l 56 -337 q 71 -357 91 -375 q 111 -393 137 -404 q 162 -416 191 -416 l 191 -416 q 235 -416 263 -396 q 291 -376 304 -342 q 317 -309 317 -268 l 317 -268 q 317 -224 302 -189 q 287 -155 257 -135 q 226 -116 178 -116 l 178 -116 q 136 -116 104 -137 q 71 -159 54 -203 q 36 -247 36 -316 l 36 -316 q 36 -390 65 -446 q 94 -503 147 -534 q 200 -566 271 -566 z"},"ഈ":{"ha":1452,"x_min":36,"x_max":1413,"o":"m 271 -566 l 271 -566 q 323 -566 357 -554 q 391 -542 415 -521 q 438 -500 457 -471 l 457 -471 l 436 -475 q 464 -525 501 -545 q 537 -566 581 -566 l 581 -566 q 632 -566 669 -546 q 706 -527 730 -491 q 754 -456 766 -409 q 777 -362 777 -308 l 777 -308 q 777 -219 757 -160 q 736 -101 692 -64 l 692 -64 q 666 -41 633 -27 q 600 -13 553 -6 q 506 0 438 0 l 438 0 l 248 0 q 207 0 189 3 q 170 5 156 12 l 156 12 q 140 19 133 33 q 125 46 125 63 l 125 63 q 125 80 131 93 q 137 105 148 113 l 148 113 q 162 123 186 128 q 209 132 248 132 l 248 132 l 760 132 l 760 201 l 244 201 q 195 201 159 194 q 123 186 98 171 l 98 171 q 72 154 58 129 q 43 103 43 69 l 43 69 q 43 34 56 7 q 69 -21 95 -38 l 95 -38 q 109 -48 127 -54 q 145 -60 171 -63 q 196 -67 231 -67 l 231 -67 l 426 -67 q 490 -67 530 -73 q 570 -79 595 -90 q 619 -102 637 -118 l 637 -118 q 673 -150 684 -198 q 694 -247 694 -306 l 694 -306 q 694 -354 682 -397 q 670 -441 645 -469 q 620 -498 579 -498 l 579 -498 q 559 -498 544 -491 q 529 -485 518 -472 l 518 -472 q 501 -452 494 -418 q 486 -385 486 -326 l 486 -326 l 486 -129 l 405 -129 l 405 -328 q 405 -384 396 -414 q 387 -445 370 -464 l 370 -464 q 353 -481 330 -490 q 307 -499 272 -499 l 272 -499 q 238 -499 212 -489 q 185 -480 166 -462 q 146 -445 132 -421 q 118 -398 109 -370 l 109 -370 q 108 -365 111 -360 q 113 -356 112 -352 l 112 -352 q 110 -341 109 -330 q 107 -320 107 -308 l 107 -308 q 107 -245 124 -213 q 141 -181 178 -181 l 178 -181 q 210 -181 224 -206 q 238 -231 238 -267 l 238 -267 q 238 -293 232 -311 q 226 -330 212 -340 q 198 -351 175 -351 l 175 -351 q 141 -351 120 -331 q 98 -312 81 -290 l 81 -290 l 56 -337 q 71 -357 91 -375 q 111 -393 137 -404 q 162 -416 191 -416 l 191 -416 q 235 -416 263 -396 q 291 -376 304 -342 q 317 -309 317 -268 l 317 -268 q 317 -224 302 -189 q 287 -155 257 -135 q 226 -116 178 -116 l 178 -116 q 136 -116 104 -137 q 71 -159 54 -203 q 36 -247 36 -316 l 36 -316 q 36 -390 65 -446 q 94 -503 147 -534 q 200 -566 271 -566 z m 1242 -566 l 1242 -566 q 1297 -566 1335 -536 q 1373 -507 1394 -449 q 1414 -391 1414 -305 l 1414 -305 q 1414 -196 1386 -125 q 1357 -55 1302 -21 q 1247 12 1169 12 l 1169 12 q 1122 12 1076 2 q 1030 -8 987 -32 l 987 -32 l 1026 -97 q 1055 -81 1089 -70 q 1123 -60 1164 -60 l 1164 -60 q 1226 -60 1263 -88 q 1299 -116 1315 -170 q 1330 -225 1330 -305 l 1330 -305 q 1330 -401 1305 -449 q 1279 -497 1237 -497 l 1237 -497 q 1218 -497 1206 -490 q 1194 -484 1185 -472 l 1185 -472 q 1173 -457 1169 -430 q 1165 -404 1165 -350 l 1165 -350 l 1165 -259 l 1084 -259 l 1084 -348 q 1084 -395 1080 -423 q 1076 -451 1065 -467 l 1065 -467 q 1056 -482 1042 -489 q 1027 -497 1010 -497 l 1010 -497 q 970 -497 950 -465 q 930 -434 930 -387 l 930 -387 q 930 -353 934 -324 q 938 -296 944 -272 l 944 -272 l 868 -255 q 859 -286 854 -321 q 848 -356 848 -391 l 848 -391 q 848 -439 865 -478 q 882 -518 917 -542 q 951 -566 1004 -566 l 1004 -566 q 1048 -566 1078 -546 q 1108 -526 1128 -488 l 1128 -488 l 1115 -489 q 1139 -532 1170 -549 q 1201 -566 1242 -566 z"},"ഉ":{"ha":578,"x_min":36,"x_max":541,"o":"m 288 -566 l 288 -566 q 358 -566 407 -542 q 455 -519 485 -479 q 515 -439 528 -390 q 541 -342 541 -290 l 541 -290 q 541 -211 523 -153 q 504 -96 464 -61 l 464 -61 q 437 -37 405 -24 q 373 -11 333 -5 q 293 0 243 0 l 243 0 l 233 0 q 205 0 188 3 q 170 5 156 12 l 156 12 q 140 19 133 33 q 125 46 125 63 l 125 63 q 125 80 131 93 q 137 105 148 113 l 148 113 q 162 123 186 128 q 209 132 248 132 l 248 132 l 525 132 l 525 201 l 244 201 q 195 201 159 194 q 123 186 98 171 l 98 171 q 72 154 58 129 q 43 103 43 69 l 43 69 q 43 34 56 7 q 69 -21 95 -39 l 95 -39 q 116 -53 147 -60 q 178 -67 220 -67 l 220 -67 l 226 -67 q 280 -67 315 -72 q 349 -78 371 -89 q 393 -100 409 -116 l 409 -116 q 439 -145 449 -190 q 458 -235 458 -290 l 458 -290 q 458 -328 449 -365 q 439 -402 419 -432 q 399 -462 366 -480 q 332 -499 282 -499 l 282 -499 q 245 -499 217 -489 q 188 -480 168 -462 q 147 -445 133 -421 q 118 -397 109 -370 l 109 -370 q 108 -365 111 -360 q 113 -356 112 -352 l 112 -352 q 110 -341 109 -330 q 107 -320 107 -308 l 107 -308 q 107 -245 124 -213 q 141 -181 178 -181 l 178 -181 q 210 -181 224 -206 q 238 -231 238 -267 l 238 -267 q 238 -293 232 -311 q 226 -330 212 -340 q 198 -351 175 -351 l 175 -351 q 142 -351 120 -331 q 98 -312 81 -290 l 81 -290 l 56 -337 q 71 -357 91 -375 q 111 -393 137 -404 q 162 -416 191 -416 l 191 -416 q 235 -416 263 -396 q 291 -376 304 -342 q 317 -309 317 -268 l 317 -268 q 317 -224 302 -189 q 287 -155 257 -135 q 226 -116 178 -116 l 178 -116 q 136 -116 104 -137 q 71 -159 54 -203 q 36 -247 36 -316 l 36 -316 q 36 -372 53 -418 q 70 -464 103 -497 q 135 -530 182 -548 q 229 -566 288 -566 z"},"ഊ":{"ha":1214,"x_min":36,"x_max":1175,"o":"m 288 -566 l 288 -566 q 358 -566 407 -542 q 455 -519 485 -479 q 515 -439 528 -390 q 541 -342 541 -290 l 541 -290 q 541 -211 523 -153 q 504 -96 464 -61 l 464 -61 q 437 -37 405 -24 q 373 -11 333 -5 q 293 0 243 0 l 243 0 l 233 0 q 205 0 188 3 q 170 5 156 12 l 156 12 q 140 19 133 33 q 125 46 125 63 l 125 63 q 125 80 131 93 q 137 105 148 113 l 148 113 q 162 123 186 128 q 209 132 248 132 l 248 132 l 525 132 l 525 201 l 244 201 q 195 201 159 194 q 123 186 98 171 l 98 171 q 72 154 58 129 q 43 103 43 69 l 43 69 q 43 34 56 7 q 69 -21 95 -39 l 95 -39 q 116 -53 147 -60 q 178 -67 220 -67 l 220 -67 l 226 -67 q 280 -67 315 -72 q 349 -78 371 -89 q 393 -100 409 -116 l 409 -116 q 439 -145 449 -190 q 458 -235 458 -290 l 458 -290 q 458 -328 449 -365 q 439 -402 419 -432 q 399 -462 366 -480 q 332 -499 282 -499 l 282 -499 q 245 -499 217 -489 q 188 -480 168 -462 q 147 -445 133 -421 q 118 -397 109 -370 l 109 -370 q 108 -365 111 -360 q 113 -356 112 -352 l 112 -352 q 110 -341 109 -330 q 107 -320 107 -308 l 107 -308 q 107 -245 124 -213 q 141 -181 178 -181 l 178 -181 q 210 -181 224 -206 q 238 -231 238 -267 l 238 -267 q 238 -293 232 -311 q 226 -330 212 -340 q 198 -351 175 -351 l 175 -351 q 142 -351 120 -331 q 98 -312 81 -290 l 81 -290 l 56 -337 q 71 -357 91 -375 q 111 -393 137 -404 q 162 -416 191 -416 l 191 -416 q 235 -416 263 -396 q 291 -376 304 -342 q 317 -309 317 -268 l 317 -268 q 317 -224 302 -189 q 287 -155 257 -135 q 226 -116 178 -116 l 178 -116 q 136 -116 104 -137 q 71 -159 54 -203 q 36 -247 36 -316 l 36 -316 q 36 -372 53 -418 q 70 -464 103 -497 q 135 -530 182 -548 q 229 -566 288 -566 z m 1004 -566 l 1004 -566 q 1059 -566 1097 -536 q 1135 -507 1156 -449 q 1176 -391 1176 -305 l 1176 -305 q 1176 -196 1148 -125 q 1119 -55 1064 -21 q 1009 12 931 12 l 931 12 q 884 12 838 2 q 792 -8 749 -32 l 749 -32 l 788 -97 q 817 -81 851 -70 q 885 -60 926 -60 l 926 -60 q 988 -60 1025 -88 q 1061 -116 1077 -170 q 1092 -225 1092 -305 l 1092 -305 q 1092 -401 1067 -449 q 1041 -497 999 -497 l 999 -497 q 980 -497 968 -490 q 956 -484 947 -472 l 947 -472 q 935 -457 931 -430 q 927 -404 927 -350 l 927 -350 l 927 -259 l 846 -259 l 846 -348 q 846 -395 842 -423 q 838 -451 827 -467 l 827 -467 q 818 -482 804 -489 q 789 -497 772 -497 l 772 -497 q 732 -497 712 -465 q 692 -434 692 -387 l 692 -387 q 692 -353 696 -324 q 700 -296 706 -272 l 706 -272 l 630 -255 q 621 -286 616 -321 q 610 -356 610 -391 l 610 -391 q 610 -439 627 -478 q 644 -518 679 -542 q 713 -566 766 -566 l 766 -566 q 810 -566 840 -546 q 870 -526 890 -488 l 890 -488 l 877 -489 q 901 -532 932 -549 q 963 -566 1004 -566 z"},"ഋ":{"ha":737,"x_min":35,"x_max":702,"o":"m 551 -566 l 551 -566 q 621 -566 662 -512 q 702 -458 702 -363 l 702 -363 q 702 -299 685 -251 q 668 -203 632 -167 l 632 -167 q 594 -129 537 -111 q 480 -93 393 -93 l 393 -93 l 345 -93 q 288 -93 244 -100 q 200 -107 168 -122 q 136 -137 111 -161 l 111 -161 q 73 -197 54 -246 q 35 -296 35 -360 l 35 -360 q 35 -421 54 -467 q 73 -514 110 -540 q 146 -566 198 -566 l 198 -566 q 246 -566 276 -544 q 306 -523 321 -487 q 335 -452 335 -409 l 335 -409 q 335 -361 321 -326 q 306 -291 277 -271 q 247 -252 200 -252 l 200 -252 q 169 -252 144 -262 q 119 -272 99 -289 q 78 -306 59 -325 l 59 -325 l 83 -379 q 98 -362 112 -348 q 126 -334 144 -326 q 161 -319 184 -319 l 184 -319 q 225 -319 242 -343 q 258 -367 258 -410 l 258 -410 q 258 -448 243 -473 q 227 -499 193 -499 l 193 -499 q 165 -499 147 -483 q 128 -467 119 -436 q 109 -406 109 -364 l 109 -364 q 109 -350 111 -335 q 112 -321 115 -307 l 115 -307 l 112 -290 q 123 -253 144 -227 q 164 -201 194 -185 q 224 -169 263 -162 q 302 -155 351 -155 l 351 -155 l 384 -155 q 435 -155 475 -162 q 514 -170 544 -186 q 574 -203 594 -228 q 614 -254 624 -291 l 624 -291 l 621 -309 q 624 -321 626 -336 q 627 -351 627 -361 l 627 -361 q 627 -408 619 -438 q 610 -469 593 -484 q 576 -499 550 -499 l 550 -499 q 513 -499 496 -473 q 479 -447 479 -405 l 479 -405 q 479 -366 495 -342 q 511 -319 551 -319 l 551 -319 q 574 -319 592 -326 q 609 -333 624 -346 q 638 -360 653 -376 l 653 -376 l 676 -323 q 659 -305 639 -288 q 618 -272 593 -262 q 568 -252 536 -252 l 536 -252 q 489 -252 459 -272 q 429 -292 415 -326 q 401 -361 401 -407 l 401 -407 q 401 -451 417 -486 q 432 -522 466 -544 q 499 -566 551 -566 z m 370 213 l 370 213 q 270 213 202 194 q 134 174 99 134 q 64 93 64 31 l 64 31 q 64 -13 85 -44 q 105 -75 140 -95 q 174 -115 220 -124 q 265 -134 314 -134 l 314 -134 l 420 -134 q 471 -134 517 -124 q 562 -115 597 -95 q 632 -75 652 -43 q 672 -12 672 32 l 672 32 q 672 91 639 132 q 606 172 539 193 q 472 213 370 213 z m 369 144 l 369 144 q 448 144 497 131 q 545 118 567 92 q 589 66 589 29 l 589 29 q 589 -4 573 -26 q 557 -48 528 -61 q 499 -74 461 -79 q 423 -85 377 -85 l 377 -85 l 358 -85 q 298 -85 251 -74 q 203 -64 175 -39 q 147 -14 147 28 l 147 28 q 147 67 170 93 q 192 118 241 131 q 290 144 369 144 z"},"ഌ":{"ha":974,"x_min":39,"x_max":937,"o":"m 301 -566 l 301 -566 q 370 -566 411 -541 q 452 -516 486 -469 l 486 -469 l 501 -410 l 513 -254 l 513 0 l 432 0 l 432 -320 q 432 -376 424 -408 q 416 -441 397 -462 l 397 -462 q 381 -479 359 -488 q 336 -497 302 -497 l 302 -497 q 245 -497 204 -464 q 162 -432 139 -375 q 116 -319 116 -247 l 116 -247 l 116 -224 q 116 -164 127 -127 q 138 -90 158 -73 q 177 -56 203 -56 l 203 -56 q 223 -56 238 -66 q 252 -77 260 -99 q 268 -121 268 -157 l 268 -157 q 268 -211 249 -235 q 229 -259 194 -259 l 194 -259 q 164 -259 139 -244 q 113 -229 89 -199 l 89 -199 l 69 -254 q 94 -283 132 -305 q 169 -327 211 -327 l 211 -327 q 253 -327 284 -308 q 314 -290 331 -253 q 348 -216 348 -161 l 348 -161 q 348 -104 331 -65 q 313 -26 281 -7 q 249 12 204 12 l 204 12 q 159 12 122 -13 q 84 -38 62 -93 q 39 -149 39 -241 l 39 -241 q 39 -351 74 -423 q 109 -495 168 -530 q 227 -566 301 -566 z m 761 12 l 761 12 q 706 12 671 -16 q 635 -44 617 -92 q 599 -140 599 -198 l 599 -198 q 599 -296 641 -349 q 682 -403 753 -403 l 753 -403 q 794 -403 824 -383 q 853 -364 874 -329 q 895 -295 909 -248 l 909 -248 l 882 -237 q 876 -258 862 -281 q 847 -304 824 -320 q 801 -336 771 -336 l 771 -336 q 723 -336 701 -299 q 679 -262 679 -198 l 679 -198 q 679 -153 688 -121 q 697 -89 715 -71 q 733 -54 762 -54 l 762 -54 q 792 -54 814 -73 q 835 -93 847 -136 q 859 -179 859 -248 l 859 -248 q 859 -253 858 -270 q 856 -288 854 -306 l 854 -306 q 853 -312 853 -321 q 853 -330 851 -335 l 851 -335 q 844 -377 822 -413 q 799 -450 760 -473 q 721 -497 664 -497 l 664 -497 q 629 -497 603 -488 q 577 -480 557 -462 l 557 -462 q 541 -447 532 -426 q 522 -405 518 -375 q 513 -346 513 -304 l 513 -304 l 513 -206 l 460 -458 q 480 -487 506 -512 q 532 -537 570 -551 q 607 -566 660 -566 l 660 -566 q 729 -566 781 -542 q 832 -519 867 -476 q 902 -433 920 -373 q 937 -314 937 -242 l 937 -242 q 937 -149 914 -92 q 891 -36 852 -12 q 812 12 761 12 z"},"എ":{"ha":1055,"x_min":31,"x_max":1015,"o":"m 197 -346 l 197 -346 q 254 -346 291 -321 q 327 -297 345 -258 q 363 -220 363 -177 l 363 -177 q 363 -134 350 -102 q 337 -71 323 -57 l 323 -57 l 306 -67 l 715 -67 l 713 0 l 275 0 l 245 -52 q 261 -73 272 -100 q 283 -127 283 -165 l 283 -165 q 283 -218 261 -248 q 239 -279 197 -279 l 197 -279 q 171 -279 151 -265 q 131 -252 121 -227 q 110 -203 110 -171 l 110 -171 q 110 -131 124 -100 q 138 -70 162 -41 l 162 -41 l 109 7 q 77 -27 54 -71 q 31 -115 31 -172 l 31 -172 q 31 -225 52 -264 q 73 -303 111 -324 q 148 -346 197 -346 z m 746 -566 l 746 -566 q 811 -566 861 -542 q 910 -518 945 -470 q 979 -422 997 -350 q 1015 -278 1015 -182 l 1015 -182 q 1015 -113 1002 -39 q 988 34 961 103 q 933 171 890 228 l 890 228 l 826 184 q 860 136 884 80 q 907 23 920 -42 q 932 -108 932 -182 l 932 -182 q 932 -244 923 -300 q 913 -357 891 -401 q 869 -446 833 -471 q 797 -497 744 -497 l 744 -497 q 680 -497 638 -453 q 595 -410 574 -330 q 553 -251 553 -145 l 553 -145 q 553 -116 554 -93 q 555 -71 557 -51 l 557 -51 q 557 -46 557 -41 q 557 -36 557 -31 l 557 -31 q 561 41 576 83 q 590 125 611 143 q 632 161 654 161 l 654 161 q 673 161 683 150 l 683 150 q 690 141 693 127 q 695 113 695 86 l 695 86 l 695 -406 l 777 -406 l 777 59 q 777 104 772 135 q 766 166 751 187 l 751 187 q 737 205 715 217 q 693 228 659 228 l 659 228 q 602 228 560 190 q 517 152 494 69 q 471 -14 471 -148 l 471 -148 q 471 -246 489 -323 q 506 -401 541 -455 q 576 -510 628 -538 q 679 -566 746 -566 z"},"ഏ":{"ha":1061,"x_min":31,"x_max":1030,"o":"m 197 -346 l 197 -346 q 254 -346 291 -321 q 327 -297 345 -258 q 363 -220 363 -177 l 363 -177 q 363 -134 350 -102 q 337 -71 323 -57 l 323 -57 l 306 -67 l 715 -67 l 713 0 l 275 0 l 245 -52 q 261 -73 272 -100 q 283 -127 283 -165 l 283 -165 q 283 -218 261 -248 q 239 -279 197 -279 l 197 -279 q 171 -279 151 -265 q 131 -251 121 -227 q 110 -203 110 -171 l 110 -171 q 110 -131 124 -100 q 138 -70 162 -41 l 162 -41 l 109 7 q 77 -27 54 -71 q 31 -115 31 -172 l 31 -172 q 31 -225 52 -264 q 73 -303 111 -324 q 148 -346 197 -346 z m 782 -566 l 782 -566 q 848 -566 895 -546 q 941 -526 969 -492 q 997 -459 1010 -418 q 1022 -378 1022 -337 l 1022 -337 q 1022 -284 1007 -246 q 992 -208 967 -182 q 941 -157 911 -139 l 911 -139 l 913 -147 q 965 -127 998 -82 q 1030 -38 1030 33 l 1030 33 q 1030 102 1009 146 q 987 189 950 209 q 913 228 864 228 l 864 228 q 846 228 828 226 q 810 224 798 221 l 798 221 l 813 155 q 824 158 835 159 q 846 160 856 160 l 856 160 q 885 160 906 147 q 926 134 937 106 q 947 78 947 33 l 947 33 q 947 -27 918 -65 q 889 -104 829 -105 l 829 -105 l 829 -172 q 862 -181 887 -200 q 912 -220 926 -253 q 939 -286 939 -334 l 939 -334 q 939 -379 923 -416 q 906 -453 871 -475 q 836 -497 780 -497 l 780 -497 q 698 -497 648 -451 q 598 -405 576 -325 q 553 -246 553 -145 l 553 -145 q 553 -116 554 -93 q 555 -71 557 -51 l 557 -51 q 557 -46 557 -41 q 557 -36 557 -31 l 557 -31 q 561 41 576 83 q 590 125 611 143 q 632 161 654 161 l 654 161 q 673 161 683 150 l 683 150 q 690 141 693 127 q 695 113 695 86 l 695 86 l 695 -406 l 777 -406 l 777 59 q 777 104 772 135 q 766 166 751 187 l 751 187 q 737 205 715 217 q 693 228 659 228 l 659 228 q 603 228 561 190 q 518 152 495 69 q 471 -14 471 -148 l 471 -148 q 471 -245 491 -322 q 511 -400 551 -454 q 590 -509 648 -537 q 705 -566 782 -566 z"},"ഐ":{"ha":1653,"x_min":36,"x_max":1614,"o":"m 200 12 l 200 12 q 156 12 119 -12 q 81 -37 59 -91 q 36 -145 36 -233 l 36 -233 q 36 -314 57 -375 q 77 -437 114 -479 q 151 -522 202 -544 q 252 -566 311 -566 l 311 -566 q 375 -566 423 -545 q 470 -524 501 -486 q 531 -448 546 -397 q 561 -346 561 -287 l 561 -287 q 561 -215 545 -160 q 528 -106 500 -65 q 471 -24 433 8 l 433 8 l 379 -49 q 405 -70 427 -101 q 449 -133 463 -176 q 477 -220 477 -277 l 477 -277 q 477 -347 457 -396 q 437 -445 400 -471 q 362 -497 309 -497 l 309 -497 q 252 -497 208 -463 q 163 -430 138 -370 q 113 -311 113 -230 l 113 -230 q 113 -167 124 -128 q 135 -90 155 -73 q 174 -56 200 -56 l 200 -56 q 220 -56 235 -66 q 249 -77 257 -99 q 265 -122 265 -157 l 265 -157 q 265 -211 245 -235 q 225 -259 191 -259 l 191 -259 q 161 -259 136 -244 q 110 -229 86 -199 l 86 -199 l 66 -254 q 91 -283 129 -305 q 166 -327 208 -327 l 208 -327 q 250 -327 281 -308 q 311 -290 328 -253 q 345 -216 345 -161 l 345 -161 q 345 -104 328 -65 q 310 -26 278 -7 q 246 12 200 12 z m 796 -346 l 796 -346 q 853 -346 890 -321 q 926 -297 944 -258 q 962 -220 962 -177 l 962 -177 q 962 -134 949 -102 q 936 -71 922 -57 l 922 -57 l 905 -67 l 1314 -67 l 1312 0 l 874 0 l 844 -52 q 860 -73 871 -100 q 882 -127 882 -165 l 882 -165 q 882 -218 860 -248 q 838 -279 796 -279 l 796 -279 q 770 -279 750 -265 q 730 -252 720 -227 q 709 -203 709 -171 l 709 -171 q 709 -131 723 -100 q 737 -70 761 -41 l 761 -41 l 708 7 q 676 -27 653 -71 q 630 -115 630 -172 l 630 -172 q 630 -225 651 -264 q 672 -303 710 -324 q 747 -346 796 -346 z m 1345 -566 l 1345 -566 q 1410 -566 1460 -542 q 1509 -518 1544 -470 q 1578 -422 1596 -350 q 1614 -278 1614 -182 l 1614 -182 q 1614 -113 1601 -39 q 1587 34 1560 103 q 1532 171 1489 228 l 1489 228 l 1425 184 q 1459 136 1483 80 q 1506 23 1519 -42 q 1531 -108 1531 -182 l 1531 -182 q 1531 -244 1522 -300 q 1512 -357 1490 -401 q 1468 -446 1432 -471 q 1396 -497 1343 -497 l 1343 -497 q 1279 -497 1237 -453 q 1194 -410 1173 -330 q 1152 -251 1152 -145 l 1152 -145 q 1152 -116 1153 -93 q 1154 -71 1156 -51 l 1156 -51 q 1156 -46 1156 -41 q 1156 -36 1156 -31 l 1156 -31 q 1160 41 1175 83 q 1189 125 1210 143 q 1231 161 1253 161 l 1253 161 q 1272 161 1282 150 l 1282 150 q 1289 141 1292 127 q 1294 113 1294 86 l 1294 86 l 1294 -406 l 1376 -406 l 1376 59 q 1376 104 1371 135 q 1365 166 1350 187 l 1350 187 q 1336 205 1314 217 q 1292 228 1258 228 l 1258 228 q 1201 228 1159 190 q 1116 152 1093 69 q 1070 -14 1070 -148 l 1070 -148 q 1070 -246 1088 -323 q 1105 -401 1140 -455 q 1175 -510 1227 -538 q 1278 -566 1345 -566 z"},"ഒ":{"ha":640,"x_min":37,"x_max":605,"o":"m 381 -566 l 381 -566 q 459 -566 507 -543 q 555 -521 577 -484 q 598 -447 598 -403 l 598 -403 q 598 -375 589 -351 q 580 -327 559 -307 q 537 -288 503 -275 l 503 -275 l 499 -280 q 549 -267 577 -228 q 605 -189 605 -141 l 605 -141 q 605 -70 565 -29 q 524 11 452 11 l 452 11 q 430 11 408 8 q 385 5 370 1 l 370 1 l 385 -64 q 399 -60 413 -58 q 427 -56 439 -56 l 439 -56 q 481 -56 502 -77 q 522 -99 522 -141 l 522 -141 q 522 -163 516 -181 q 509 -200 495 -213 l 495 -213 q 481 -228 459 -235 q 436 -243 401 -243 l 401 -243 l 393 -243 l 393 -310 l 402 -310 q 433 -310 456 -316 q 478 -323 494 -338 l 494 -338 q 505 -349 511 -364 q 516 -379 516 -398 l 516 -398 q 516 -445 481 -471 q 446 -497 378 -497 l 378 -497 q 320 -497 271 -478 q 222 -459 187 -424 q 152 -390 133 -342 q 114 -294 114 -235 l 114 -235 l 114 -217 q 114 -162 125 -126 q 135 -90 155 -73 q 175 -56 201 -56 l 201 -56 q 221 -56 236 -66 q 250 -77 258 -99 q 266 -122 266 -157 l 266 -157 q 266 -211 246 -235 q 226 -259 192 -259 l 192 -259 q 163 -259 139 -245 q 115 -231 91 -203 l 91 -203 l 78 -265 q 102 -289 137 -308 q 171 -327 209 -327 l 209 -327 q 251 -327 282 -308 q 312 -290 329 -253 q 346 -216 346 -161 l 346 -161 q 346 -104 329 -65 q 311 -26 279 -7 q 247 12 201 12 l 201 12 q 157 12 120 -12 q 82 -37 60 -89 q 37 -142 37 -226 l 37 -226 q 37 -304 60 -366 q 83 -429 128 -474 q 172 -519 236 -542 q 300 -566 381 -566 z"},"ഓ":{"ha":1073,"x_min":37,"x_max":1034,"o":"m 381 -566 l 381 -566 q 459 -566 507 -543 q 555 -521 577 -484 q 598 -447 598 -403 l 598 -403 q 598 -375 589 -351 q 580 -327 559 -307 q 537 -288 503 -275 l 503 -275 l 499 -280 q 549 -267 577 -228 q 605 -189 605 -141 l 605 -141 q 605 -70 565 -29 q 524 11 452 11 l 452 11 q 430 11 408 8 q 385 5 370 1 l 370 1 l 385 -64 q 399 -60 413 -58 q 427 -56 439 -56 l 439 -56 q 481 -56 502 -77 q 522 -99 522 -141 l 522 -141 q 522 -163 516 -181 q 509 -200 495 -213 l 495 -213 q 481 -228 459 -235 q 436 -243 401 -243 l 401 -243 l 393 -243 l 393 -310 l 402 -310 q 433 -310 456 -316 q 478 -323 494 -338 l 494 -338 q 505 -349 511 -364 q 516 -379 516 -398 l 516 -398 q 516 -445 481 -471 q 446 -497 378 -497 l 378 -497 q 320 -497 271 -478 q 222 -459 187 -424 q 152 -390 133 -342 q 114 -294 114 -235 l 114 -235 l 114 -217 q 114 -162 125 -126 q 135 -90 155 -73 q 175 -56 201 -56 l 201 -56 q 221 -56 236 -66 q 250 -77 258 -99 q 266 -122 266 -157 l 266 -157 q 266 -211 246 -235 q 226 -259 192 -259 l 192 -259 q 163 -259 139 -245 q 115 -231 91 -203 l 91 -203 l 78 -265 q 102 -289 137 -308 q 171 -327 209 -327 l 209 -327 q 251 -327 282 -308 q 312 -290 329 -253 q 346 -216 346 -161 l 346 -161 q 346 -104 329 -65 q 311 -26 279 -7 q 247 12 201 12 l 201 12 q 157 12 120 -12 q 82 -37 60 -89 q 37 -142 37 -226 l 37 -226 q 37 -304 60 -366 q 83 -429 128 -474 q 172 -519 236 -542 q 300 -566 381 -566 z m 1034 -279 l 1034 -279 q 1034 -216 1025 -163 q 1015 -110 993 -70 q 971 -31 935 -9 q 899 12 845 12 l 845 12 q 800 12 767 -4 q 734 -20 713 -46 q 691 -73 678 -105 q 665 -138 660 -170 l 660 -170 l 742 -186 q 748 -159 759 -128 q 769 -98 789 -76 q 809 -55 841 -55 l 841 -55 q 881 -55 905 -81 q 929 -108 940 -157 q 951 -207 951 -278 l 951 -278 q 951 -348 940 -397 q 929 -447 906 -473 q 882 -499 845 -499 l 845 -499 q 815 -499 795 -479 q 774 -460 763 -430 q 751 -401 744 -370 l 744 -370 l 663 -386 q 671 -420 685 -451 q 699 -483 721 -509 q 742 -535 775 -550 q 807 -566 852 -566 l 852 -566 q 903 -566 938 -544 q 973 -523 994 -484 q 1015 -445 1025 -392 q 1034 -340 1034 -279 z"},"ഔ":{"ha":1274,"x_min":37,"x_max":1236,"o":"m 381 -566 l 381 -566 q 459 -566 507 -543 q 555 -521 577 -484 q 598 -447 598 -403 l 598 -403 q 598 -375 589 -351 q 580 -327 559 -307 q 537 -288 503 -275 l 503 -275 l 499 -280 q 549 -267 577 -228 q 605 -189 605 -141 l 605 -141 q 605 -70 565 -29 q 524 11 452 11 l 452 11 q 430 11 408 8 q 385 5 370 1 l 370 1 l 385 -64 q 399 -60 413 -58 q 427 -56 439 -56 l 439 -56 q 481 -56 502 -77 q 522 -99 522 -141 l 522 -141 q 522 -163 516 -181 q 509 -200 495 -213 l 495 -213 q 481 -228 459 -235 q 436 -243 401 -243 l 401 -243 l 393 -243 l 393 -310 l 402 -310 q 433 -310 456 -316 q 478 -323 494 -338 l 494 -338 q 505 -349 511 -364 q 516 -379 516 -398 l 516 -398 q 516 -445 481 -471 q 446 -497 378 -497 l 378 -497 q 320 -497 271 -478 q 222 -459 187 -424 q 152 -390 133 -342 q 114 -294 114 -235 l 114 -235 l 114 -217 q 114 -162 125 -126 q 135 -90 155 -73 q 175 -56 201 -56 l 201 -56 q 221 -56 236 -66 q 250 -77 258 -99 q 266 -122 266 -157 l 266 -157 q 266 -211 246 -235 q 226 -259 192 -259 l 192 -259 q 163 -259 139 -245 q 115 -231 91 -203 l 91 -203 l 78 -265 q 102 -289 137 -308 q 171 -327 209 -327 l 209 -327 q 251 -327 282 -308 q 312 -290 329 -253 q 346 -216 346 -161 l 346 -161 q 346 -104 329 -65 q 311 -26 279 -7 q 247 12 201 12 l 201 12 q 157 12 120 -12 q 82 -37 60 -89 q 37 -142 37 -226 l 37 -226 q 37 -304 60 -366 q 83 -429 128 -474 q 172 -519 236 -542 q 300 -566 381 -566 z m 1064 -566 l 1064 -566 q 1119 -566 1157 -536 q 1195 -507 1216 -449 q 1236 -391 1236 -305 l 1236 -305 q 1236 -196 1208 -125 q 1179 -55 1124 -21 q 1069 12 991 12 l 991 12 q 944 12 898 2 q 852 -8 809 -32 l 809 -32 l 848 -97 q 877 -81 911 -70 q 945 -60 986 -60 l 986 -60 q 1048 -60 1085 -88 q 1121 -116 1137 -170 q 1152 -225 1152 -305 l 1152 -305 q 1152 -401 1127 -449 q 1101 -497 1059 -497 l 1059 -497 q 1040 -497 1028 -490 q 1016 -484 1007 -472 l 1007 -472 q 995 -457 991 -430 q 987 -404 987 -350 l 987 -350 l 987 -259 l 906 -259 l 906 -348 q 906 -395 902 -423 q 898 -451 887 -467 l 887 -467 q 878 -482 864 -489 q 849 -497 832 -497 l 832 -497 q 792 -497 772 -465 q 752 -434 752 -387 l 752 -387 q 752 -353 756 -324 q 760 -296 766 -272 l 766 -272 l 690 -255 q 681 -286 676 -321 q 670 -356 670 -391 l 670 -391 q 670 -439 687 -478 q 704 -518 739 -542 q 773 -566 826 -566 l 826 -566 q 870 -566 900 -546 q 930 -526 950 -488 l 950 -488 l 937 -489 q 961 -532 992 -549 q 1023 -566 1064 -566 z"},"ക":{"ha":868,"x_min":31,"x_max":837,"o":"m 189 12 l 189 12 q 113 12 72 -32 q 31 -76 31 -152 l 31 -152 q 31 -203 51 -236 q 71 -269 104 -289 l 104 -289 q 126 -302 153 -310 q 180 -319 219 -323 q 257 -327 313 -327 l 313 -327 l 567 -327 q 651 -327 698 -317 q 744 -307 775 -285 l 775 -285 q 803 -265 820 -231 q 837 -198 837 -150 l 837 -150 q 837 -76 796 -32 q 755 12 684 12 l 684 12 q 664 12 647 10 q 629 8 610 3 l 610 3 l 626 -63 q 637 -60 650 -58 q 662 -57 674 -57 l 674 -57 q 715 -57 736 -80 q 757 -104 757 -150 l 757 -150 q 757 -176 749 -196 q 740 -216 723 -228 l 723 -228 q 701 -245 668 -252 q 634 -259 567 -259 l 567 -259 l 298 -259 q 238 -259 205 -253 q 171 -248 147 -231 l 147 -231 q 131 -219 121 -199 q 110 -180 110 -152 l 110 -152 q 110 -121 121 -99 q 131 -78 150 -67 q 169 -57 196 -57 l 196 -57 q 226 -57 250 -66 q 274 -76 302 -98 l 302 -98 l 344 -45 q 316 -23 291 -10 q 266 2 242 7 q 217 12 189 12 z m 435 -566 l 435 -566 q 503 -566 546 -531 q 588 -496 609 -432 q 630 -368 630 -279 l 630 -279 q 630 -180 607 -115 q 583 -51 540 -19 q 496 12 435 12 l 435 12 q 385 12 350 -7 q 314 -27 290 -61 l 290 -61 q 264 -101 252 -157 q 240 -214 240 -279 l 240 -279 q 240 -422 292 -494 q 343 -566 435 -566 z m 435 -499 l 435 -499 q 377 -499 349 -445 q 320 -392 320 -278 l 320 -278 q 320 -200 333 -150 q 345 -101 371 -78 q 397 -55 434 -55 l 434 -55 q 472 -55 498 -77 q 523 -100 537 -149 q 550 -199 550 -278 l 550 -278 q 550 -356 537 -405 q 524 -454 499 -476 q 473 -499 435 -499 z"},"ഖ":{"ha":835,"x_min":38,"x_max":773,"o":"m 314 -566 l 314 -566 q 379 -566 426 -545 q 473 -524 504 -486 q 534 -448 549 -397 q 563 -346 563 -287 l 563 -287 q 563 -235 553 -192 q 543 -150 526 -116 q 509 -83 486 -56 l 486 -56 l 480 0 l 428 0 l 391 -55 q 413 -76 434 -107 q 454 -139 467 -181 q 479 -223 479 -278 l 479 -278 q 479 -348 459 -396 q 439 -445 402 -471 q 364 -497 312 -497 l 312 -497 q 253 -497 209 -463 q 164 -429 139 -371 q 114 -314 114 -241 l 114 -241 l 114 -220 q 114 -163 126 -126 q 137 -90 157 -73 q 176 -56 202 -56 l 202 -56 q 222 -56 236 -66 q 250 -77 259 -99 q 267 -122 267 -157 l 267 -157 q 267 -211 247 -235 q 227 -259 192 -259 l 192 -259 q 164 -259 140 -245 q 116 -231 92 -203 l 92 -203 l 79 -265 q 103 -289 137 -308 q 171 -327 209 -327 l 209 -327 q 252 -327 283 -308 q 313 -290 330 -253 q 346 -216 346 -161 l 346 -161 q 346 -104 329 -65 q 312 -26 280 -7 q 248 12 203 12 l 203 12 q 158 12 121 -12 q 83 -37 61 -92 q 38 -147 38 -236 l 38 -236 q 38 -344 74 -417 q 110 -491 174 -528 q 237 -566 314 -566 z m 692 -554 l 773 -554 l 773 0 l 452 0 l 472 -67 l 692 -67 l 692 -554 z"},"ഗ":{"ha":746,"x_min":37,"x_max":710,"o":"m 511 -566 l 511 -566 q 573 -566 618 -535 q 662 -504 686 -444 q 710 -385 710 -301 l 710 -301 q 710 -228 695 -172 q 679 -116 652 -71 q 624 -27 589 9 l 589 9 l 529 -45 q 555 -72 577 -106 q 599 -141 613 -188 q 626 -236 626 -298 l 626 -298 q 626 -359 612 -404 q 597 -449 572 -473 q 546 -497 510 -497 l 510 -497 q 484 -497 467 -488 q 450 -480 440 -465 l 440 -465 q 424 -443 419 -408 q 414 -374 414 -309 l 414 -309 l 414 -209 q 414 -169 410 -137 q 405 -106 395 -81 q 385 -57 366 -37 l 366 -37 q 344 -13 313 0 q 281 12 236 12 l 236 12 q 174 12 129 -19 q 84 -50 61 -109 q 37 -169 37 -253 l 37 -253 q 37 -327 53 -383 q 68 -440 96 -484 q 123 -529 158 -566 l 158 -566 l 218 -511 q 192 -486 170 -450 q 147 -414 134 -366 q 121 -318 121 -257 l 121 -257 q 121 -195 135 -150 q 149 -105 175 -81 q 201 -57 235 -57 l 235 -57 q 263 -57 280 -65 q 296 -74 307 -88 l 307 -88 q 323 -111 328 -149 q 332 -187 332 -256 l 332 -256 l 332 -346 q 332 -406 342 -446 q 352 -487 379 -516 l 379 -516 q 402 -540 434 -553 q 465 -566 511 -566 z"},"ഘ":{"ha":1104,"x_min":31,"x_max":1041,"o":"m 197 -566 l 197 -566 q 254 -566 291 -542 q 327 -518 345 -479 q 363 -441 363 -398 l 363 -398 q 363 -356 351 -325 q 338 -294 325 -280 l 325 -280 l 309 -291 l 476 -291 l 485 -223 l 277 -223 l 246 -275 q 262 -296 273 -322 q 283 -349 283 -388 l 283 -388 q 283 -439 261 -469 q 239 -499 197 -499 l 197 -499 q 171 -499 151 -485 q 131 -472 121 -448 q 110 -424 110 -393 l 110 -393 q 110 -353 123 -323 q 136 -293 160 -265 l 160 -265 l 107 -216 q 75 -250 53 -293 q 31 -337 31 -393 l 31 -393 q 31 -446 52 -485 q 73 -524 111 -545 q 148 -566 197 -566 z m 960 -554 l 1041 -554 l 1041 0 l 443 0 l 443 -326 q 443 -398 457 -438 q 470 -479 494 -507 l 494 -507 q 520 -536 557 -551 q 593 -566 642 -566 l 642 -566 q 692 -566 729 -552 q 765 -538 789 -511 l 789 -511 q 816 -481 828 -438 q 840 -396 840 -335 l 840 -335 l 840 -223 l 524 -223 l 524 -67 l 960 -67 l 960 -554 z m 641 -499 l 641 -499 q 580 -499 552 -458 q 524 -417 524 -327 l 524 -327 l 524 -291 l 759 -291 l 759 -328 q 759 -419 731 -459 q 702 -499 641 -499 z"},"ങ":{"ha":885,"x_min":39,"x_max":850,"o":"m 301 -566 l 301 -566 q 370 -566 412 -540 q 454 -515 486 -465 l 486 -465 l 500 -408 l 513 -254 l 513 0 l 432 0 l 432 -320 q 432 -376 424 -408 q 416 -441 397 -462 l 397 -462 q 381 -479 359 -488 q 336 -497 302 -497 l 302 -497 q 245 -497 204 -464 q 162 -432 139 -375 q 116 -319 116 -247 l 116 -247 l 116 -224 q 116 -164 127 -127 q 138 -90 158 -73 q 177 -56 203 -56 l 203 -56 q 223 -56 238 -66 q 252 -77 260 -99 q 268 -121 268 -157 l 268 -157 q 268 -211 249 -235 q 229 -259 194 -259 l 194 -259 q 164 -259 139 -244 q 113 -229 89 -199 l 89 -199 l 69 -254 q 94 -283 132 -305 q 169 -327 211 -327 l 211 -327 q 253 -327 284 -308 q 314 -290 331 -253 q 348 -216 348 -161 l 348 -161 q 348 -104 331 -65 q 313 -26 281 -7 q 249 12 204 12 l 204 12 q 159 12 122 -13 q 84 -38 62 -93 q 39 -149 39 -241 l 39 -241 q 39 -351 74 -423 q 109 -495 168 -530 q 227 -566 301 -566 z m 668 -566 l 668 -566 q 726 -566 765 -545 q 804 -525 824 -490 q 843 -455 843 -412 l 843 -412 q 843 -380 834 -354 q 825 -329 804 -309 q 782 -289 748 -275 l 748 -275 l 744 -280 q 794 -267 822 -228 q 850 -190 850 -141 l 850 -141 q 850 -69 809 -29 q 768 11 697 11 l 697 11 q 674 11 652 8 q 630 5 615 1 l 615 1 l 630 -64 q 645 -60 659 -58 q 672 -56 684 -56 l 684 -56 q 722 -56 745 -75 q 767 -94 767 -141 l 767 -141 q 767 -163 761 -181 q 754 -200 740 -213 l 740 -213 q 726 -228 703 -235 q 680 -243 644 -243 l 644 -243 l 633 -243 l 633 -310 l 646 -310 q 678 -310 701 -316 q 723 -323 738 -339 l 738 -339 q 749 -350 755 -366 q 761 -383 761 -405 l 761 -405 q 761 -452 734 -474 q 706 -497 664 -497 l 664 -497 q 634 -497 610 -488 q 585 -479 566 -461 l 566 -461 q 549 -445 537 -423 q 525 -401 519 -367 q 513 -334 513 -284 l 513 -284 l 513 -167 l 458 -168 l 449 -280 l 462 -431 q 478 -469 506 -499 q 534 -529 575 -547 q 616 -566 668 -566 z"},"ച":{"ha":777,"x_min":16,"x_max":714,"o":"m 633 -554 l 714 -554 l 714 0 l 16 0 l 16 -67 l 356 -67 l 309 -52 q 331 -73 351 -107 q 370 -142 370 -192 l 370 -192 q 370 -240 350 -269 q 329 -298 290 -298 l 290 -298 q 252 -298 231 -271 q 209 -245 209 -196 l 209 -196 q 209 -185 211 -173 q 212 -161 213 -154 l 213 -154 l 135 -143 q 133 -153 131 -169 q 128 -185 128 -202 l 128 -202 q 128 -278 173 -321 q 217 -365 290 -365 l 290 -365 q 335 -365 365 -351 q 395 -337 414 -313 q 433 -289 441 -258 q 449 -228 449 -196 l 449 -196 q 449 -163 442 -136 q 434 -109 422 -87 q 409 -66 394 -48 l 394 -48 l 374 -67 l 633 -67 l 633 -554 z"},"ഛ":{"ha":1117,"x_min":16,"x_max":1080,"o":"m 290 -365 l 290 -365 q 335 -365 365 -351 q 395 -337 414 -313 q 433 -289 441 -258 q 449 -228 449 -196 l 449 -196 q 449 -163 442 -136 q 434 -109 422 -87 q 409 -66 394 -48 l 394 -48 l 374 -67 l 633 -67 l 656 0 l 16 0 l 16 -67 l 356 -67 l 309 -52 q 331 -73 351 -107 q 370 -142 370 -192 l 370 -192 q 370 -240 350 -269 q 329 -298 290 -298 l 290 -298 q 252 -298 231 -271 q 209 -245 209 -196 l 209 -196 q 209 -185 211 -173 q 212 -161 213 -154 l 213 -154 l 135 -143 q 133 -153 131 -169 q 128 -185 128 -202 l 128 -202 q 128 -278 173 -321 q 217 -365 290 -365 z m 803 -566 l 803 -566 q 872 -566 924 -542 q 976 -519 1011 -476 q 1045 -433 1063 -373 q 1080 -314 1080 -242 l 1080 -242 q 1080 -149 1058 -92 q 1035 -36 996 -12 q 956 12 905 12 l 905 12 q 850 12 814 -16 q 778 -44 761 -92 q 743 -140 743 -198 l 743 -198 q 743 -296 784 -349 q 825 -403 896 -403 l 896 -403 q 938 -403 967 -383 q 996 -364 1017 -329 q 1038 -295 1052 -248 l 1052 -248 l 1026 -237 q 1019 -258 1005 -281 q 990 -304 967 -320 q 944 -336 914 -336 l 914 -336 q 867 -336 845 -299 q 823 -262 823 -198 l 823 -198 q 823 -153 832 -121 q 840 -89 859 -71 q 877 -54 905 -54 l 905 -54 q 936 -54 958 -73 q 979 -93 991 -136 q 1002 -179 1002 -248 l 1002 -248 q 1002 -250 1001 -270 q 999 -290 997 -310 l 997 -310 q 996 -315 996 -323 q 996 -331 994 -335 l 994 -335 q 987 -378 964 -414 q 941 -451 902 -474 q 862 -497 806 -497 l 806 -497 q 748 -497 707 -470 q 665 -444 643 -395 q 620 -347 620 -279 l 620 -279 q 620 -228 631 -187 q 642 -147 663 -114 q 683 -81 708 -55 l 708 -55 l 670 0 l 630 0 l 619 -51 q 595 -78 577 -112 q 558 -147 547 -190 q 536 -234 536 -285 l 536 -285 q 536 -341 552 -392 q 568 -443 601 -482 q 634 -521 684 -543 q 734 -566 803 -566 z"},"ജ":{"ha":780,"x_min":33,"x_max":741,"o":"m 250 -566 l 250 -566 q 297 -566 331 -555 q 364 -544 390 -523 q 415 -502 437 -470 l 437 -470 l 406 -467 q 436 -519 474 -542 q 512 -566 565 -566 l 565 -566 q 627 -566 666 -539 q 704 -512 723 -469 q 741 -426 741 -378 l 741 -378 q 741 -333 729 -301 q 717 -269 694 -246 q 671 -223 639 -208 l 639 -208 l 551 -189 l 494 -177 q 470 -173 434 -170 q 397 -167 359 -167 l 359 -167 l 231 -167 q 189 -167 170 -164 q 151 -161 140 -155 l 140 -155 q 126 -148 120 -137 q 113 -127 113 -112 l 113 -112 q 113 -92 123 -79 q 132 -66 147 -60 q 162 -54 179 -54 l 179 -54 q 208 -54 234 -60 q 260 -66 290 -80 q 319 -95 360 -120 l 360 -120 q 379 -132 396 -141 q 413 -150 428 -157 q 442 -165 457 -171 q 471 -177 485 -182 l 485 -182 q 500 -188 516 -196 q 531 -204 547 -211 q 563 -218 578 -223 q 593 -228 605 -228 l 605 -228 q 636 -228 663 -217 q 689 -207 706 -181 q 722 -156 722 -111 l 722 -111 q 722 -55 689 -21 q 656 12 597 12 l 597 12 q 550 12 523 -7 q 495 -26 484 -55 q 472 -84 472 -115 l 472 -115 q 472 -148 485 -171 q 497 -195 525 -211 l 525 -211 l 575 -216 q 566 -206 557 -192 q 548 -179 543 -161 q 537 -143 537 -118 l 537 -118 q 537 -81 553 -64 q 569 -48 594 -48 l 594 -48 q 626 -48 638 -67 q 650 -87 650 -114 l 650 -114 q 650 -137 643 -151 q 636 -165 623 -172 q 610 -180 592 -180 l 592 -180 q 573 -180 556 -170 q 538 -160 518 -143 l 518 -143 l 507 -150 q 496 -139 482 -126 q 467 -114 450 -101 q 433 -88 411 -74 l 411 -74 q 366 -45 327 -25 q 288 -6 252 3 q 216 12 177 12 l 177 12 q 138 12 106 0 q 73 -12 53 -39 q 33 -66 33 -109 l 33 -109 q 33 -141 46 -166 q 58 -191 85 -207 l 85 -207 q 105 -219 133 -225 q 161 -232 217 -232 l 217 -232 l 453 -232 q 492 -232 523 -235 q 553 -238 577 -245 q 600 -253 617 -267 l 617 -267 q 637 -284 649 -310 q 660 -336 660 -374 l 660 -374 q 660 -404 651 -432 q 641 -461 619 -480 q 597 -500 558 -500 l 558 -500 q 534 -500 518 -493 q 502 -486 492 -474 l 492 -474 q 472 -453 466 -416 q 460 -380 460 -329 l 460 -329 l 460 -260 l 382 -260 l 382 -329 q 382 -374 376 -409 q 369 -444 346 -468 l 346 -468 q 331 -484 308 -492 q 284 -501 247 -501 l 247 -501 q 206 -501 175 -490 q 143 -480 123 -456 l 123 -456 q 119 -452 119 -445 q 118 -438 116 -433 l 116 -433 q 111 -420 109 -407 q 107 -394 107 -378 l 107 -378 q 107 -334 123 -316 q 139 -298 165 -298 l 165 -298 q 186 -298 198 -308 q 210 -319 215 -335 q 219 -351 219 -368 l 219 -368 q 219 -401 205 -416 q 191 -431 163 -431 l 163 -431 q 135 -431 112 -417 q 89 -404 75 -387 l 75 -387 l 67 -421 q 89 -448 119 -463 q 148 -479 183 -479 l 183 -479 q 220 -479 244 -464 q 267 -450 279 -424 q 291 -399 291 -365 l 291 -365 q 291 -329 278 -300 q 265 -272 238 -256 q 211 -240 167 -240 l 167 -240 q 107 -240 74 -277 q 40 -314 40 -384 l 40 -384 q 40 -436 65 -477 q 89 -518 136 -542 q 182 -566 250 -566 z"},"ഝ":{"ha":1373,"x_min":37,"x_max":1336,"o":"m 557 -566 l 557 -566 q 605 -566 641 -554 q 676 -542 701 -520 l 701 -520 q 741 -485 756 -433 q 771 -381 771 -303 l 771 -303 l 771 -219 q 771 -167 777 -136 q 782 -105 798 -84 l 798 -84 q 808 -71 824 -64 q 840 -57 863 -57 l 863 -57 q 885 -57 902 -65 q 919 -74 929 -90 l 929 -90 q 943 -111 948 -141 q 953 -172 953 -230 l 953 -230 l 953 -554 l 1034 -554 l 1034 -234 q 1034 -176 1041 -142 q 1048 -109 1063 -91 l 1063 -91 q 1075 -74 1093 -65 q 1110 -57 1132 -57 l 1132 -57 q 1168 -57 1195 -83 q 1222 -109 1237 -154 q 1252 -199 1252 -256 l 1252 -256 q 1252 -318 1239 -365 q 1225 -412 1203 -447 q 1181 -482 1155 -507 l 1155 -507 l 1216 -562 q 1249 -527 1277 -484 q 1304 -441 1320 -385 q 1336 -329 1336 -253 l 1336 -253 q 1336 -177 1312 -117 q 1288 -57 1243 -22 q 1198 12 1132 12 l 1132 12 q 1082 12 1049 -10 q 1015 -32 989 -77 l 989 -77 l 998 -76 q 983 -49 964 -29 q 944 -9 918 2 q 891 12 855 12 l 855 12 q 817 12 788 1 q 759 -11 738 -34 l 738 -34 q 723 -50 712 -71 q 701 -92 696 -125 q 690 -159 690 -211 l 690 -211 l 690 -294 q 690 -339 686 -371 q 681 -403 671 -425 q 661 -448 645 -463 l 645 -463 q 629 -480 604 -490 q 579 -500 545 -500 l 545 -500 q 529 -500 510 -496 q 490 -493 470 -483 l 470 -483 l 448 -468 q 415 -450 390 -413 q 365 -376 351 -325 q 336 -275 336 -214 l 336 -214 q 336 -150 349 -115 q 361 -81 381 -68 q 401 -55 424 -55 l 424 -55 q 448 -55 468 -68 q 487 -81 499 -115 q 511 -150 511 -214 l 511 -214 q 511 -274 496 -325 q 481 -377 455 -415 q 429 -453 394 -473 l 394 -473 l 378 -483 q 360 -492 342 -496 q 324 -500 304 -500 l 304 -500 q 245 -500 204 -472 q 163 -444 142 -394 q 121 -345 121 -279 l 121 -279 q 121 -223 133 -180 q 145 -138 168 -105 q 190 -73 219 -49 l 219 -49 l 165 8 q 130 -20 101 -60 q 72 -101 55 -157 q 37 -213 37 -285 l 37 -285 q 37 -343 53 -394 q 69 -445 102 -484 q 134 -523 182 -544 q 230 -566 295 -566 l 295 -566 q 336 -566 371 -556 q 405 -546 437 -523 l 437 -523 l 458 -505 q 518 -465 556 -392 q 594 -319 594 -214 l 594 -214 q 594 -142 575 -91 q 555 -40 517 -14 q 478 12 423 12 l 423 12 q 368 12 331 -15 q 293 -42 273 -93 q 253 -144 253 -214 l 253 -214 q 253 -284 270 -338 q 286 -393 317 -434 q 347 -476 388 -504 l 388 -504 l 406 -522 q 439 -545 478 -555 q 517 -566 557 -566 z"},"ഞ":{"ha":1204,"x_min":39,"x_max":1167,"o":"m 301 -566 l 301 -566 q 370 -566 412 -540 q 454 -515 486 -465 l 486 -465 l 501 -420 l 513 -260 l 513 0 l 432 0 l 432 -320 q 432 -376 424 -408 q 416 -441 397 -462 l 397 -462 q 381 -479 359 -488 q 337 -497 302 -497 l 302 -497 q 245 -497 204 -464 q 162 -432 139 -375 q 116 -319 116 -247 l 116 -247 l 116 -224 q 116 -164 127 -127 q 138 -90 158 -73 q 177 -56 203 -56 l 203 -56 q 223 -56 238 -66 q 252 -77 260 -99 q 268 -121 268 -157 l 268 -157 q 268 -211 249 -235 q 229 -259 194 -259 l 194 -259 q 164 -259 139 -244 q 113 -229 89 -199 l 89 -199 l 69 -254 q 94 -283 132 -305 q 169 -327 211 -327 l 211 -327 q 253 -327 284 -308 q 314 -290 331 -253 q 348 -216 348 -161 l 348 -161 q 348 -104 331 -65 q 313 -26 281 -7 q 249 12 204 12 l 204 12 q 159 12 122 -13 q 84 -38 62 -93 q 39 -149 39 -241 l 39 -241 q 39 -351 74 -423 q 109 -495 168 -530 q 227 -566 301 -566 z m 650 -566 l 650 -566 q 693 -566 728 -556 q 763 -546 795 -523 l 795 -523 l 816 -505 q 875 -464 913 -392 q 950 -320 950 -214 l 950 -214 q 950 -142 930 -91 q 910 -40 872 -14 q 834 12 779 12 l 779 12 q 724 12 686 -15 q 648 -42 629 -93 q 609 -144 609 -214 l 609 -214 q 609 -284 627 -338 q 644 -393 675 -434 q 706 -476 747 -504 l 747 -504 l 764 -521 q 797 -544 836 -555 q 874 -566 919 -566 l 919 -566 q 982 -566 1029 -544 q 1075 -523 1106 -484 q 1136 -445 1152 -393 q 1167 -341 1167 -281 l 1167 -281 q 1167 -213 1151 -159 q 1134 -106 1106 -65 q 1077 -24 1039 8 l 1039 8 l 985 -49 q 1011 -70 1033 -101 q 1055 -132 1069 -175 q 1083 -219 1083 -275 l 1083 -275 q 1083 -338 1064 -389 q 1044 -440 1006 -470 q 968 -500 911 -500 l 911 -500 q 887 -500 867 -496 q 847 -492 828 -482 l 828 -482 l 805 -467 q 772 -449 747 -412 q 721 -375 707 -325 q 692 -275 692 -214 l 692 -214 q 692 -150 705 -115 q 717 -81 737 -68 q 756 -55 779 -55 l 779 -55 q 803 -55 823 -68 q 843 -81 855 -115 q 867 -150 867 -214 l 867 -214 q 867 -274 853 -325 q 838 -376 813 -414 q 788 -452 754 -472 l 754 -472 l 736 -482 q 725 -488 713 -492 q 701 -496 687 -498 q 673 -500 655 -500 l 655 -500 q 617 -500 592 -489 q 567 -479 551 -461 l 551 -461 q 530 -436 522 -401 q 513 -367 513 -310 l 513 -310 l 513 -22 l 437 -22 l 437 -231 l 458 -452 q 477 -486 503 -512 q 528 -538 564 -552 q 599 -566 650 -566 z"},"ട":{"ha":467,"x_min":17,"x_max":444,"o":"m 237 -566 l 237 -566 q 298 -566 347 -553 q 396 -540 444 -518 l 444 -518 l 402 -453 q 364 -474 325 -485 q 286 -497 238 -497 l 238 -497 q 190 -497 163 -483 q 135 -469 123 -447 q 111 -426 111 -404 l 111 -404 q 111 -380 117 -365 q 123 -350 134 -340 l 134 -340 q 150 -325 177 -320 q 203 -316 238 -316 l 238 -316 l 244 -316 q 298 -316 337 -303 q 375 -291 400 -264 l 400 -264 q 418 -245 427 -219 q 436 -193 436 -159 l 436 -159 q 436 -108 412 -69 q 388 -31 342 -9 q 295 12 227 12 l 227 12 q 169 12 115 -1 q 61 -15 17 -39 l 17 -39 l 58 -103 q 84 -88 110 -78 q 136 -68 165 -62 q 193 -57 227 -57 l 227 -57 q 275 -57 303 -71 q 330 -85 342 -107 q 354 -129 354 -154 l 354 -154 q 354 -176 348 -194 q 342 -212 328 -223 l 328 -223 q 313 -235 293 -240 q 272 -245 238 -245 l 238 -245 l 231 -245 q 179 -245 138 -256 q 96 -268 71 -292 l 71 -292 q 51 -310 40 -337 q 29 -365 29 -402 l 29 -402 q 29 -449 53 -486 q 77 -523 124 -544 q 170 -566 237 -566 z"},"ഠ":{"ha":552,"x_min":37,"x_max":515,"o":"m 278 -566 l 278 -566 q 352 -566 405 -532 q 458 -498 487 -433 q 515 -369 515 -277 l 515 -277 q 515 -186 487 -121 q 458 -56 404 -22 q 350 12 274 12 l 274 12 q 193 12 141 -26 q 88 -65 63 -131 q 37 -197 37 -279 l 37 -279 q 37 -370 66 -434 q 94 -498 148 -532 q 202 -566 278 -566 z m 275 -57 l 275 -57 q 327 -57 362 -84 q 396 -112 414 -161 q 431 -211 431 -279 l 431 -279 q 431 -346 413 -395 q 395 -444 361 -470 q 327 -497 277 -497 l 277 -497 q 204 -497 163 -440 q 121 -384 121 -279 l 121 -279 q 121 -171 162 -114 q 202 -57 275 -57 z"},"ഡ":{"ha":1015,"x_min":37,"x_max":978,"o":"m 497 12 l 497 12 q 459 12 430 1 q 401 -11 380 -34 l 380 -34 q 365 -50 354 -71 q 343 -92 338 -125 q 332 -159 332 -211 l 332 -211 l 332 -307 q 332 -369 328 -406 q 323 -443 307 -466 l 307 -466 q 297 -480 281 -488 q 265 -497 235 -497 l 235 -497 q 201 -497 175 -473 q 149 -449 135 -404 q 121 -359 121 -297 l 121 -297 q 121 -236 134 -188 q 147 -140 170 -105 q 192 -70 218 -43 l 218 -43 l 158 12 q 123 -25 96 -69 q 68 -114 53 -171 q 37 -228 37 -301 l 37 -301 q 37 -384 61 -443 q 84 -502 130 -534 q 176 -566 239 -566 l 239 -566 q 282 -566 313 -553 q 343 -541 364 -519 l 364 -519 q 384 -498 395 -473 q 405 -448 409 -417 q 413 -386 413 -344 l 413 -344 l 413 -219 q 413 -168 419 -136 q 424 -104 440 -84 l 440 -84 q 450 -72 466 -64 q 482 -57 505 -57 l 505 -57 q 527 -57 544 -65 q 561 -74 572 -90 l 572 -90 q 585 -110 590 -141 q 595 -172 595 -230 l 595 -230 l 595 -554 l 677 -554 l 677 -233 q 677 -176 684 -142 q 690 -109 705 -91 l 705 -91 q 718 -74 735 -65 q 752 -57 774 -57 l 774 -57 q 810 -57 837 -83 q 864 -109 879 -154 q 894 -199 894 -256 l 894 -256 q 894 -318 881 -365 q 867 -412 845 -447 q 823 -482 797 -507 l 797 -507 l 858 -562 q 891 -527 919 -484 q 946 -441 962 -385 q 978 -329 978 -253 l 978 -253 q 978 -177 955 -117 q 931 -57 886 -22 q 840 12 775 12 l 775 12 q 724 12 691 -10 q 658 -32 631 -77 l 631 -77 l 640 -76 q 618 -34 584 -11 q 550 12 497 12 z"},"ഢ":{"ha":1109,"x_min":37,"x_max":1069,"o":"m 497 12 l 497 12 q 459 12 430 1 q 401 -11 380 -34 l 380 -34 q 365 -50 354 -71 q 343 -92 338 -125 q 332 -159 332 -211 l 332 -211 l 332 -308 q 332 -369 328 -406 q 323 -443 307 -466 l 307 -466 q 297 -480 281 -488 q 265 -497 235 -497 l 235 -497 q 201 -497 175 -473 q 149 -449 135 -404 q 121 -360 121 -298 l 121 -298 q 121 -236 134 -188 q 147 -140 170 -105 q 192 -70 218 -43 l 218 -43 l 158 12 q 123 -25 96 -69 q 68 -114 53 -171 q 37 -228 37 -301 l 37 -301 q 37 -384 61 -443 q 84 -502 130 -534 q 176 -566 239 -566 l 239 -566 q 282 -566 313 -553 q 343 -541 364 -519 l 364 -519 q 384 -498 395 -473 q 405 -448 409 -417 q 413 -386 413 -344 l 413 -344 l 413 -218 q 413 -168 419 -136 q 424 -105 440 -84 l 440 -84 q 450 -72 466 -64 q 482 -57 505 -57 l 505 -57 q 527 -57 544 -65 q 561 -74 572 -90 l 572 -90 q 585 -111 590 -141 q 595 -172 595 -230 l 595 -230 l 595 -554 l 677 -554 l 677 -261 l 640 -76 q 618 -34 584 -11 q 550 12 497 12 z m 906 -566 l 906 -566 q 950 -566 987 -541 q 1024 -516 1047 -461 q 1069 -406 1069 -313 l 1069 -313 q 1069 -205 1035 -132 q 1000 -59 941 -23 q 881 12 807 12 l 807 12 q 740 12 700 -12 q 659 -37 625 -82 l 625 -82 l 612 -294 l 612 -527 l 677 -527 l 677 -235 q 677 -178 685 -145 q 692 -113 711 -92 l 711 -92 q 727 -75 750 -66 q 772 -57 806 -57 l 806 -57 q 863 -57 905 -89 q 947 -122 970 -178 q 993 -235 993 -307 l 993 -307 l 993 -331 q 993 -392 982 -429 q 970 -466 951 -482 q 931 -498 905 -498 l 905 -498 q 886 -498 872 -487 q 857 -477 849 -455 q 840 -433 840 -397 l 840 -397 q 840 -343 860 -319 q 880 -295 915 -295 l 915 -295 q 946 -295 971 -310 q 995 -326 1020 -355 l 1020 -355 l 1039 -300 q 1014 -271 978 -249 q 941 -227 898 -227 l 898 -227 q 856 -227 825 -245 q 794 -264 778 -301 q 761 -338 761 -394 l 761 -394 q 761 -450 778 -488 q 795 -527 828 -546 q 860 -566 906 -566 z"},"ണ":{"ha":1131,"x_min":39,"x_max":1094,"o":"m 301 -566 l 301 -566 q 370 -566 411 -541 q 452 -516 484 -472 l 484 -472 l 463 -472 q 491 -520 527 -543 q 563 -566 613 -566 l 613 -566 q 668 -566 702 -543 q 736 -520 757 -478 l 757 -478 l 745 -475 q 775 -525 810 -545 q 844 -566 893 -566 l 893 -566 q 958 -566 1003 -531 q 1048 -497 1071 -437 q 1094 -378 1094 -301 l 1094 -301 q 1094 -228 1079 -172 q 1064 -116 1037 -72 q 1009 -29 973 8 l 973 8 l 914 -47 q 940 -73 962 -108 q 984 -143 998 -190 q 1011 -237 1011 -298 l 1011 -298 q 1011 -356 996 -400 q 981 -445 954 -471 q 927 -497 892 -497 l 892 -497 q 869 -497 851 -489 q 833 -481 821 -464 l 821 -464 q 806 -445 800 -412 q 793 -379 793 -320 l 793 -320 l 793 0 l 711 0 l 711 -326 q 711 -384 706 -414 q 701 -444 687 -464 l 687 -464 q 676 -480 659 -488 q 641 -497 612 -497 l 612 -497 q 585 -497 569 -487 q 552 -478 540 -463 l 540 -463 q 523 -440 518 -408 q 513 -377 513 -322 l 513 -322 l 513 0 l 432 0 l 432 -318 q 432 -375 424 -408 q 416 -441 397 -462 l 397 -462 q 381 -479 358 -488 q 335 -497 302 -497 l 302 -497 q 245 -497 204 -465 q 162 -433 139 -376 q 116 -320 116 -247 l 116 -247 l 116 -224 q 116 -164 127 -127 q 138 -90 158 -73 q 177 -56 203 -56 l 203 -56 q 223 -56 238 -66 q 252 -77 260 -99 q 268 -121 268 -157 l 268 -157 q 268 -211 249 -235 q 229 -259 194 -259 l 194 -259 q 164 -259 139 -244 q 113 -229 89 -199 l 89 -199 l 69 -254 q 94 -283 132 -305 q 169 -327 211 -327 l 211 -327 q 253 -327 284 -308 q 314 -290 331 -253 q 348 -216 348 -161 l 348 -161 q 348 -104 331 -65 q 313 -26 281 -7 q 249 12 204 12 l 204 12 q 159 12 122 -13 q 84 -38 62 -93 q 39 -149 39 -241 l 39 -241 q 39 -351 74 -423 q 109 -495 168 -530 q 227 -566 301 -566 z"},"ത":{"ha":848,"x_min":37,"x_max":811,"o":"m 423 12 l 423 12 q 368 12 331 -15 q 293 -42 273 -93 q 253 -144 253 -214 l 253 -214 q 253 -284 271 -338 q 288 -393 319 -434 q 350 -476 391 -504 l 391 -504 l 408 -521 q 442 -544 481 -555 q 519 -566 563 -566 l 563 -566 q 626 -566 673 -544 q 719 -523 750 -484 q 780 -445 796 -393 q 811 -341 811 -281 l 811 -281 q 811 -213 795 -159 q 778 -106 750 -65 q 721 -24 683 8 l 683 8 l 629 -49 q 655 -70 678 -101 q 700 -132 714 -175 q 727 -219 727 -275 l 727 -275 q 727 -339 708 -389 q 688 -440 650 -470 q 612 -500 555 -500 l 555 -500 q 532 -500 512 -496 q 492 -492 472 -482 l 472 -482 l 450 -467 q 417 -449 391 -412 q 365 -375 351 -325 q 336 -275 336 -214 l 336 -214 q 336 -150 349 -115 q 361 -81 381 -68 q 401 -55 424 -55 l 424 -55 q 448 -55 468 -68 q 487 -81 499 -115 q 511 -150 511 -214 l 511 -214 q 511 -274 496 -325 q 481 -377 455 -415 q 429 -453 394 -473 l 394 -473 l 378 -483 q 360 -492 342 -496 q 324 -500 304 -500 l 304 -500 q 245 -500 204 -472 q 163 -444 142 -394 q 121 -345 121 -279 l 121 -279 q 121 -223 133 -180 q 145 -138 168 -105 q 190 -73 219 -49 l 219 -49 l 165 8 q 130 -20 101 -60 q 72 -101 55 -157 q 37 -213 37 -285 l 37 -285 q 37 -343 53 -394 q 69 -445 102 -484 q 134 -523 182 -544 q 230 -566 295 -566 l 295 -566 q 336 -566 371 -556 q 405 -546 437 -523 l 437 -523 l 459 -504 q 518 -464 556 -391 q 594 -319 594 -214 l 594 -214 q 594 -142 575 -91 q 555 -40 517 -14 q 478 12 423 12 z"},"ഥ":{"ha":750,"x_min":63,"x_max":694,"o":"m 63 -554 l 144 -554 l 144 -67 l 326 -67 l 326 0 l 63 0 l 63 -554 z m 488 -566 l 488 -566 q 539 -566 576 -552 q 612 -538 636 -514 l 636 -514 q 670 -481 682 -433 q 694 -385 694 -317 l 694 -317 l 694 0 l 285 0 l 285 -318 q 285 -364 290 -399 q 295 -435 308 -463 q 320 -492 342 -514 l 342 -514 q 367 -538 403 -552 q 439 -566 488 -566 z m 489 -497 l 489 -497 q 458 -497 436 -487 q 414 -478 400 -462 l 400 -462 q 382 -440 374 -403 q 366 -367 366 -306 l 366 -306 l 366 -67 l 613 -67 l 613 -303 q 613 -365 605 -402 q 596 -440 578 -462 l 578 -462 q 563 -478 542 -487 q 520 -497 489 -497 z"},"ദ":{"ha":539,"x_min":46,"x_max":504,"o":"m 318 -566 l 318 -566 q 377 -566 417 -546 q 457 -526 477 -491 q 497 -456 497 -412 l 497 -412 q 497 -364 475 -330 q 453 -296 401 -275 l 401 -275 l 399 -280 q 447 -267 476 -229 q 504 -191 504 -142 l 504 -142 q 504 -70 462 -29 q 419 11 343 11 l 343 11 q 314 11 291 8 q 267 5 250 1 l 250 1 l 268 -65 q 284 -61 300 -58 q 316 -56 331 -56 l 331 -56 q 377 -56 399 -77 q 421 -99 421 -141 l 421 -141 q 421 -163 415 -181 q 408 -200 394 -213 l 394 -213 q 379 -228 356 -235 q 333 -243 289 -243 l 289 -243 l 269 -243 l 269 -310 l 289 -310 q 330 -310 354 -316 q 377 -323 392 -339 l 392 -339 q 403 -350 409 -366 q 414 -383 414 -405 l 414 -405 q 414 -450 388 -473 q 361 -497 315 -497 l 315 -497 q 256 -497 215 -463 q 173 -430 151 -369 q 129 -308 129 -225 l 129 -225 q 129 -171 135 -114 q 141 -57 152 -10 l 152 -10 l 74 4 q 62 -45 54 -106 q 46 -168 46 -223 l 46 -223 q 46 -329 78 -405 q 110 -482 171 -524 q 232 -566 318 -566 z"},"ധ":{"ha":758,"x_min":37,"x_max":721,"o":"m 516 12 l 516 12 q 479 12 452 -1 q 425 -14 406 -35 q 387 -56 372 -81 l 372 -81 l 385 -79 q 357 -31 323 -9 q 289 12 238 12 l 238 12 q 174 12 129 -22 q 84 -57 61 -117 q 37 -177 37 -253 l 37 -253 q 37 -327 53 -382 q 68 -438 96 -481 q 123 -525 158 -562 l 158 -562 l 218 -507 q 192 -482 170 -447 q 147 -412 134 -365 q 121 -318 121 -256 l 121 -256 q 121 -199 136 -154 q 150 -109 177 -83 q 204 -57 240 -57 l 240 -57 q 264 -57 282 -65 q 299 -74 311 -91 l 311 -91 q 326 -109 333 -142 q 339 -175 339 -234 l 339 -234 l 339 -554 l 420 -554 l 420 -238 q 420 -177 426 -144 q 432 -112 447 -91 l 447 -91 q 460 -75 477 -66 q 493 -57 516 -57 l 516 -57 q 550 -57 578 -82 q 606 -107 622 -152 q 638 -198 638 -258 l 638 -258 q 638 -321 625 -367 q 611 -413 589 -447 q 567 -482 541 -507 l 541 -507 l 602 -562 q 635 -527 662 -484 q 689 -441 705 -385 q 721 -330 721 -256 l 721 -256 q 721 -176 697 -115 q 672 -55 626 -21 q 580 12 516 12 z"},"ന":{"ha":758,"x_min":37,"x_max":721,"o":"m 242 -566 l 242 -566 q 280 -566 307 -553 q 333 -540 353 -519 q 372 -499 386 -473 l 386 -473 l 373 -475 q 401 -524 436 -545 q 470 -566 520 -566 l 520 -566 q 584 -566 629 -531 q 674 -497 698 -437 q 721 -378 721 -301 l 721 -301 q 721 -228 706 -172 q 690 -116 663 -72 q 635 -29 600 8 l 600 8 l 540 -47 q 566 -73 589 -107 q 611 -142 625 -189 q 638 -236 638 -298 l 638 -298 q 638 -356 623 -400 q 608 -445 581 -471 q 554 -497 518 -497 l 518 -497 q 495 -497 478 -488 q 460 -480 448 -463 l 448 -463 q 432 -445 426 -412 q 420 -379 420 -320 l 420 -320 l 420 0 l 338 0 l 338 -316 q 338 -377 332 -410 q 326 -443 311 -463 l 311 -463 q 299 -479 283 -488 q 266 -497 243 -497 l 243 -497 q 208 -497 181 -472 q 153 -447 137 -402 q 121 -357 121 -296 l 121 -296 q 121 -234 135 -187 q 148 -141 170 -107 q 192 -73 217 -47 l 217 -47 l 156 8 q 123 -28 96 -70 q 69 -113 53 -169 q 37 -225 37 -298 l 37 -298 q 37 -379 62 -439 q 86 -499 132 -532 q 178 -566 242 -566 z"},"ഩ":{"ha":852,"x_min":39,"x_max":815,"o":"m 301 -566 l 301 -566 q 370 -566 411 -541 q 452 -516 484 -472 l 484 -472 l 467 -478 q 494 -525 529 -545 q 564 -566 614 -566 l 614 -566 q 678 -566 723 -531 q 768 -497 792 -437 q 815 -378 815 -301 l 815 -301 q 815 -228 800 -172 q 784 -116 757 -72 q 729 -29 694 8 l 694 8 l 634 -47 q 660 -73 682 -107 q 704 -142 718 -189 q 731 -236 731 -298 l 731 -298 q 731 -356 716 -400 q 701 -445 675 -471 q 648 -497 612 -497 l 612 -497 q 588 -497 571 -488 q 554 -480 541 -463 l 541 -463 q 526 -445 520 -412 q 513 -379 513 -319 l 513 -319 l 513 0 l 432 0 l 432 -320 q 432 -376 424 -408 q 416 -441 397 -462 l 397 -462 q 381 -479 359 -488 q 336 -497 302 -497 l 302 -497 q 245 -497 204 -464 q 162 -432 139 -375 q 116 -319 116 -247 l 116 -247 l 116 -224 q 116 -164 127 -127 q 138 -90 158 -73 q 177 -56 203 -56 l 203 -56 q 223 -56 238 -66 q 252 -77 260 -99 q 268 -121 268 -157 l 268 -157 q 268 -211 249 -235 q 229 -259 194 -259 l 194 -259 q 164 -259 139 -244 q 113 -229 89 -199 l 89 -199 l 69 -254 q 94 -283 132 -305 q 169 -327 211 -327 l 211 -327 q 253 -327 284 -308 q 314 -290 331 -253 q 348 -216 348 -161 l 348 -161 q 348 -104 331 -65 q 313 -26 281 -7 q 249 12 204 12 l 204 12 q 159 12 122 -13 q 84 -38 62 -93 q 39 -149 39 -241 l 39 -241 q 39 -351 74 -423 q 109 -495 168 -530 q 227 -566 301 -566 z"},"പ":{"ha":746,"x_min":31,"x_max":684,"o":"m 197 -346 l 197 -346 q 254 -346 291 -321 q 327 -297 345 -258 q 363 -220 363 -177 l 363 -177 q 363 -134 350 -102 q 337 -71 323 -57 l 323 -57 l 307 -67 l 602 -67 l 602 -554 l 684 -554 l 684 0 l 275 0 l 244 -52 q 260 -73 272 -100 q 283 -127 283 -166 l 283 -166 q 283 -218 261 -248 q 239 -279 197 -279 l 197 -279 q 171 -279 151 -265 q 131 -251 121 -227 q 110 -203 110 -171 l 110 -171 q 110 -131 124 -100 q 138 -70 162 -41 l 162 -41 l 109 7 q 77 -27 54 -71 q 31 -115 31 -171 l 31 -171 q 31 -225 52 -264 q 73 -303 111 -324 q 148 -346 197 -346 z"},"ഫ":{"ha":941,"x_min":31,"x_max":884,"o":"m 197 -346 l 197 -346 q 254 -346 291 -321 q 327 -297 345 -258 q 363 -220 363 -177 l 363 -177 q 363 -134 350 -102 q 337 -71 323 -57 l 323 -57 l 307 -67 l 518 -67 l 518 0 l 275 0 l 244 -52 q 260 -73 272 -100 q 283 -127 283 -166 l 283 -166 q 283 -218 261 -248 q 239 -279 197 -279 l 197 -279 q 171 -279 151 -265 q 131 -251 121 -227 q 110 -203 110 -171 l 110 -171 q 110 -131 124 -100 q 138 -70 162 -41 l 162 -41 l 109 7 q 77 -27 54 -71 q 31 -115 31 -171 l 31 -171 q 31 -225 52 -264 q 73 -303 111 -324 q 148 -346 197 -346 z m 679 -566 l 679 -566 q 730 -566 766 -552 q 802 -538 827 -514 l 827 -514 q 860 -481 872 -433 q 884 -385 884 -317 l 884 -317 l 884 0 l 475 0 l 475 -318 q 475 -364 480 -399 q 485 -435 498 -463 q 510 -492 532 -514 l 532 -514 q 557 -538 593 -552 q 629 -566 679 -566 z m 679 -497 l 679 -497 q 648 -497 627 -487 q 605 -478 590 -462 l 590 -462 q 572 -440 564 -403 q 556 -367 556 -306 l 556 -306 l 556 -67 l 803 -67 l 803 -303 q 803 -365 795 -402 q 787 -440 768 -462 l 768 -462 q 754 -478 732 -487 q 710 -497 679 -497 z"},"ബ":{"ha":1087,"x_min":39,"x_max":1024,"o":"m 301 -566 l 301 -566 q 370 -566 411 -541 q 452 -516 484 -472 l 484 -472 l 501 -420 l 513 -265 l 513 0 l 432 0 l 432 -320 q 432 -376 424 -408 q 416 -441 397 -462 l 397 -462 q 381 -479 359 -488 q 336 -497 302 -497 l 302 -497 q 245 -497 204 -464 q 162 -432 139 -375 q 116 -319 116 -247 l 116 -247 l 116 -224 q 116 -164 127 -127 q 138 -90 158 -73 q 177 -56 203 -56 l 203 -56 q 223 -56 238 -66 q 252 -77 260 -99 q 268 -121 268 -157 l 268 -157 q 268 -211 249 -235 q 229 -259 194 -259 l 194 -259 q 164 -259 139 -244 q 113 -229 89 -199 l 89 -199 l 69 -254 q 94 -283 132 -305 q 169 -327 211 -327 l 211 -327 q 253 -327 284 -308 q 314 -290 331 -253 q 348 -216 348 -161 l 348 -161 q 348 -104 331 -65 q 313 -26 281 -7 q 249 12 204 12 l 204 12 q 159 12 122 -13 q 84 -38 62 -93 q 39 -149 39 -241 l 39 -241 q 39 -351 74 -423 q 109 -495 168 -530 q 227 -566 301 -566 z m 943 -554 l 1024 -554 l 1024 0 l 677 0 l 642 -47 q 665 -77 685 -111 q 705 -145 718 -190 q 731 -235 731 -298 l 731 -298 q 731 -356 716 -400 q 701 -445 675 -471 q 648 -497 612 -497 l 612 -497 q 588 -497 571 -488 q 554 -480 541 -463 l 541 -463 q 526 -445 520 -412 q 513 -379 513 -319 l 513 -319 l 513 -7 l 439 -7 l 439 -253 l 472 -422 l 467 -478 q 494 -525 529 -545 q 564 -566 614 -566 l 614 -566 q 678 -566 723 -531 q 768 -497 792 -437 q 815 -378 815 -301 l 815 -301 q 815 -243 805 -198 q 795 -153 778 -117 q 760 -82 737 -51 l 737 -51 l 731 -67 l 943 -67 l 943 -554 z"},"ഭ":{"ha":550,"x_min":46,"x_max":521,"o":"m 338 -566 l 338 -566 q 391 -566 433 -550 q 474 -534 497 -502 q 520 -471 520 -425 l 520 -425 q 520 -396 512 -375 q 504 -355 489 -342 l 489 -342 q 473 -327 450 -320 q 426 -313 387 -312 l 387 -312 l 377 -312 q 355 -312 341 -309 q 326 -307 317 -301 l 317 -301 q 310 -297 306 -289 q 302 -281 302 -271 l 302 -271 q 302 -247 321 -237 q 339 -228 377 -228 l 377 -228 l 382 -228 q 419 -228 445 -219 q 471 -211 488 -196 l 488 -196 q 504 -182 513 -161 q 521 -141 521 -114 l 521 -114 q 521 -78 505 -49 q 488 -21 453 -4 q 417 12 358 12 l 358 12 q 336 12 311 10 q 286 7 261 2 q 236 -4 215 -13 l 215 -13 l 244 -80 q 274 -68 303 -63 q 331 -58 358 -58 l 358 -58 q 407 -58 425 -73 q 443 -88 443 -112 l 443 -112 q 443 -135 426 -147 q 409 -160 371 -160 l 371 -160 l 365 -160 q 323 -161 296 -169 q 269 -178 253 -196 l 253 -196 q 240 -210 233 -229 q 225 -248 225 -269 l 225 -269 q 225 -295 235 -316 q 244 -338 263 -352 l 263 -352 q 281 -364 307 -371 q 332 -379 373 -380 l 373 -380 l 386 -380 q 415 -380 429 -391 q 442 -402 442 -426 l 442 -426 q 442 -463 413 -480 q 383 -497 336 -497 l 336 -497 q 266 -497 220 -463 q 174 -430 152 -369 q 129 -308 129 -225 l 129 -225 q 129 -171 135 -114 q 141 -57 152 -10 l 152 -10 l 74 4 q 62 -45 54 -106 q 46 -168 46 -223 l 46 -223 q 46 -328 79 -405 q 111 -482 176 -524 q 240 -566 338 -566 z"},"മ":{"ha":610,"x_min":54,"x_max":556,"o":"m 299 -566 l 299 -566 q 364 -566 412 -548 q 459 -531 490 -498 l 490 -498 q 513 -473 528 -442 q 542 -411 549 -370 q 556 -329 556 -274 l 556 -274 l 556 0 l 54 0 l 54 -277 q 54 -330 61 -370 q 68 -411 83 -442 q 97 -474 118 -497 l 118 -497 q 150 -531 193 -548 q 236 -566 299 -566 z m 255 -498 l 255 -498 q 225 -498 201 -478 q 176 -458 161 -423 l 161 -423 q 148 -395 142 -355 q 135 -316 135 -257 l 135 -257 l 135 -62 l 136 -64 q 189 -115 229 -172 q 269 -230 292 -289 q 314 -349 314 -406 l 314 -406 q 314 -434 308 -454 q 302 -475 290 -486 q 277 -498 255 -498 z m 396 -396 l 396 -396 q 396 -333 375 -274 q 353 -216 314 -159 q 274 -103 220 -45 l 220 -45 l 211 -62 q 233 -64 262 -65 q 291 -67 311 -67 l 311 -67 l 475 -67 l 475 -270 q 475 -338 463 -384 q 451 -430 425 -458 q 399 -486 356 -498 l 356 -498 l 356 -504 q 375 -483 386 -456 q 396 -430 396 -396 z"},"യ":{"ha":870,"x_min":37,"x_max":831,"o":"m 558 12 l 558 12 q 520 12 484 3 q 447 -6 415 -26 l 415 -26 q 409 -31 402 -36 q 395 -42 389 -47 l 389 -47 q 347 -83 320 -130 q 292 -177 279 -232 q 266 -287 266 -347 l 266 -347 q 266 -383 275 -419 q 284 -455 300 -485 l 300 -485 l 311 -500 q 326 -521 346 -536 q 366 -551 391 -558 q 415 -566 444 -566 l 444 -566 q 526 -566 572 -507 q 618 -449 618 -342 l 618 -342 q 618 -245 585 -169 q 552 -94 491 -45 l 491 -45 q 486 -41 479 -35 q 471 -30 465 -26 l 465 -26 q 433 -6 396 3 q 358 12 316 12 l 316 12 q 249 12 197 -13 q 145 -39 109 -84 q 73 -130 55 -192 q 37 -255 37 -330 l 37 -330 q 37 -404 60 -456 q 82 -509 124 -537 q 166 -566 223 -566 l 223 -566 q 270 -566 303 -548 q 336 -531 368 -496 l 368 -496 l 310 -448 q 294 -473 274 -485 q 254 -498 228 -498 l 228 -498 q 197 -498 172 -480 q 147 -462 134 -424 q 120 -387 120 -329 l 120 -329 q 120 -248 144 -186 q 167 -124 212 -89 q 256 -54 319 -54 l 319 -54 q 344 -54 364 -57 q 383 -60 400 -67 l 400 -67 q 408 -71 416 -74 q 423 -78 430 -82 l 430 -82 q 464 -106 488 -146 q 511 -187 524 -237 q 536 -287 536 -340 l 536 -340 q 536 -400 523 -435 q 509 -470 488 -484 q 467 -499 443 -499 l 443 -499 q 414 -499 393 -481 q 371 -464 360 -428 q 349 -393 349 -342 l 349 -342 q 349 -297 360 -246 q 370 -196 394 -153 q 417 -110 451 -84 l 451 -84 q 458 -80 464 -77 q 470 -74 477 -71 l 477 -71 q 492 -63 513 -58 q 533 -54 556 -54 l 556 -54 q 623 -54 666 -85 q 708 -117 728 -173 q 748 -229 748 -302 l 748 -302 q 748 -362 732 -420 q 715 -478 683 -527 l 683 -527 l 756 -565 q 792 -511 812 -443 q 831 -376 831 -310 l 831 -310 q 831 -238 815 -178 q 798 -119 765 -76 q 731 -34 680 -11 q 628 12 558 12 z"},"ര":{"ha":618,"x_min":37,"x_max":581,"o":"m 304 -566 l 304 -566 q 373 -566 425 -542 q 477 -519 512 -476 q 546 -433 564 -373 q 581 -314 581 -242 l 581 -242 q 581 -149 559 -92 q 536 -36 497 -12 q 457 12 406 12 l 406 12 q 351 12 315 -16 q 279 -44 262 -92 q 244 -140 244 -198 l 244 -198 q 244 -296 285 -349 q 326 -403 398 -403 l 398 -403 q 439 -403 469 -383 q 498 -364 519 -329 q 539 -295 553 -248 l 553 -248 l 527 -237 q 520 -258 506 -281 q 491 -304 469 -320 q 446 -336 415 -336 l 415 -336 q 368 -336 346 -299 q 324 -262 324 -198 l 324 -198 q 324 -153 333 -121 q 341 -89 360 -71 q 378 -54 407 -54 l 407 -54 q 437 -54 459 -73 q 480 -93 492 -136 q 503 -179 503 -248 l 503 -248 q 503 -250 502 -270 q 500 -290 498 -310 l 498 -310 q 497 -315 497 -323 q 497 -331 495 -335 l 495 -335 q 489 -378 466 -414 q 442 -451 403 -474 q 363 -497 307 -497 l 307 -497 q 249 -497 208 -470 q 166 -444 144 -395 q 121 -347 121 -279 l 121 -279 q 121 -224 133 -181 q 145 -138 168 -105 q 190 -73 219 -49 l 219 -49 l 165 8 q 130 -20 101 -61 q 72 -103 55 -158 q 37 -214 37 -285 l 37 -285 q 37 -341 53 -392 q 69 -443 102 -482 q 135 -521 186 -543 q 236 -566 304 -566 z"},"റ":{"ha":565,"x_min":37,"x_max":529,"o":"m 286 -566 l 286 -566 q 348 -566 394 -544 q 439 -523 470 -485 q 500 -448 515 -397 q 529 -346 529 -287 l 529 -287 q 529 -215 513 -160 q 496 -106 467 -65 q 438 -24 400 8 l 400 8 l 347 -49 q 373 -70 395 -101 q 417 -133 431 -177 q 444 -221 444 -278 l 444 -278 q 444 -348 425 -396 q 406 -445 370 -471 q 334 -497 284 -497 l 284 -497 q 234 -497 198 -470 q 161 -443 141 -394 q 121 -346 121 -279 l 121 -279 q 121 -226 133 -183 q 145 -140 168 -106 q 190 -73 219 -49 l 219 -49 l 165 8 q 130 -19 101 -60 q 72 -102 55 -158 q 37 -214 37 -285 l 37 -285 q 37 -345 53 -396 q 68 -448 100 -485 q 131 -523 178 -544 q 224 -566 286 -566 z"},"ല":{"ha":718,"x_min":57,"x_max":656,"o":"m 575 -554 l 656 -554 l 656 0 l 57 0 l 57 -326 q 57 -398 71 -438 q 84 -479 108 -507 l 108 -507 q 134 -536 171 -551 q 208 -566 257 -566 l 257 -566 q 306 -566 343 -552 q 380 -538 404 -511 l 404 -511 q 431 -481 443 -438 q 454 -396 454 -335 l 454 -335 l 454 -223 l 138 -223 l 138 -67 l 575 -67 l 575 -554 z m 256 -499 l 256 -499 q 194 -499 166 -458 q 138 -417 138 -327 l 138 -327 l 138 -291 l 373 -291 l 373 -328 q 373 -419 345 -459 q 317 -499 256 -499 z"},"ള":{"ha":607,"x_min":36,"x_max":572,"o":"m 334 -499 l 334 -499 q 290 -499 254 -489 q 217 -480 189 -462 q 161 -445 142 -422 q 122 -399 111 -371 l 111 -371 q 110 -366 111 -360 q 112 -354 112 -348 l 112 -348 q 110 -340 109 -329 q 107 -318 107 -308 l 107 -308 q 107 -245 124 -213 q 141 -181 178 -181 l 178 -181 q 210 -181 224 -206 q 238 -231 238 -267 l 238 -267 q 238 -293 232 -311 q 226 -330 212 -340 q 198 -351 175 -351 l 175 -351 q 142 -351 120 -331 q 98 -312 81 -290 l 81 -290 l 56 -337 q 72 -357 92 -375 q 112 -393 137 -404 q 162 -416 191 -416 l 191 -416 q 235 -416 263 -396 q 291 -376 304 -342 q 317 -309 317 -268 l 317 -268 q 317 -224 302 -189 q 287 -155 257 -135 q 226 -116 178 -116 l 178 -116 q 136 -116 104 -137 q 71 -158 54 -201 q 36 -244 36 -308 l 36 -308 q 36 -364 55 -411 q 74 -459 113 -493 q 151 -528 208 -547 q 264 -566 338 -566 l 338 -566 q 413 -566 464 -547 q 514 -528 540 -491 q 565 -455 565 -402 l 565 -402 q 565 -367 551 -339 q 537 -312 509 -293 q 480 -275 437 -264 l 437 -264 l 369 -287 l 369 -310 l 376 -310 q 400 -310 421 -315 q 442 -321 458 -335 l 458 -335 q 471 -347 477 -362 q 482 -377 482 -397 l 482 -397 q 482 -428 467 -450 q 452 -473 419 -486 q 386 -499 334 -499 z m 572 -150 l 572 -150 q 572 -113 560 -84 q 547 -56 524 -37 l 524 -37 q 509 -25 490 -16 q 471 -8 444 -4 q 417 0 376 0 l 376 0 l 247 0 q 207 0 189 3 q 170 5 156 12 l 156 12 q 140 19 133 33 q 125 46 125 63 l 125 63 q 125 80 131 93 q 137 105 148 113 l 148 113 q 162 123 186 128 q 209 132 248 132 l 248 132 l 549 132 l 549 201 l 244 201 q 195 201 159 194 q 123 186 98 171 l 98 171 q 72 154 58 129 q 43 103 43 69 l 43 69 q 43 34 56 7 q 69 -21 95 -38 l 95 -38 q 109 -48 127 -54 q 145 -60 171 -63 q 196 -67 231 -67 l 231 -67 l 367 -67 q 404 -67 427 -72 q 450 -77 465 -89 l 465 -89 q 477 -100 483 -115 q 489 -131 489 -154 l 489 -154 q 489 -176 482 -192 q 475 -209 460 -220 l 460 -220 q 446 -231 427 -237 q 407 -243 376 -243 l 376 -243 l 369 -243 l 369 -294 l 441 -288 q 503 -278 538 -241 q 572 -204 572 -150 z"},"ഴ":{"ha":555,"x_min":35,"x_max":520,"o":"m 220 -415 l 220 -415 q 220 -481 259 -523 q 298 -566 369 -566 l 369 -566 q 423 -566 457 -541 q 490 -517 505 -478 q 520 -440 520 -398 l 520 -398 q 520 -327 494 -271 q 467 -216 417 -183 q 367 -151 298 -151 l 298 -151 l 282 -151 q 199 -151 144 -183 q 89 -215 62 -270 q 35 -326 35 -395 l 35 -395 q 35 -439 47 -480 q 58 -522 85 -565 l 85 -565 l 150 -530 q 131 -494 124 -462 q 116 -431 116 -397 l 116 -397 q 116 -337 137 -297 q 158 -257 196 -237 q 233 -218 283 -218 l 283 -218 l 297 -218 q 343 -218 375 -240 q 406 -263 423 -303 q 439 -344 439 -398 l 439 -398 q 439 -439 424 -469 q 408 -500 370 -500 l 370 -500 q 346 -500 330 -488 q 314 -476 307 -456 q 299 -436 299 -411 l 299 -411 q 299 -368 310 -332 q 321 -297 336 -263 q 351 -230 363 -196 q 374 -162 374 -122 l 374 -122 q 374 -93 362 -61 q 350 -30 320 -9 q 289 12 233 12 l 233 12 q 199 12 164 6 q 129 -1 97 -16 l 97 -16 l 125 -81 q 149 -69 174 -62 q 199 -56 228 -56 l 228 -56 q 269 -56 283 -77 q 296 -99 296 -127 l 296 -127 q 296 -163 285 -196 q 273 -230 258 -263 q 242 -297 231 -334 q 220 -371 220 -415 z"},"വ":{"ha":800,"x_min":37,"x_max":738,"o":"m 286 -566 l 286 -566 q 348 -566 394 -544 q 439 -523 470 -485 q 500 -448 515 -397 q 529 -346 529 -287 l 529 -287 q 529 -234 518 -191 q 507 -148 490 -114 q 472 -80 449 -52 l 449 -52 l 439 -67 l 657 -67 l 657 -554 l 738 -554 l 738 0 l 392 0 l 355 -56 q 378 -76 399 -107 q 419 -138 432 -180 q 444 -223 444 -278 l 444 -278 q 444 -348 425 -396 q 406 -445 370 -471 q 334 -497 284 -497 l 284 -497 q 234 -497 198 -470 q 161 -443 141 -394 q 121 -346 121 -279 l 121 -279 q 121 -226 133 -183 q 145 -140 168 -106 q 190 -73 219 -49 l 219 -49 l 165 8 q 130 -19 101 -60 q 72 -102 55 -158 q 37 -214 37 -285 l 37 -285 q 37 -345 53 -396 q 68 -448 100 -485 q 131 -523 178 -544 q 224 -566 286 -566 z"},"ശ":{"ha":867,"x_min":37,"x_max":830,"o":"m 564 -566 l 564 -566 q 629 -566 679 -543 q 728 -520 762 -477 q 796 -434 813 -374 q 830 -315 830 -242 l 830 -242 q 830 -149 808 -92 q 785 -36 745 -12 q 705 12 655 12 l 655 12 q 599 12 564 -16 q 528 -44 511 -92 q 493 -140 493 -198 l 493 -198 q 493 -296 534 -349 q 575 -403 646 -403 l 646 -403 q 688 -403 717 -383 q 746 -364 767 -329 q 788 -295 802 -248 l 802 -248 l 775 -237 q 769 -258 755 -281 q 740 -304 717 -320 q 694 -336 664 -336 l 664 -336 q 617 -336 595 -299 q 573 -262 573 -198 l 573 -198 q 573 -153 582 -121 q 590 -89 609 -71 q 627 -54 655 -54 l 655 -54 q 686 -54 708 -73 q 729 -93 741 -136 q 752 -179 752 -248 l 752 -248 q 752 -250 751 -270 q 749 -290 746 -310 l 746 -310 q 745 -315 746 -323 q 747 -331 745 -335 l 745 -335 q 737 -381 713 -417 q 689 -454 652 -475 q 615 -497 565 -497 l 565 -497 q 533 -497 509 -489 q 484 -482 467 -467 l 467 -467 q 434 -439 425 -389 q 415 -339 415 -257 l 415 -257 l 415 -210 q 415 -148 405 -107 q 394 -66 366 -37 l 366 -37 q 344 -13 313 0 q 281 12 236 12 l 236 12 q 174 12 129 -19 q 84 -50 61 -109 q 37 -169 37 -253 l 37 -253 q 37 -327 53 -383 q 68 -440 96 -484 q 123 -529 158 -566 l 158 -566 l 218 -511 q 192 -486 170 -450 q 147 -414 134 -366 q 121 -318 121 -257 l 121 -257 q 121 -195 135 -150 q 149 -105 175 -81 q 201 -57 235 -57 l 235 -57 q 262 -57 279 -65 q 296 -74 306 -88 l 306 -88 q 322 -111 327 -149 q 331 -187 331 -245 l 331 -245 l 331 -296 q 331 -368 345 -419 q 359 -471 398 -509 l 398 -509 q 425 -535 468 -550 q 510 -566 564 -566 z"},"ഷ":{"ha":963,"x_min":31,"x_max":901,"o":"m 197 -346 l 197 -346 q 254 -346 291 -321 q 327 -297 345 -258 q 363 -220 363 -177 l 363 -177 q 363 -134 350 -102 q 337 -71 323 -57 l 323 -57 l 306 -67 l 571 -67 l 584 0 l 275 0 l 245 -52 q 261 -73 272 -100 q 283 -127 283 -165 l 283 -165 q 283 -218 261 -248 q 239 -279 197 -279 l 197 -279 q 171 -279 151 -265 q 131 -251 121 -227 q 110 -203 110 -171 l 110 -171 q 110 -131 124 -100 q 138 -70 162 -41 l 162 -41 l 109 7 q 77 -27 54 -71 q 31 -115 31 -172 l 31 -172 q 31 -225 52 -264 q 73 -303 111 -324 q 148 -346 197 -346 z m 901 0 l 549 0 l 549 -396 q 549 -426 545 -448 q 541 -471 532 -483 l 532 -483 q 527 -490 519 -494 q 511 -499 499 -499 l 499 -499 q 473 -499 459 -476 q 444 -453 444 -413 l 444 -413 q 444 -382 453 -357 q 462 -332 485 -317 q 508 -303 548 -303 l 548 -303 l 586 -303 q 629 -303 664 -321 q 699 -340 727 -374 q 755 -408 779 -454 q 803 -500 824 -554 l 824 -554 l 901 -554 l 901 0 z m 502 -566 l 502 -566 q 533 -566 555 -557 q 577 -549 592 -532 l 592 -532 q 612 -512 621 -481 q 629 -451 629 -400 l 629 -400 l 629 -67 l 820 -67 l 820 -309 q 820 -335 821 -360 q 822 -386 824 -406 q 826 -426 827 -437 l 827 -437 l 828 -434 q 804 -365 766 -321 q 728 -277 683 -256 q 638 -236 591 -236 l 591 -236 l 557 -236 q 490 -236 448 -259 q 405 -283 385 -323 q 365 -363 365 -413 l 365 -413 q 365 -451 380 -486 q 395 -522 426 -544 q 456 -566 502 -566 z"},"സ":{"ha":1015,"x_min":37,"x_max":978,"o":"m 521 -566 l 521 -566 q 556 -566 585 -554 q 614 -543 635 -521 l 635 -521 q 651 -504 662 -483 q 672 -462 678 -429 q 683 -396 683 -343 l 683 -343 l 683 -247 q 683 -185 688 -148 q 693 -111 708 -88 l 708 -88 q 719 -74 735 -65 q 751 -57 780 -57 l 780 -57 q 815 -57 841 -81 q 866 -105 880 -150 q 894 -196 894 -257 l 894 -257 q 894 -319 881 -366 q 868 -414 846 -450 q 823 -486 797 -511 l 797 -511 l 857 -566 q 892 -529 920 -484 q 947 -440 963 -383 q 978 -327 978 -253 l 978 -253 q 978 -169 954 -109 q 929 -50 885 -19 q 840 12 779 12 l 779 12 q 734 12 703 0 q 671 -13 649 -37 l 649 -37 q 631 -57 621 -81 q 610 -106 606 -137 q 602 -169 602 -210 l 602 -210 l 602 -335 q 602 -386 597 -418 q 591 -450 575 -470 l 575 -470 q 565 -483 549 -490 q 533 -497 510 -497 l 510 -497 q 488 -497 471 -488 q 454 -480 443 -464 l 443 -464 q 430 -444 425 -413 q 420 -382 420 -324 l 420 -324 l 420 0 l 338 0 l 338 -321 q 338 -379 332 -412 q 326 -445 310 -463 l 310 -463 q 298 -480 281 -488 q 263 -497 241 -497 l 241 -497 q 205 -497 178 -471 q 151 -445 136 -400 q 121 -356 121 -298 l 121 -298 q 121 -236 135 -189 q 148 -142 170 -107 q 192 -73 218 -47 l 218 -47 l 157 8 q 124 -28 97 -71 q 69 -114 53 -170 q 37 -226 37 -301 l 37 -301 q 37 -378 61 -437 q 84 -497 130 -531 q 175 -566 240 -566 l 240 -566 q 291 -566 324 -544 q 357 -523 384 -477 l 384 -477 l 375 -478 q 397 -520 432 -543 q 466 -566 521 -566 z"},"ഹ":{"ha":990,"x_min":31,"x_max":954,"o":"m 197 -346 l 197 -346 q 254 -346 291 -321 q 327 -297 345 -258 q 363 -220 363 -177 l 363 -177 q 363 -134 350 -102 q 337 -71 323 -57 l 323 -57 l 306 -67 l 570 -67 l 584 0 l 275 0 l 245 -52 q 261 -73 272 -100 q 283 -127 283 -165 l 283 -165 q 283 -218 261 -248 q 239 -279 197 -279 l 197 -279 q 171 -279 151 -265 q 131 -251 121 -227 q 110 -203 110 -171 l 110 -171 q 110 -131 124 -100 q 138 -70 162 -41 l 162 -41 l 109 7 q 77 -27 54 -71 q 31 -115 31 -172 l 31 -172 q 31 -225 52 -264 q 73 -303 111 -324 q 148 -346 197 -346 z m 710 -566 l 710 -566 q 773 -566 819 -544 q 864 -523 895 -485 q 925 -448 940 -397 q 954 -346 954 -287 l 954 -287 q 954 -215 938 -160 q 921 -106 892 -65 q 863 -24 825 8 l 825 8 l 771 -49 q 797 -70 820 -101 q 842 -133 856 -176 q 869 -220 869 -278 l 869 -278 q 869 -348 850 -396 q 830 -445 795 -471 q 759 -497 709 -497 l 709 -497 q 659 -497 623 -470 q 586 -443 566 -394 q 546 -346 546 -279 l 546 -279 q 546 -230 557 -189 q 567 -148 588 -115 q 608 -82 635 -56 l 635 -56 l 596 0 l 573 0 l 538 -57 q 517 -84 500 -118 q 482 -153 472 -195 q 462 -237 462 -285 l 462 -285 q 462 -345 478 -396 q 493 -448 525 -485 q 556 -523 603 -544 q 649 -566 710 -566 z"},"ഺ":{"ha":635,"x_min":20,"x_max":619,"o":"m 112 -67 l 619 -67 l 619 0 l 394 0 l 394 202 l 312 202 l 312 0 l 64 0 l 20 -50 l 213 -559 l 289 -535 l 112 -67 z"},"഻":{"ha":0,"x_min":-313,"x_max":-244,"o":"m -313 -585 l -313 -864 l -244 -864 l -244 -585 l -313 -585 z"},"഼":{"ha":0,"x_min":-217,"x_max":17,"o":"m -217 -721 l -217 -721 q -217 -781 -184 -816 q -152 -851 -100 -851 l -100 -851 q -48 -851 -15 -816 q 17 -782 17 -721 l 17 -721 q 17 -661 -15 -626 q -48 -591 -100 -591 l -100 -591 q -153 -591 -185 -626 q -217 -661 -217 -721 z m -150 -722 l -150 -722 q -150 -691 -137 -672 q -125 -653 -100 -653 l -100 -653 q -75 -653 -62 -672 q -49 -691 -49 -722 l -49 -722 q -49 -753 -62 -771 q -75 -789 -100 -789 l -100 -789 q -124 -789 -137 -771 q -150 -753 -150 -722 z"},"ഽ":{"ha":398,"x_min":-64,"x_max":462,"o":"m 315 -792 l 315 -792 q 357 -792 387 -773 q 416 -755 435 -723 q 453 -691 462 -649 l 462 -649 l 381 -633 q 376 -659 368 -680 q 359 -701 346 -713 q 333 -725 313 -725 l 313 -725 q 296 -725 284 -719 q 272 -713 263 -702 l 263 -702 q 251 -687 246 -658 q 241 -630 241 -578 l 241 -578 l 241 28 q 241 97 229 139 q 217 180 191 206 l 191 206 q 171 226 145 235 q 119 244 82 244 l 82 244 q 41 244 12 226 q -18 207 -36 175 q -55 142 -64 101 l -64 101 l 17 85 q 23 111 32 132 q 40 153 53 165 q 66 177 85 177 l 85 177 q 103 177 115 171 q 126 165 135 154 l 135 154 q 147 138 152 111 q 157 83 157 34 l 157 34 l 157 -572 q 157 -648 169 -688 q 180 -728 207 -753 l 207 -753 q 225 -772 252 -782 q 279 -792 315 -792 z"},"ാ":{"ha":428,"x_min":15,"x_max":389,"o":"m 389 -279 l 389 -279 q 389 -216 380 -163 q 370 -110 348 -70 q 326 -31 290 -9 q 254 12 200 12 l 200 12 q 155 12 122 -4 q 89 -20 68 -46 q 46 -73 33 -105 q 20 -138 15 -170 l 15 -170 l 97 -186 q 103 -159 114 -128 q 124 -98 144 -76 q 164 -55 196 -55 l 196 -55 q 236 -55 260 -81 q 284 -108 295 -157 q 306 -207 306 -278 l 306 -278 q 306 -348 295 -397 q 284 -447 261 -473 q 237 -499 200 -499 l 200 -499 q 170 -499 150 -479 q 129 -460 118 -430 q 106 -401 99 -370 l 99 -370 l 18 -386 q 26 -420 40 -451 q 54 -483 76 -509 q 97 -535 130 -550 q 162 -566 207 -566 l 207 -566 q 258 -566 293 -544 q 328 -523 349 -484 q 370 -445 380 -392 q 389 -340 389 -279 z"},"ി":{"ha":206,"x_min":-185,"x_max":144,"o":"m -26 -843 l -26 -843 q 8 -843 37 -833 q 65 -823 86 -804 l 86 -804 q 107 -785 120 -757 q 132 -730 138 -691 q 144 -652 144 -594 l 144 -594 l 144 0 l 63 0 l 63 -555 q 63 -610 61 -648 q 58 -686 52 -711 q 45 -736 33 -750 l 33 -750 q 23 -763 9 -769 q -5 -776 -25 -776 l -25 -776 q -43 -776 -61 -767 q -80 -758 -92 -738 q -104 -718 -104 -684 l -104 -684 q -104 -674 -102 -661 q -101 -649 -99 -639 l -99 -639 l -178 -626 q -181 -637 -183 -652 q -185 -668 -185 -684 l -185 -684 q -185 -736 -162 -771 q -140 -807 -104 -825 q -68 -843 -26 -843 z"},"ീ":{"ha":206,"x_min":-239,"x_max":144,"o":"m -81 -843 l -81 -843 q -35 -843 3 -830 q 41 -817 70 -793 l 70 -793 q 112 -757 128 -702 q 144 -647 144 -560 l 144 -560 l 144 0 l 63 0 l 63 -540 q 63 -586 61 -621 q 58 -656 52 -682 q 46 -708 34 -727 l 34 -727 q 17 -758 -12 -770 q -41 -782 -90 -782 l -90 -782 q -107 -782 -125 -774 q -144 -767 -157 -750 q -170 -734 -170 -706 l -170 -706 q -170 -674 -156 -658 q -142 -643 -116 -643 l -116 -643 q -88 -643 -75 -660 q -62 -678 -62 -705 l -62 -705 q -62 -730 -70 -753 q -79 -776 -97 -790 l -97 -790 l -22 -778 q -13 -768 -6 -748 q 1 -728 1 -702 l 1 -702 q 1 -668 -11 -639 q -23 -611 -49 -594 q -76 -578 -119 -578 l -119 -578 q -151 -578 -178 -592 q -206 -607 -222 -636 q -239 -665 -239 -708 l -239 -708 q -239 -747 -220 -777 q -201 -808 -165 -825 q -130 -843 -81 -843 z"},"ു":{"ha":285,"x_min":-18,"x_max":288,"o":"m 135 227 l 135 227 q 65 227 24 181 q -18 135 -18 53 l -18 53 q -18 -2 2 -40 q 21 -79 56 -99 q 90 -120 134 -120 l 134 -120 q 180 -120 215 -100 q 249 -80 269 -41 q 288 -3 288 53 l 288 53 q 288 108 269 147 q 249 186 215 207 q 181 227 135 227 z m 135 164 l 135 164 q 170 164 191 136 q 212 108 212 53 l 212 53 q 212 -1 192 -29 q 171 -57 134 -57 l 134 -57 q 99 -57 79 -29 q 58 -1 58 54 l 58 54 q 58 109 79 137 q 100 164 135 164 z m 95 -566 l 95 -566 q 146 -566 176 -543 q 206 -521 219 -485 q 231 -449 231 -407 l 231 -407 q 231 -344 216 -257 q 200 -171 177 -84 l 177 -84 l 101 -99 q 122 -185 135 -260 q 148 -335 148 -400 l 148 -400 q 148 -443 134 -470 q 120 -497 80 -497 l 80 -497 q 67 -497 53 -495 q 39 -493 28 -489 l 28 -489 l 13 -555 q 28 -560 48 -563 q 68 -566 95 -566 z"},"ൂ":{"ha":285,"x_min":-18,"x_max":288,"o":"m 135 227 l 135 227 q 64 227 23 181 q -18 135 -18 53 l -18 53 q -18 -2 2 -40 q 21 -79 56 -99 q 90 -120 134 -120 l 134 -120 q 180 -120 215 -100 q 249 -80 269 -41 q 288 -3 288 53 l 288 53 q 288 108 269 147 q 249 186 215 207 q 180 227 135 227 z m 134 -61 l 134 -61 q 95 -61 70 -33 q 44 -5 44 54 l 44 54 q 44 111 69 138 q 94 165 135 165 l 135 165 q 175 165 200 137 q 225 109 225 54 l 225 54 q 225 -4 200 -32 q 174 -61 134 -61 z m 134 97 l 134 97 q 83 97 62 66 q 40 34 40 -12 l 40 -12 q 40 -35 49 -55 q 58 -75 76 -97 l 76 -97 l 114 -68 q 97 -59 88 -45 q 79 -32 79 -16 l 79 -16 q 79 -2 85 9 q 91 19 104 25 q 116 31 135 31 l 135 31 q 152 31 164 26 q 176 20 183 10 q 189 -1 189 -16 l 189 -16 q 189 -33 181 -45 q 173 -58 157 -66 l 157 -66 l 197 -97 q 215 -72 223 -53 q 230 -35 230 -14 l 230 -14 q 230 12 222 38 q 213 63 193 80 q 172 97 134 97 z m 96 -566 l 96 -566 q 147 -566 177 -543 q 206 -521 219 -485 q 231 -449 231 -407 l 231 -407 q 231 -344 216 -257 q 200 -171 177 -84 l 177 -84 l 101 -99 q 122 -185 135 -260 q 148 -335 148 -400 l 148 -400 q 148 -443 134 -470 q 120 -497 80 -497 l 80 -497 q 67 -497 53 -495 q 39 -493 28 -489 l 28 -489 l 13 -555 q 28 -560 48 -563 q 68 -566 96 -566 z"},"ൃ":{"ha":216,"x_min":-128,"x_max":212,"o":"m 30 316 l 30 316 q -16 316 -51 300 q -87 283 -107 250 q -128 217 -128 168 l -128 168 q -128 106 -88 68 q -48 29 22 29 l 22 29 q 57 29 96 43 q 135 56 174 96 l 174 96 l 157 157 q 123 124 92 110 q 60 96 26 96 l 26 96 q -7 96 -28 114 q -50 132 -50 172 l -50 172 q -50 210 -28 230 q -7 249 30 249 l 30 249 q 62 249 85 236 q 108 223 121 196 q 133 168 133 123 l 133 123 q 133 90 127 60 q 121 29 111 -6 q 100 -42 84 -88 l 84 -88 q 68 -136 55 -188 q 41 -240 41 -302 l 41 -302 q 41 -366 59 -430 q 76 -495 103 -554 l 103 -554 l 188 -554 q 165 -505 151 -464 q 136 -423 130 -385 q 123 -347 123 -305 l 123 -305 q 123 -248 134 -203 q 145 -159 162 -107 l 162 -107 q 179 -59 190 -20 q 201 18 207 52 q 212 85 212 122 l 212 122 q 212 193 187 236 q 161 278 120 297 q 79 316 30 316 z"},"ൄ":{"ha":216,"x_min":-228,"x_max":212,"o":"m -18 316 l -18 316 q -84 316 -131 297 q -179 278 -203 241 q -228 204 -228 150 l -228 150 q -228 98 -199 68 q -171 37 -125 37 l -125 37 q -99 37 -79 50 q -60 63 -50 86 l -50 86 l -57 85 q -45 61 -26 49 q -7 37 20 37 l 20 37 q 47 37 64 47 q 81 57 91 73 q 100 89 104 109 q 107 128 107 146 l 107 146 l 107 176 l 46 176 l 46 162 q 46 132 39 116 q 31 100 13 100 l 13 100 q -9 100 -16 117 q -23 133 -23 159 l -23 159 l -23 176 l -83 176 l -83 160 q -83 131 -91 116 q -99 100 -119 100 l -119 100 q -136 100 -146 113 q -157 126 -157 150 l -157 150 q -157 197 -122 223 q -87 249 -19 249 l -19 249 q 51 249 91 217 q 131 185 131 122 l 131 122 q 131 89 126 59 q 120 29 110 -6 q 99 -41 84 -86 l 84 -86 q 68 -134 55 -187 q 41 -240 41 -302 l 41 -302 q 41 -366 59 -430 q 76 -495 103 -554 l 103 -554 l 188 -554 q 165 -505 151 -464 q 136 -423 130 -385 q 123 -347 123 -305 l 123 -305 q 123 -248 134 -203 q 145 -159 162 -107 l 162 -107 q 179 -59 190 -21 q 201 17 207 52 q 212 86 212 124 l 212 124 q 212 191 181 233 q 149 275 97 296 q 44 316 -18 316 z"},"െ":{"ha":599,"x_min":37,"x_max":562,"o":"m 201 12 l 201 12 q 157 12 120 -12 q 82 -37 60 -91 q 37 -145 37 -233 l 37 -233 q 37 -314 58 -375 q 78 -437 115 -479 q 152 -522 203 -544 q 253 -566 312 -566 l 312 -566 q 376 -566 424 -545 q 471 -524 502 -486 q 532 -448 547 -397 q 562 -346 562 -287 l 562 -287 q 562 -215 546 -160 q 529 -106 501 -65 q 472 -24 434 8 l 434 8 l 380 -49 q 406 -70 428 -101 q 450 -133 464 -176 q 478 -220 478 -277 l 478 -277 q 478 -347 458 -396 q 438 -445 401 -471 q 363 -497 310 -497 l 310 -497 q 253 -497 209 -463 q 164 -430 139 -370 q 114 -311 114 -230 l 114 -230 q 114 -167 125 -128 q 136 -90 156 -73 q 175 -56 201 -56 l 201 -56 q 221 -56 236 -66 q 250 -77 258 -99 q 266 -122 266 -157 l 266 -157 q 266 -211 246 -235 q 226 -259 192 -259 l 192 -259 q 162 -259 137 -244 q 111 -229 87 -199 l 87 -199 l 67 -254 q 92 -283 130 -305 q 167 -327 209 -327 l 209 -327 q 251 -327 282 -308 q 312 -290 329 -253 q 346 -216 346 -161 l 346 -161 q 346 -104 329 -65 q 311 -26 279 -7 q 247 12 201 12 z"},"േ":{"ha":503,"x_min":37,"x_max":470,"o":"m 300 12 l 300 12 q 246 12 199 -5 q 151 -23 115 -58 q 78 -94 58 -149 q 37 -205 37 -281 l 37 -281 q 37 -355 59 -409 q 81 -463 119 -497 q 157 -532 206 -549 q 254 -566 307 -566 l 307 -566 q 365 -566 401 -547 q 437 -529 454 -497 q 470 -466 470 -428 l 470 -428 q 470 -387 455 -358 q 439 -329 412 -314 q 385 -300 350 -300 l 350 -300 q 305 -300 278 -316 q 250 -333 238 -362 q 226 -392 226 -426 l 226 -426 q 226 -448 233 -469 q 240 -491 251 -504 l 251 -504 l 327 -516 q 313 -502 304 -478 q 294 -454 294 -428 l 294 -428 q 294 -405 305 -384 q 316 -364 347 -364 l 347 -364 q 374 -364 386 -381 q 397 -398 397 -427 l 397 -427 q 397 -466 376 -485 q 354 -504 325 -504 l 325 -504 q 313 -504 299 -504 q 285 -504 275 -503 l 275 -503 q 230 -499 195 -470 q 159 -442 140 -394 q 120 -346 120 -280 l 120 -280 q 120 -216 138 -167 q 156 -118 189 -88 q 222 -59 265 -52 l 265 -52 q 277 -51 292 -50 q 307 -50 316 -50 l 316 -50 q 339 -50 356 -59 q 373 -68 383 -85 q 392 -103 392 -128 l 392 -128 q 392 -156 381 -173 q 369 -191 342 -191 l 342 -191 q 312 -191 301 -170 q 289 -150 289 -126 l 289 -126 q 289 -99 298 -76 q 307 -53 322 -39 l 322 -39 l 246 -49 q 235 -64 228 -86 q 221 -108 221 -132 l 221 -132 q 221 -165 233 -193 q 245 -221 272 -238 q 299 -255 341 -255 l 341 -255 q 376 -255 405 -241 q 433 -227 449 -199 q 465 -171 465 -127 l 465 -127 q 465 -88 448 -56 q 431 -25 395 -6 q 358 12 300 12 z"},"ൈ":{"ha":1196,"x_min":37,"x_max":1159,"o":"m 201 12 l 201 12 q 157 12 120 -12 q 82 -37 60 -91 q 37 -145 37 -233 l 37 -233 q 37 -314 58 -375 q 78 -437 115 -479 q 152 -522 203 -544 q 253 -566 312 -566 l 312 -566 q 376 -566 424 -545 q 471 -524 502 -486 q 532 -448 547 -397 q 562 -346 562 -287 l 562 -287 q 562 -215 546 -160 q 529 -106 501 -65 q 472 -24 434 8 l 434 8 l 380 -49 q 406 -70 428 -101 q 450 -133 464 -176 q 478 -220 478 -277 l 478 -277 q 478 -347 458 -396 q 438 -445 401 -471 q 363 -497 310 -497 l 310 -497 q 253 -497 209 -463 q 164 -430 139 -370 q 114 -311 114 -230 l 114 -230 q 114 -167 125 -128 q 136 -90 156 -73 q 175 -56 201 -56 l 201 -56 q 221 -56 236 -66 q 250 -77 258 -99 q 266 -122 266 -157 l 266 -157 q 266 -211 246 -235 q 226 -259 192 -259 l 192 -259 q 162 -259 137 -244 q 111 -229 87 -199 l 87 -199 l 67 -254 q 92 -283 130 -305 q 167 -327 209 -327 l 209 -327 q 251 -327 282 -308 q 312 -290 329 -253 q 346 -216 346 -161 l 346 -161 q 346 -104 329 -65 q 311 -26 279 -7 q 247 12 201 12 z m 798 12 l 798 12 q 754 12 717 -12 q 679 -37 657 -91 q 634 -145 634 -233 l 634 -233 q 634 -314 655 -375 q 675 -437 712 -479 q 749 -522 800 -544 q 850 -566 909 -566 l 909 -566 q 973 -566 1021 -545 q 1068 -524 1099 -486 q 1129 -448 1144 -397 q 1159 -346 1159 -287 l 1159 -287 q 1159 -215 1143 -160 q 1126 -106 1098 -65 q 1069 -24 1031 8 l 1031 8 l 977 -49 q 1003 -70 1025 -101 q 1047 -133 1061 -176 q 1075 -220 1075 -277 l 1075 -277 q 1075 -347 1055 -396 q 1035 -445 998 -471 q 960 -497 907 -497 l 907 -497 q 850 -497 806 -463 q 761 -430 736 -370 q 711 -311 711 -230 l 711 -230 q 711 -167 722 -128 q 733 -90 753 -73 q 772 -56 798 -56 l 798 -56 q 818 -56 833 -66 q 847 -77 855 -99 q 863 -122 863 -157 l 863 -157 q 863 -211 843 -235 q 823 -259 789 -259 l 789 -259 q 759 -259 734 -244 q 708 -229 684 -199 l 684 -199 l 664 -254 q 689 -283 727 -305 q 764 -327 806 -327 l 806 -327 q 848 -327 879 -308 q 909 -290 926 -253 q 943 -216 943 -161 l 943 -161 q 943 -104 926 -65 q 908 -26 876 -7 q 844 12 798 12 z"},"ൊ":{"ha":1190,"x_min":37,"x_max":1151,"o":"m 201 12 l 201 12 q 157 12 120 -12 q 82 -37 60 -91 q 37 -145 37 -233 l 37 -233 q 37 -314 58 -375 q 78 -437 115 -479 q 152 -522 203 -544 q 253 -566 312 -566 l 312 -566 q 376 -566 424 -545 q 471 -524 502 -486 q 532 -448 547 -397 q 562 -346 562 -287 l 562 -287 q 562 -215 546 -160 q 529 -106 501 -65 q 472 -24 434 8 l 434 8 l 380 -49 q 406 -70 428 -101 q 450 -133 464 -176 q 478 -220 478 -277 l 478 -277 q 478 -347 458 -396 q 438 -445 401 -471 q 363 -497 310 -497 l 310 -497 q 253 -497 209 -463 q 164 -430 139 -370 q 114 -311 114 -230 l 114 -230 q 114 -167 125 -128 q 136 -90 156 -73 q 175 -56 201 -56 l 201 -56 q 221 -56 236 -66 q 250 -77 258 -99 q 266 -122 266 -157 l 266 -157 q 266 -211 246 -235 q 226 -259 192 -259 l 192 -259 q 162 -259 137 -244 q 111 -229 87 -199 l 87 -199 l 67 -254 q 92 -283 130 -305 q 167 -327 209 -327 l 209 -327 q 251 -327 282 -308 q 312 -290 329 -253 q 346 -216 346 -161 l 346 -161 q 346 -104 329 -65 q 311 -26 279 -7 q 247 12 201 12 z m 685 -235 l 685 -235 q 660 -235 645 -251 q 629 -268 629 -300 l 629 -300 q 629 -334 644 -349 q 659 -365 685 -365 l 685 -365 q 711 -365 727 -350 q 742 -335 742 -300 l 742 -300 q 742 -266 726 -250 q 710 -235 685 -235 z m 1151 -279 l 1151 -279 q 1151 -216 1142 -163 q 1132 -110 1110 -70 q 1088 -31 1052 -9 q 1016 12 962 12 l 962 12 q 917 12 884 -4 q 851 -20 830 -46 q 808 -73 795 -105 q 782 -138 777 -170 l 777 -170 l 859 -186 q 865 -159 876 -128 q 886 -98 906 -76 q 926 -55 958 -55 l 958 -55 q 998 -55 1022 -81 q 1046 -108 1057 -157 q 1068 -207 1068 -278 l 1068 -278 q 1068 -348 1057 -397 q 1046 -447 1023 -473 q 999 -499 962 -499 l 962 -499 q 932 -499 912 -479 q 891 -460 880 -430 q 868 -401 861 -370 l 861 -370 l 780 -386 q 788 -420 802 -451 q 816 -483 838 -509 q 859 -535 892 -550 q 924 -566 969 -566 l 969 -566 q 1020 -566 1055 -544 q 1090 -523 1111 -484 q 1132 -445 1142 -392 q 1151 -340 1151 -279 z"},"ോ":{"ha":1081,"x_min":37,"x_max":1042,"o":"m 300 12 l 300 12 q 246 12 199 -5 q 151 -23 115 -58 q 78 -94 58 -149 q 37 -205 37 -281 l 37 -281 q 37 -355 59 -409 q 81 -463 119 -497 q 157 -532 206 -549 q 254 -566 307 -566 l 307 -566 q 365 -566 401 -547 q 437 -529 454 -497 q 470 -466 470 -428 l 470 -428 q 470 -387 455 -358 q 439 -329 412 -314 q 385 -300 350 -300 l 350 -300 q 305 -300 278 -316 q 250 -333 238 -362 q 226 -392 226 -426 l 226 -426 q 226 -448 233 -469 q 240 -491 251 -504 l 251 -504 l 327 -516 q 313 -502 304 -478 q 294 -454 294 -428 l 294 -428 q 294 -405 305 -384 q 316 -364 347 -364 l 347 -364 q 374 -364 386 -381 q 397 -398 397 -427 l 397 -427 q 397 -466 376 -485 q 354 -504 325 -504 l 325 -504 q 313 -504 299 -504 q 285 -504 275 -503 l 275 -503 q 230 -499 195 -470 q 159 -442 140 -394 q 120 -346 120 -280 l 120 -280 q 120 -216 138 -167 q 156 -118 189 -88 q 222 -59 265 -52 l 265 -52 q 277 -51 292 -50 q 307 -50 316 -50 l 316 -50 q 339 -50 356 -59 q 373 -68 383 -85 q 392 -103 392 -128 l 392 -128 q 392 -156 381 -173 q 369 -191 342 -191 l 342 -191 q 312 -191 301 -170 q 289 -150 289 -126 l 289 -126 q 289 -99 298 -76 q 307 -53 322 -39 l 322 -39 l 246 -49 q 235 -64 228 -86 q 221 -108 221 -132 l 221 -132 q 221 -165 233 -193 q 245 -221 272 -238 q 299 -255 341 -255 l 341 -255 q 376 -255 405 -241 q 433 -227 449 -199 q 465 -171 465 -127 l 465 -127 q 465 -88 448 -56 q 431 -25 395 -6 q 358 12 300 12 z m 577 -235 l 577 -235 q 552 -235 537 -251 q 521 -268 521 -300 l 521 -300 q 521 -334 536 -349 q 551 -365 577 -365 l 577 -365 q 603 -365 619 -350 q 634 -335 634 -300 l 634 -300 q 634 -266 618 -250 q 602 -235 577 -235 z m 1043 -279 l 1043 -279 q 1043 -216 1034 -163 q 1024 -110 1002 -70 q 980 -31 944 -9 q 908 12 854 12 l 854 12 q 809 12 776 -4 q 743 -20 722 -46 q 700 -73 687 -105 q 674 -138 669 -170 l 669 -170 l 751 -186 q 757 -159 768 -128 q 778 -98 798 -76 q 818 -55 850 -55 l 850 -55 q 890 -55 914 -81 q 938 -108 949 -157 q 960 -207 960 -278 l 960 -278 q 960 -348 949 -397 q 938 -447 915 -473 q 891 -499 854 -499 l 854 -499 q 824 -499 804 -479 q 783 -460 772 -430 q 760 -401 753 -370 l 753 -370 l 672 -386 q 680 -420 694 -451 q 708 -483 730 -509 q 751 -535 784 -550 q 816 -566 861 -566 l 861 -566 q 912 -566 947 -544 q 982 -523 1003 -484 q 1024 -445 1034 -392 q 1043 -340 1043 -279 z"},"ൌ":{"ha":1405,"x_min":37,"x_max":1367,"o":"m 201 12 l 201 12 q 157 12 120 -12 q 82 -37 60 -91 q 37 -145 37 -233 l 37 -233 q 37 -314 58 -375 q 78 -437 115 -479 q 152 -522 203 -544 q 253 -566 312 -566 l 312 -566 q 376 -566 424 -545 q 471 -524 502 -486 q 532 -448 547 -397 q 562 -346 562 -287 l 562 -287 q 562 -215 546 -160 q 529 -106 501 -65 q 472 -24 434 8 l 434 8 l 380 -49 q 406 -70 428 -101 q 450 -133 464 -176 q 478 -220 478 -277 l 478 -277 q 478 -347 458 -396 q 438 -445 401 -471 q 363 -497 310 -497 l 310 -497 q 253 -497 209 -463 q 164 -430 139 -370 q 114 -311 114 -230 l 114 -230 q 114 -167 125 -128 q 136 -90 156 -73 q 175 -56 201 -56 l 201 -56 q 221 -56 236 -66 q 250 -77 258 -99 q 266 -122 266 -157 l 266 -157 q 266 -211 246 -235 q 226 -259 192 -259 l 192 -259 q 162 -259 137 -244 q 111 -229 87 -199 l 87 -199 l 67 -254 q 92 -283 130 -305 q 167 -327 209 -327 l 209 -327 q 251 -327 282 -308 q 312 -290 329 -253 q 346 -216 346 -161 l 346 -161 q 346 -104 329 -65 q 311 -26 279 -7 q 247 12 201 12 z m 685 -235 l 685 -235 q 660 -235 645 -251 q 629 -268 629 -300 l 629 -300 q 629 -334 644 -349 q 659 -365 685 -365 l 685 -365 q 711 -365 727 -350 q 742 -335 742 -300 l 742 -300 q 742 -266 726 -250 q 710 -235 685 -235 z m 1195 -566 l 1195 -566 q 1250 -566 1288 -536 q 1326 -507 1347 -449 q 1367 -391 1367 -305 l 1367 -305 q 1367 -196 1339 -125 q 1310 -55 1255 -21 q 1200 12 1122 12 l 1122 12 q 1075 12 1029 2 q 983 -8 940 -32 l 940 -32 l 979 -97 q 1008 -81 1042 -70 q 1076 -60 1117 -60 l 1117 -60 q 1179 -60 1216 -88 q 1252 -116 1268 -170 q 1283 -225 1283 -305 l 1283 -305 q 1283 -401 1258 -449 q 1232 -497 1190 -497 l 1190 -497 q 1171 -497 1159 -490 q 1147 -484 1138 -472 l 1138 -472 q 1126 -457 1122 -430 q 1118 -404 1118 -350 l 1118 -350 l 1118 -259 l 1037 -259 l 1037 -348 q 1037 -395 1033 -423 q 1029 -451 1018 -467 l 1018 -467 q 1009 -482 995 -489 q 980 -497 963 -497 l 963 -497 q 923 -497 903 -465 q 883 -434 883 -387 l 883 -387 q 883 -353 887 -324 q 891 -296 897 -272 l 897 -272 l 821 -255 q 812 -286 807 -321 q 801 -356 801 -391 l 801 -391 q 801 -439 818 -478 q 835 -518 870 -542 q 904 -566 957 -566 l 957 -566 q 1001 -566 1031 -546 q 1061 -526 1081 -488 l 1081 -488 l 1068 -489 q 1092 -532 1123 -549 q 1154 -566 1195 -566 z"},"്":{"ha":0,"x_min":-246,"x_max":55,"o":"m -96 -591 l -96 -591 q -146 -591 -179 -611 q -213 -631 -229 -667 q -246 -703 -246 -749 l -246 -749 q -246 -769 -243 -787 q -240 -806 -236 -818 l -236 -818 l -167 -806 q -170 -794 -171 -780 q -173 -766 -173 -750 l -173 -750 q -173 -715 -162 -694 q -152 -673 -134 -664 q -117 -656 -96 -656 l -96 -656 q -73 -656 -56 -664 q -39 -673 -29 -694 q -19 -715 -19 -751 l -19 -751 q -19 -766 -20 -780 q -22 -795 -25 -806 l -25 -806 l 45 -818 q 49 -806 52 -788 q 55 -770 55 -750 l 55 -750 q 55 -703 38 -667 q 21 -631 -12 -611 q -46 -591 -96 -591 z"},"ൎ":{"ha":0,"x_min":-328,"x_max":-234,"o":"m -328 -809 l -234 -809 l -241 -627 l -321 -627 l -328 -809 z"},"൏":{"ha":1048,"x_min":45,"x_max":1006,"o":"m 496 -566 l 496 -566 q 564 -566 605 -541 q 646 -516 678 -472 l 678 -472 l 661 -478 q 688 -525 723 -545 q 758 -566 807 -566 l 807 -566 q 870 -566 915 -529 q 959 -492 983 -419 q 1006 -346 1006 -236 l 1006 -236 q 1006 -83 957 21 q 908 125 804 178 q 699 230 529 230 l 529 230 q 418 230 336 206 q 254 181 198 138 q 142 95 109 37 q 75 -22 60 -91 q 45 -160 45 -234 l 45 -234 q 45 -303 60 -378 q 75 -454 106 -537 l 106 -537 l 181 -510 q 151 -442 138 -370 q 125 -298 125 -237 l 125 -237 q 125 -179 135 -122 q 145 -65 170 -15 q 194 35 240 74 q 285 112 356 134 q 427 156 530 156 l 530 156 q 640 156 716 131 q 791 106 837 56 q 882 6 903 -67 q 923 -141 923 -237 l 923 -237 q 923 -322 909 -380 q 895 -438 869 -467 q 843 -497 804 -497 l 804 -497 q 782 -497 765 -488 q 748 -480 736 -463 l 736 -463 q 721 -445 714 -412 q 707 -379 707 -319 l 707 -319 l 707 0 l 626 0 l 626 -320 q 626 -376 619 -408 q 611 -441 591 -462 l 591 -462 q 576 -479 554 -488 q 531 -497 497 -497 l 497 -497 q 440 -497 398 -464 q 356 -432 334 -375 q 311 -319 311 -247 l 311 -247 l 311 -224 q 311 -164 322 -127 q 333 -90 353 -73 q 372 -56 398 -56 l 398 -56 q 417 -56 432 -66 q 446 -77 455 -99 q 463 -121 463 -157 l 463 -157 q 463 -211 443 -235 q 423 -259 388 -259 l 388 -259 q 358 -259 333 -244 q 308 -229 283 -199 l 283 -199 l 264 -254 q 289 -283 326 -305 q 363 -327 405 -327 l 405 -327 q 448 -327 479 -308 q 509 -290 526 -253 q 542 -216 542 -161 l 542 -161 q 542 -104 525 -65 q 508 -26 476 -7 q 444 12 398 12 l 398 12 q 354 12 317 -13 q 279 -38 257 -93 q 234 -149 234 -241 l 234 -241 q 234 -351 269 -423 q 303 -495 363 -530 q 422 -566 496 -566 z"},"ൔ":{"ha":539,"x_min":50,"x_max":531,"o":"m 143 -792 l 143 -792 q 174 -792 197 -784 q 220 -776 235 -763 l 235 -763 q 257 -743 265 -715 q 273 -688 273 -645 l 273 -645 l 273 -522 q 273 -475 279 -436 q 284 -397 301 -358 q 318 -320 351 -273 l 351 -273 l 371 -250 q 399 -213 439 -167 q 478 -122 531 -65 l 531 -65 l 498 0 l 54 0 l 54 -277 q 54 -331 62 -371 q 69 -412 83 -443 q 97 -474 119 -497 l 119 -497 q 150 -531 190 -548 q 229 -566 280 -566 l 280 -566 q 330 -566 365 -542 q 400 -518 419 -478 q 438 -438 438 -387 l 438 -387 q 438 -341 422 -298 q 406 -256 379 -217 l 379 -217 l 364 -198 q 344 -172 322 -146 q 299 -121 274 -96 q 249 -71 223 -46 l 223 -46 l 220 -64 q 243 -66 266 -66 q 289 -67 308 -67 l 308 -67 l 381 -67 q 393 -67 408 -66 q 423 -66 439 -66 q 455 -66 468 -64 l 468 -64 l 440 -62 q 405 -100 376 -133 q 347 -166 323 -196 l 323 -196 l 302 -220 q 258 -278 235 -325 q 212 -373 204 -422 q 195 -471 195 -532 l 195 -532 l 195 -633 q 195 -663 190 -680 q 185 -697 173 -706 l 173 -706 q 166 -713 155 -716 q 144 -720 129 -720 l 129 -720 q 113 -720 96 -717 q 79 -715 66 -710 l 66 -710 l 50 -779 q 64 -784 90 -788 q 116 -792 143 -792 z m 135 -257 l 135 -62 l 136 -64 q 169 -91 202 -122 q 234 -153 263 -188 q 292 -223 313 -259 l 313 -259 l 330 -283 q 343 -309 349 -335 q 355 -362 355 -387 l 355 -387 q 355 -419 344 -444 q 333 -469 312 -484 q 290 -499 258 -499 l 258 -499 q 223 -499 200 -478 q 176 -458 161 -423 l 161 -423 q 153 -404 147 -380 q 141 -357 138 -326 q 135 -296 135 -257 l 135 -257 z"},"ൕ":{"ha":866,"x_min":37,"x_max":829,"o":"m 567 12 l 567 12 q 538 12 512 8 q 485 4 462 -4 q 439 -13 418 -26 l 418 -26 q 411 -31 404 -36 q 397 -42 392 -47 l 392 -47 q 349 -83 321 -129 q 293 -176 280 -231 q 266 -286 266 -347 l 266 -347 q 266 -383 275 -419 q 284 -455 300 -485 l 300 -485 l 311 -500 q 327 -521 347 -535 q 366 -550 391 -558 q 415 -566 444 -566 l 444 -566 q 526 -566 572 -507 q 618 -449 618 -342 l 618 -342 q 618 -278 604 -222 q 589 -167 561 -122 q 532 -78 491 -45 l 491 -45 q 486 -41 479 -35 q 471 -30 465 -26 l 465 -26 q 433 -6 396 3 q 358 12 316 12 l 316 12 q 249 12 197 -13 q 145 -39 109 -84 q 73 -130 55 -192 q 37 -255 37 -330 l 37 -330 q 37 -404 60 -456 q 82 -509 124 -537 q 166 -566 223 -566 l 223 -566 q 270 -566 303 -548 q 336 -531 368 -496 l 368 -496 l 310 -448 q 294 -473 274 -485 q 254 -498 228 -498 l 228 -498 q 197 -498 172 -480 q 147 -462 134 -424 q 120 -387 120 -329 l 120 -329 q 120 -248 144 -186 q 167 -124 212 -89 q 256 -54 319 -54 l 319 -54 q 344 -54 364 -57 q 383 -60 401 -67 l 401 -67 q 408 -71 416 -74 q 423 -78 430 -82 l 430 -82 q 464 -106 488 -146 q 511 -187 524 -237 q 536 -287 536 -340 l 536 -340 q 536 -400 523 -435 q 509 -470 488 -484 q 467 -499 443 -499 l 443 -499 q 414 -499 393 -481 q 371 -464 360 -428 q 349 -393 349 -342 l 349 -342 q 349 -296 360 -246 q 371 -196 395 -153 q 419 -110 454 -84 l 454 -84 q 460 -80 467 -77 q 473 -74 479 -71 l 479 -71 q 495 -63 515 -58 q 535 -54 564 -54 l 564 -54 q 627 -54 667 -77 q 707 -101 727 -141 q 746 -181 746 -231 l 746 -231 q 746 -276 738 -311 q 729 -347 713 -381 q 697 -415 674 -455 l 674 -455 q 650 -499 632 -532 q 614 -565 605 -596 q 596 -628 596 -662 l 596 -662 q 596 -690 608 -720 q 620 -750 650 -771 q 679 -792 731 -792 l 731 -792 q 755 -792 779 -788 q 803 -784 817 -779 l 817 -779 l 801 -710 q 788 -715 774 -717 q 760 -720 742 -720 l 742 -720 q 707 -720 692 -700 q 677 -680 677 -656 l 677 -656 q 677 -633 684 -611 q 691 -589 707 -561 q 722 -534 745 -492 l 745 -492 q 770 -450 789 -408 q 808 -366 819 -324 q 829 -282 829 -239 l 829 -239 q 829 -196 819 -158 q 809 -121 789 -90 q 768 -59 737 -36 q 705 -13 663 0 q 620 12 567 12 z"},"ൖ":{"ha":622,"x_min":35,"x_max":587,"o":"m 186 -160 l 186 -160 q 186 -132 195 -108 q 204 -84 226 -70 q 247 -56 284 -56 l 284 -56 q 333 -56 348 -77 q 363 -99 363 -127 l 363 -127 q 363 -163 352 -196 q 341 -230 327 -263 q 312 -296 301 -333 q 290 -370 290 -414 l 290 -414 q 290 -456 307 -490 q 323 -525 355 -545 q 387 -566 436 -566 l 436 -566 q 490 -566 523 -541 q 556 -517 572 -478 q 587 -440 587 -398 l 587 -398 q 587 -327 559 -271 q 530 -216 474 -183 q 417 -151 332 -151 l 332 -151 l 315 -151 q 267 -151 230 -159 q 193 -167 160 -185 l 160 -185 l 134 -196 q 101 -217 79 -247 q 57 -277 46 -314 q 35 -352 35 -395 l 35 -395 q 35 -439 47 -481 q 58 -523 85 -566 l 85 -566 l 150 -530 q 131 -494 124 -462 q 116 -431 116 -396 l 116 -396 q 116 -355 125 -325 q 133 -295 151 -271 l 151 -271 l 173 -256 q 197 -236 234 -227 q 271 -218 315 -218 l 315 -218 l 334 -218 q 394 -218 432 -240 q 470 -263 488 -304 q 506 -345 506 -398 l 506 -398 q 506 -439 491 -469 q 475 -500 436 -500 l 436 -500 q 413 -500 397 -488 q 381 -476 373 -456 q 365 -436 365 -411 l 365 -411 q 365 -369 377 -333 q 388 -297 403 -264 q 418 -231 430 -196 q 441 -162 441 -122 l 441 -122 q 441 -100 434 -76 q 427 -53 410 -32 q 392 -12 362 0 q 331 12 283 12 l 283 12 q 231 12 193 -7 q 154 -26 133 -66 q 111 -106 111 -169 l 111 -169 q 111 -208 122 -249 q 132 -290 152 -337 q 171 -385 197 -443 l 197 -443 q 220 -493 235 -530 q 250 -567 257 -596 q 264 -625 264 -650 l 264 -650 q 264 -682 248 -701 q 231 -720 198 -720 l 198 -720 q 182 -720 166 -717 q 149 -715 137 -711 l 137 -711 l 121 -779 q 136 -784 161 -788 q 185 -792 212 -792 l 212 -792 q 265 -792 294 -772 q 323 -752 334 -723 q 345 -695 345 -669 l 345 -669 q 345 -643 341 -618 q 337 -593 328 -565 q 318 -538 303 -502 q 287 -466 266 -417 l 266 -417 q 245 -367 230 -330 q 214 -294 205 -265 q 195 -237 191 -212 q 186 -187 186 -160 z"},"ൗ":{"ha":638,"x_min":34,"x_max":600,"o":"m 428 -566 l 428 -566 q 483 -566 521 -536 q 559 -507 580 -449 q 600 -391 600 -305 l 600 -305 q 600 -196 572 -125 q 543 -55 488 -21 q 433 12 355 12 l 355 12 q 308 12 262 2 q 216 -8 173 -32 l 173 -32 l 212 -97 q 241 -81 275 -70 q 309 -60 350 -60 l 350 -60 q 412 -60 449 -88 q 485 -116 501 -170 q 516 -225 516 -305 l 516 -305 q 516 -401 491 -449 q 465 -497 423 -497 l 423 -497 q 404 -497 392 -490 q 380 -484 371 -472 l 371 -472 q 359 -457 355 -430 q 351 -404 351 -350 l 351 -350 l 351 -259 l 270 -259 l 270 -348 q 270 -395 266 -423 q 262 -451 251 -467 l 251 -467 q 242 -482 228 -489 q 213 -497 196 -497 l 196 -497 q 156 -497 136 -465 q 116 -434 116 -387 l 116 -387 q 116 -353 120 -324 q 124 -296 130 -272 l 130 -272 l 54 -255 q 45 -286 40 -321 q 34 -356 34 -391 l 34 -391 q 34 -439 51 -478 q 68 -518 103 -542 q 137 -566 190 -566 l 190 -566 q 234 -566 264 -546 q 294 -526 314 -488 l 314 -488 l 301 -489 q 325 -532 356 -549 q 387 -566 428 -566 z"},"൘":{"ha":1012,"x_min":36,"x_max":970,"o":"m 502 12 l 502 12 q 456 12 421 -9 q 386 -30 361 -75 l 361 -75 l 373 -76 q 350 -34 318 -11 q 285 12 232 12 l 232 12 q 171 12 127 -21 q 83 -55 60 -115 q 36 -175 36 -256 l 36 -256 q 36 -330 52 -385 q 67 -440 95 -483 q 122 -527 155 -562 l 155 -562 l 216 -507 q 191 -482 169 -447 q 147 -413 134 -367 q 120 -321 120 -258 l 120 -258 q 120 -196 135 -150 q 150 -105 176 -81 q 202 -57 235 -57 l 235 -57 q 258 -57 274 -66 q 290 -75 301 -92 l 301 -92 q 317 -115 322 -149 q 326 -183 326 -235 l 326 -235 l 326 -554 l 407 -554 l 407 -228 q 407 -178 413 -146 q 419 -114 434 -91 l 434 -91 q 445 -75 462 -66 q 479 -57 502 -57 l 502 -57 q 528 -57 546 -65 q 563 -74 574 -90 l 574 -90 q 588 -111 593 -142 q 597 -173 597 -224 l 597 -224 l 597 -554 l 678 -554 l 678 -254 l 643 -75 q 621 -33 588 -10 q 554 12 502 12 z m 774 12 l 774 12 q 727 12 693 -8 q 658 -29 631 -77 l 631 -77 l 605 -222 l 605 -544 l 678 -544 l 678 -236 q 678 -181 684 -147 q 689 -113 705 -90 l 705 -90 q 716 -74 732 -65 q 748 -57 771 -57 l 771 -57 q 806 -57 832 -84 q 858 -112 873 -169 q 887 -227 887 -316 l 887 -316 q 887 -413 871 -487 q 854 -562 823 -616 q 792 -670 747 -705 q 702 -740 645 -756 q 588 -773 519 -773 l 519 -773 q 469 -773 419 -767 q 368 -761 322 -748 l 322 -748 l 310 -818 q 345 -828 378 -833 q 411 -838 446 -840 q 481 -843 521 -843 l 521 -843 q 610 -843 682 -821 q 753 -800 807 -757 q 860 -715 897 -651 q 933 -588 952 -504 q 970 -421 970 -317 l 970 -317 q 970 -202 947 -129 q 924 -56 881 -22 q 837 12 774 12 z"},"൙":{"ha":939,"x_min":37,"x_max":919,"o":"m 304 -566 l 304 -566 q 373 -566 425 -542 q 477 -518 512 -474 q 546 -431 564 -370 q 581 -310 581 -236 l 581 -236 q 581 -143 559 -88 q 536 -34 497 -11 q 457 12 407 12 l 407 12 q 353 12 319 -10 q 284 -33 268 -68 q 251 -104 251 -144 l 251 -144 q 251 -197 270 -231 q 288 -265 318 -286 l 318 -286 q 340 -301 366 -310 q 392 -319 429 -323 q 465 -327 518 -327 l 518 -327 l 580 -327 l 580 -259 l 519 -259 q 458 -259 425 -252 q 392 -246 369 -229 l 369 -229 q 351 -217 341 -196 q 331 -175 331 -144 l 331 -144 q 331 -103 351 -79 q 371 -55 406 -55 l 406 -55 q 437 -55 458 -73 q 479 -92 491 -132 q 502 -173 502 -239 l 502 -239 q 502 -259 501 -275 q 499 -291 497 -305 l 497 -305 l 496 -322 q 488 -372 465 -411 q 441 -451 402 -474 q 363 -497 307 -497 l 307 -497 q 249 -497 208 -470 q 166 -444 144 -395 q 121 -347 121 -279 l 121 -279 q 121 -224 133 -181 q 145 -138 168 -105 q 190 -73 219 -49 l 219 -49 l 165 8 q 130 -20 101 -61 q 72 -103 55 -158 q 37 -214 37 -285 l 37 -285 q 37 -341 53 -392 q 69 -443 102 -482 q 135 -521 186 -543 q 236 -566 304 -566 z m 780 -554 l 780 -554 q 829 -554 860 -534 q 891 -515 905 -483 q 919 -452 919 -414 l 919 -414 q 919 -376 906 -345 q 892 -314 866 -295 l 866 -295 q 849 -282 828 -274 q 807 -266 779 -262 q 751 -259 713 -259 l 713 -259 l 541 -259 l 545 -327 l 724 -327 q 764 -327 783 -333 q 802 -339 815 -350 l 815 -350 q 828 -360 834 -376 q 840 -393 840 -415 l 840 -415 q 840 -448 825 -468 q 810 -488 780 -488 l 780 -488 q 747 -488 730 -465 q 712 -442 712 -404 l 712 -404 q 712 -366 724 -338 q 735 -310 750 -287 l 750 -287 l 675 -281 q 659 -307 647 -340 q 635 -373 635 -413 l 635 -413 q 635 -458 654 -489 q 673 -521 706 -537 q 738 -554 780 -554 z"},"൚":{"ha":891,"x_min":37,"x_max":837,"o":"m 580 -566 l 580 -566 q 646 -566 694 -548 q 741 -531 771 -498 l 771 -498 q 794 -473 809 -442 q 824 -411 831 -370 q 837 -329 837 -274 l 837 -274 l 837 0 l 419 0 l 419 -65 q 470 -115 510 -172 q 550 -230 573 -289 q 595 -349 595 -406 l 595 -406 q 595 -434 590 -454 q 584 -475 571 -486 q 558 -498 537 -498 l 537 -498 q 506 -498 482 -477 q 457 -456 442 -422 l 442 -422 q 429 -390 425 -353 q 420 -316 420 -257 l 420 -257 l 420 -230 l 338 -230 l 338 -316 q 338 -378 332 -410 q 326 -443 311 -463 l 311 -463 q 299 -479 283 -488 q 266 -497 243 -497 l 243 -497 q 208 -497 181 -472 q 153 -447 137 -402 q 121 -357 121 -296 l 121 -296 q 121 -234 135 -187 q 148 -141 170 -107 q 192 -73 217 -47 l 217 -47 l 156 8 q 123 -28 96 -70 q 69 -113 53 -169 q 37 -225 37 -298 l 37 -298 q 37 -379 62 -439 q 86 -499 132 -532 q 178 -566 242 -566 l 242 -566 q 283 -566 312 -553 q 340 -540 362 -514 q 383 -489 402 -451 l 402 -451 l 368 -445 q 390 -489 421 -515 q 451 -542 491 -554 q 531 -566 580 -566 z m 677 -396 l 677 -396 q 677 -333 656 -274 q 634 -216 595 -159 q 555 -103 502 -45 l 502 -45 l 492 -62 q 515 -64 544 -65 q 573 -67 592 -67 l 592 -67 l 756 -67 l 756 -270 q 756 -338 744 -384 q 732 -430 706 -458 q 680 -486 637 -498 l 637 -498 l 638 -504 q 656 -483 667 -456 q 677 -430 677 -396 z"},"൛":{"ha":800,"x_min":63,"x_max":764,"o":"m 515 12 l 515 12 q 453 12 407 -9 q 361 -31 331 -68 q 301 -106 287 -157 q 272 -208 272 -267 l 272 -267 q 272 -320 283 -363 q 293 -406 311 -440 q 329 -475 352 -502 l 352 -502 l 362 -487 l 144 -487 l 144 0 l 63 0 l 63 -554 l 408 -554 l 445 -498 q 423 -478 403 -447 q 382 -416 369 -373 q 356 -331 356 -276 l 356 -276 q 356 -207 376 -158 q 395 -109 431 -83 q 467 -57 517 -57 l 517 -57 q 567 -57 604 -84 q 640 -111 660 -160 q 679 -209 679 -275 l 679 -275 q 679 -329 667 -371 q 655 -414 633 -447 q 611 -481 581 -505 l 581 -505 l 635 -562 q 671 -535 700 -493 q 728 -452 746 -396 q 764 -340 764 -269 l 764 -269 q 764 -210 748 -158 q 732 -107 701 -69 q 669 -31 623 -9 q 577 12 515 12 z"},"൜":{"ha":1255,"x_min":37,"x_max":1218,"o":"m 755 -566 l 755 -566 q 794 -566 824 -555 q 854 -545 875 -522 l 875 -522 q 891 -506 902 -483 q 912 -460 918 -425 q 923 -391 923 -336 l 923 -336 l 923 -247 q 923 -185 928 -148 q 933 -111 948 -88 l 948 -88 q 959 -74 975 -65 q 991 -57 1020 -57 l 1020 -57 q 1055 -57 1081 -81 q 1106 -105 1120 -150 q 1134 -196 1134 -257 l 1134 -257 q 1134 -319 1121 -366 q 1108 -414 1086 -450 q 1063 -486 1038 -511 l 1038 -511 l 1097 -566 q 1132 -529 1160 -484 q 1187 -440 1203 -383 q 1218 -327 1218 -253 l 1218 -253 q 1218 -169 1194 -109 q 1169 -50 1125 -19 q 1081 12 1020 12 l 1020 12 q 975 12 943 0 q 911 -13 889 -37 l 889 -37 q 871 -56 861 -81 q 850 -106 846 -138 q 842 -170 842 -209 l 842 -209 l 842 -335 q 842 -386 837 -418 q 832 -451 816 -471 l 816 -471 q 806 -484 790 -490 q 774 -497 755 -497 l 755 -497 q 736 -497 720 -490 q 704 -484 694 -471 l 694 -471 q 678 -451 673 -418 q 668 -385 668 -332 l 668 -332 l 668 -219 q 668 -167 663 -131 q 657 -95 647 -72 q 637 -49 621 -33 l 621 -33 q 600 -10 571 1 q 542 12 500 12 l 500 12 q 459 12 430 1 q 401 -10 380 -32 l 380 -32 q 365 -49 354 -72 q 343 -96 338 -131 q 332 -166 332 -218 l 332 -218 l 332 -307 q 332 -370 328 -406 q 323 -443 307 -466 l 307 -466 q 297 -480 281 -488 q 265 -497 235 -497 l 235 -497 q 201 -497 175 -473 q 149 -449 135 -404 q 121 -360 121 -298 l 121 -298 q 121 -236 134 -188 q 147 -140 170 -105 q 192 -70 218 -43 l 218 -43 l 158 12 q 123 -25 96 -69 q 68 -114 53 -171 q 37 -228 37 -301 l 37 -301 q 37 -384 61 -443 q 84 -502 130 -534 q 176 -566 239 -566 l 239 -566 q 282 -566 313 -553 q 343 -541 364 -519 l 364 -519 q 384 -498 395 -471 q 405 -445 409 -411 q 413 -378 413 -335 l 413 -335 l 413 -219 q 413 -168 418 -135 q 423 -103 439 -83 l 439 -83 q 449 -70 465 -63 q 481 -57 500 -57 l 500 -57 q 519 -57 535 -63 q 551 -70 561 -83 l 561 -83 q 577 -103 582 -135 q 587 -168 587 -219 l 587 -219 l 587 -332 q 587 -386 593 -422 q 598 -458 609 -481 q 619 -505 634 -521 l 634 -521 q 656 -544 685 -555 q 713 -566 755 -566 z"},"൝":{"ha":1670,"x_min":10,"x_max":1633,"o":"m 660 -566 l 660 -566 q 699 -566 729 -555 q 759 -545 780 -522 l 780 -522 q 796 -506 807 -483 q 817 -460 823 -425 q 828 -391 828 -336 l 828 -336 l 828 -219 q 828 -168 833 -135 q 838 -103 854 -83 l 854 -83 q 864 -70 880 -63 q 896 -57 914 -57 l 914 -57 q 933 -57 950 -63 q 966 -70 976 -83 l 976 -83 q 992 -103 997 -135 q 1001 -168 1001 -219 l 1001 -219 l 1001 -332 q 1001 -386 1007 -422 q 1012 -458 1023 -481 q 1034 -505 1049 -521 l 1049 -521 q 1070 -544 1099 -555 q 1128 -566 1170 -566 l 1170 -566 q 1209 -566 1239 -555 q 1269 -545 1290 -522 l 1290 -522 q 1306 -506 1317 -483 q 1327 -460 1333 -425 q 1338 -391 1338 -336 l 1338 -336 l 1338 -247 q 1338 -185 1343 -148 q 1347 -111 1363 -88 l 1363 -88 q 1373 -74 1390 -65 q 1406 -57 1434 -57 l 1434 -57 q 1469 -57 1495 -81 q 1521 -105 1535 -150 q 1549 -196 1549 -257 l 1549 -257 q 1549 -319 1536 -366 q 1522 -414 1500 -450 q 1478 -486 1452 -511 l 1452 -511 l 1511 -566 q 1547 -529 1575 -484 q 1602 -440 1618 -383 q 1633 -327 1633 -253 l 1633 -253 q 1633 -169 1609 -109 q 1584 -50 1540 -19 q 1495 12 1434 12 l 1434 12 q 1389 12 1358 0 q 1326 -13 1304 -37 l 1304 -37 q 1285 -56 1275 -81 q 1264 -106 1260 -138 q 1256 -170 1256 -209 l 1256 -209 l 1256 -335 q 1256 -386 1252 -418 q 1247 -451 1231 -471 l 1231 -471 q 1221 -484 1205 -490 q 1189 -497 1170 -497 l 1170 -497 q 1151 -497 1135 -490 q 1119 -484 1109 -471 l 1109 -471 q 1093 -451 1088 -418 q 1083 -385 1083 -332 l 1083 -332 l 1083 -219 q 1083 -167 1078 -131 q 1072 -95 1062 -72 q 1051 -49 1035 -33 l 1035 -33 q 1014 -10 985 1 q 956 12 914 12 l 914 12 q 874 12 845 1 q 816 -10 794 -32 l 794 -32 q 779 -49 769 -72 q 758 -96 752 -131 q 746 -166 746 -218 l 746 -218 l 746 -335 q 746 -386 742 -418 q 737 -451 721 -471 l 721 -471 q 711 -484 695 -490 q 679 -497 660 -497 l 660 -497 q 641 -497 625 -490 q 609 -484 599 -471 l 599 -471 q 583 -451 578 -418 q 573 -385 573 -332 l 573 -332 l 573 -208 q 573 -137 562 -99 q 551 -62 525 -35 l 525 -35 q 504 -12 474 0 q 443 12 403 12 l 403 12 q 347 12 312 -13 q 277 -39 256 -83 l 256 -83 l 270 -78 q 254 -50 235 -29 q 215 -9 188 2 q 161 12 122 12 l 122 12 q 89 12 62 5 q 34 -2 10 -15 l 10 -15 l 38 -80 q 56 -71 78 -64 q 99 -58 123 -58 l 123 -58 q 149 -58 167 -66 q 184 -74 196 -91 l 196 -91 q 211 -110 218 -142 q 224 -175 224 -233 l 224 -233 l 224 -554 l 305 -554 l 305 -227 q 305 -172 310 -140 q 315 -109 329 -89 l 329 -89 q 340 -74 357 -65 q 374 -57 397 -57 l 397 -57 q 421 -57 439 -66 q 456 -75 466 -88 l 466 -88 q 481 -109 486 -142 q 491 -175 491 -227 l 491 -227 l 491 -332 q 491 -386 497 -422 q 502 -458 513 -481 q 524 -505 539 -521 l 539 -521 q 560 -544 589 -555 q 618 -566 660 -566 z"},"൞":{"ha":1150,"x_min":37,"x_max":1123,"o":"m 304 -566 l 304 -566 q 373 -566 425 -542 q 477 -518 512 -474 q 546 -431 564 -370 q 581 -310 581 -236 l 581 -236 q 581 -143 559 -88 q 536 -34 497 -11 q 457 12 407 12 l 407 12 q 353 12 319 -10 q 284 -33 268 -68 q 251 -104 251 -144 l 251 -144 q 251 -197 270 -231 q 288 -265 318 -286 l 318 -286 q 340 -301 366 -310 q 392 -319 429 -323 q 465 -327 518 -327 l 518 -327 l 542 -327 l 542 -259 l 519 -259 q 458 -259 425 -252 q 392 -246 369 -229 l 369 -229 q 351 -217 341 -196 q 331 -175 331 -144 l 331 -144 q 331 -103 351 -79 q 371 -55 406 -55 l 406 -55 q 437 -55 458 -73 q 479 -92 491 -132 q 502 -173 502 -239 l 502 -239 q 502 -259 501 -275 q 499 -291 497 -305 l 497 -305 l 496 -322 q 488 -372 465 -411 q 441 -451 402 -474 q 363 -497 307 -497 l 307 -497 q 249 -497 208 -470 q 166 -444 144 -395 q 121 -347 121 -279 l 121 -279 q 121 -224 133 -181 q 145 -138 168 -105 q 190 -73 219 -49 l 219 -49 l 165 8 q 130 -20 101 -61 q 72 -103 55 -158 q 37 -214 37 -285 l 37 -285 q 37 -341 53 -392 q 69 -443 102 -482 q 135 -521 186 -543 q 236 -566 304 -566 z m 957 -208 l 957 -208 q 901 -208 865 -232 q 828 -257 810 -296 q 792 -335 792 -377 l 792 -377 q 792 -421 805 -452 q 818 -484 831 -497 l 831 -497 l 848 -487 l 664 -487 l 698 -496 q 712 -479 721 -454 q 729 -430 729 -402 l 729 -402 q 729 -346 706 -314 q 682 -283 643 -271 q 603 -259 556 -259 l 556 -259 l 537 -259 l 537 -327 l 557 -327 q 584 -327 605 -333 q 626 -339 639 -355 q 651 -372 651 -402 l 651 -402 q 651 -430 643 -450 q 634 -470 622 -487 l 622 -487 l 645 -554 l 879 -554 l 909 -502 q 893 -481 882 -454 q 871 -427 871 -389 l 871 -389 q 871 -336 893 -305 q 915 -275 957 -275 l 957 -275 q 984 -275 1004 -289 q 1023 -303 1034 -327 q 1044 -352 1044 -383 l 1044 -383 q 1044 -423 1031 -454 q 1018 -485 992 -513 l 992 -513 l 1045 -561 q 1078 -528 1101 -483 q 1123 -439 1123 -382 l 1123 -382 q 1123 -330 1103 -290 q 1082 -251 1045 -229 q 1008 -208 957 -208 z"},"ൟ":{"ha":1143,"x_min":25,"x_max":1118,"o":"m 25 -268 l 25 -268 q 25 -328 58 -363 q 90 -398 141 -398 l 141 -398 q 193 -398 226 -363 q 259 -329 259 -268 l 259 -268 q 259 -208 227 -173 q 194 -138 141 -138 l 141 -138 q 89 -138 57 -173 q 25 -208 25 -268 z m 91 -269 l 91 -269 q 91 -238 104 -219 q 116 -200 141 -200 l 141 -200 q 167 -200 180 -219 q 193 -238 193 -269 l 193 -269 q 193 -300 180 -318 q 166 -336 141 -336 l 141 -336 q 117 -336 104 -318 q 91 -300 91 -269 z m 884 -268 l 884 -268 q 884 -328 917 -363 q 949 -398 1000 -398 l 1000 -398 q 1052 -398 1085 -363 q 1118 -329 1118 -268 l 1118 -268 q 1118 -208 1086 -173 q 1053 -138 1000 -138 l 1000 -138 q 948 -138 916 -173 q 884 -208 884 -268 z m 950 -269 l 950 -269 q 950 -238 963 -219 q 975 -200 1000 -200 l 1000 -200 q 1026 -200 1039 -219 q 1052 -238 1052 -269 l 1052 -269 q 1052 -300 1039 -318 q 1025 -336 1000 -336 l 1000 -336 q 976 -336 963 -318 q 950 -300 950 -269 z m 565 -566 l 565 -566 q 635 -566 687 -542 q 739 -519 774 -476 q 808 -433 826 -373 q 843 -314 843 -242 l 843 -242 q 843 -149 820 -92 q 797 -36 758 -12 q 718 12 667 12 l 667 12 q 612 12 577 -16 q 541 -44 523 -92 q 505 -140 505 -198 l 505 -198 q 505 -296 547 -349 q 588 -403 659 -403 l 659 -403 q 700 -403 730 -383 q 759 -364 780 -329 q 801 -295 815 -248 l 815 -248 l 788 -237 q 782 -258 768 -281 q 753 -304 730 -320 q 707 -336 677 -336 l 677 -336 q 629 -336 607 -299 q 585 -262 585 -198 l 585 -198 q 585 -153 594 -121 q 603 -89 621 -71 q 639 -54 668 -54 l 668 -54 q 698 -54 720 -73 q 741 -93 753 -136 q 765 -179 765 -248 l 765 -248 q 765 -250 764 -270 q 762 -290 759 -310 l 759 -310 q 758 -315 759 -323 q 759 -331 757 -335 l 757 -335 q 750 -378 727 -414 q 703 -451 664 -474 q 624 -497 569 -497 l 569 -497 q 511 -497 469 -470 q 427 -444 405 -395 q 382 -347 382 -279 l 382 -279 q 382 -224 395 -181 q 407 -138 429 -105 q 451 -73 481 -49 l 481 -49 l 426 8 q 392 -20 363 -61 q 333 -103 316 -158 q 298 -214 298 -285 l 298 -285 q 298 -341 315 -392 q 331 -443 364 -482 q 396 -521 447 -543 q 497 -566 565 -566 z"},"ൠ":{"ha":737,"x_min":35,"x_max":702,"o":"m 551 -566 l 551 -566 q 621 -566 662 -512 q 702 -458 702 -363 l 702 -363 q 702 -299 685 -251 q 668 -203 632 -167 l 632 -167 q 608 -142 576 -125 q 544 -109 501 -101 l 501 -101 l 394 -100 l 345 -100 l 252 -99 q 205 -106 171 -121 q 137 -136 111 -161 l 111 -161 q 73 -197 54 -246 q 35 -296 35 -360 l 35 -360 q 35 -421 54 -467 q 73 -514 110 -540 q 146 -566 198 -566 l 198 -566 q 246 -566 276 -544 q 306 -523 321 -487 q 335 -452 335 -409 l 335 -409 q 335 -361 321 -326 q 306 -291 277 -271 q 247 -252 200 -252 l 200 -252 q 169 -252 144 -262 q 119 -272 99 -289 q 78 -306 59 -325 l 59 -325 l 83 -379 q 98 -362 112 -348 q 126 -334 144 -326 q 161 -319 184 -319 l 184 -319 q 225 -319 242 -343 q 258 -367 258 -410 l 258 -410 q 258 -448 243 -473 q 227 -499 193 -499 l 193 -499 q 165 -499 147 -483 q 128 -467 119 -436 q 109 -406 109 -364 l 109 -364 q 109 -350 111 -335 q 112 -321 115 -307 l 115 -307 l 112 -290 q 123 -253 144 -227 q 164 -201 194 -185 q 224 -169 263 -162 q 302 -155 351 -155 l 351 -155 l 384 -155 q 435 -155 475 -162 q 514 -170 544 -186 q 574 -203 594 -228 q 614 -254 624 -291 l 624 -291 l 621 -309 q 623 -320 625 -335 q 627 -351 627 -361 l 627 -361 q 627 -408 619 -438 q 610 -469 593 -484 q 576 -499 550 -499 l 550 -499 q 513 -499 496 -473 q 479 -447 479 -405 l 479 -405 q 479 -366 495 -342 q 511 -319 551 -319 l 551 -319 q 574 -319 592 -326 q 609 -333 624 -346 q 638 -360 653 -376 l 653 -376 l 676 -323 q 659 -305 639 -288 q 618 -272 593 -262 q 568 -252 536 -252 l 536 -252 q 489 -252 459 -272 q 429 -292 415 -326 q 401 -361 401 -407 l 401 -407 q 401 -451 417 -486 q 432 -522 466 -544 q 499 -566 551 -566 z m 370 213 l 370 213 q 270 213 202 194 q 134 174 99 134 q 64 93 64 31 l 64 31 q 64 -13 85 -44 q 105 -75 140 -95 q 174 -115 220 -124 q 265 -134 314 -134 l 314 -134 l 420 -134 q 471 -134 517 -124 q 562 -115 597 -95 q 632 -75 652 -43 q 672 -12 672 32 l 672 32 q 672 91 639 132 q 606 172 539 193 q 472 213 370 213 z m 369 146 l 369 146 q 448 146 497 133 q 545 119 567 93 q 589 66 589 29 l 589 29 q 589 -5 573 -27 q 557 -50 528 -63 q 499 -77 461 -82 q 423 -88 377 -88 l 377 -88 l 358 -88 q 298 -88 251 -77 q 203 -66 175 -40 q 147 -15 147 28 l 147 28 q 147 68 170 94 q 192 120 241 133 q 290 146 369 146 z m 437 -46 l 437 -46 q 465 -46 482 -36 q 498 -26 507 -9 q 515 8 518 28 q 521 47 521 64 l 521 64 l 521 93 l 461 93 l 461 77 q 461 47 455 32 q 449 17 430 17 l 430 17 q 411 17 405 33 q 398 48 398 74 l 398 74 l 398 93 l 338 93 l 338 75 q 338 48 332 33 q 326 17 307 17 l 307 17 q 287 17 281 33 q 275 49 275 77 l 275 77 l 275 93 l 215 93 l 215 64 q 215 47 218 28 q 221 8 230 -8 q 239 -25 256 -35 q 273 -46 300 -46 l 300 -46 q 326 -46 342 -36 q 357 -26 368 -9 l 368 -9 q 380 -27 397 -36 q 414 -46 437 -46 z"},"ൡ":{"ha":1095,"x_min":39,"x_max":1071,"o":"m 301 -566 l 301 -566 q 370 -566 411 -541 q 452 -516 486 -469 l 486 -469 l 500 -408 l 513 -254 l 513 0 l 432 0 l 432 -320 q 432 -376 424 -408 q 416 -441 397 -462 l 397 -462 q 381 -479 359 -488 q 336 -497 302 -497 l 302 -497 q 245 -497 204 -464 q 162 -432 139 -375 q 116 -319 116 -247 l 116 -247 l 116 -224 q 116 -164 127 -127 q 138 -90 158 -73 q 177 -56 203 -56 l 203 -56 q 223 -56 238 -66 q 252 -77 260 -99 q 268 -121 268 -157 l 268 -157 q 268 -211 249 -235 q 229 -259 194 -259 l 194 -259 q 164 -259 139 -244 q 113 -229 89 -199 l 89 -199 l 69 -254 q 94 -283 132 -305 q 169 -327 211 -327 l 211 -327 q 253 -327 284 -308 q 314 -290 331 -253 q 348 -216 348 -161 l 348 -161 q 348 -104 331 -65 q 313 -26 281 -7 q 249 12 204 12 l 204 12 q 159 12 122 -13 q 84 -38 62 -93 q 39 -149 39 -241 l 39 -241 q 39 -351 74 -423 q 109 -495 168 -530 q 227 -566 301 -566 z m 653 -566 l 653 -566 q 732 -566 786 -535 q 839 -504 870 -451 q 901 -398 911 -330 l 911 -330 q 916 -305 918 -279 q 919 -253 919 -227 l 919 -227 q 919 -139 898 -86 q 877 -34 839 -11 q 801 12 746 12 l 746 12 q 692 12 657 -13 q 622 -38 606 -79 q 589 -120 589 -169 l 589 -169 q 589 -272 650 -326 q 711 -381 812 -381 l 812 -381 q 821 -381 832 -380 q 843 -380 853 -378 l 853 -378 l 872 -377 q 934 -365 979 -326 q 1023 -287 1047 -226 q 1071 -166 1071 -89 l 1071 -89 q 1071 -23 1055 31 q 1038 84 1005 122 q 971 160 921 181 q 870 201 802 201 l 802 201 q 765 201 735 195 q 704 189 678 180 l 678 180 l 702 115 q 726 123 751 127 q 776 131 804 131 l 804 131 q 857 131 894 114 q 930 96 952 65 q 973 34 982 -7 q 991 -48 991 -94 l 991 -94 q 991 -145 981 -184 q 970 -224 950 -252 q 929 -281 898 -298 l 898 -298 l 871 -303 q 856 -309 841 -311 q 826 -314 815 -314 l 815 -314 q 771 -314 738 -299 q 705 -284 688 -252 q 670 -221 670 -171 l 670 -171 q 670 -139 678 -112 q 685 -86 702 -70 q 719 -55 747 -55 l 747 -55 q 794 -55 818 -95 q 841 -135 841 -232 l 841 -232 q 841 -258 839 -285 q 837 -313 831 -340 l 831 -340 l 827 -363 q 817 -400 796 -430 q 775 -461 741 -479 q 707 -497 657 -497 l 657 -497 q 628 -497 602 -488 q 576 -480 557 -462 l 557 -462 q 541 -447 532 -426 q 522 -405 518 -375 q 513 -346 513 -304 l 513 -304 l 513 -206 l 459 -456 q 479 -488 506 -513 q 532 -538 569 -552 q 605 -566 653 -566 z"},"ൢ":{"ha":0,"x_min":-680,"x_max":-33,"o":"m -490 -18 l -490 -18 q -443 -18 -410 -1 q -378 15 -351 50 l -351 50 l -325 163 l -325 332 l -394 332 l -394 168 q -394 129 -400 103 q -407 77 -422 62 l -422 62 q -433 51 -449 46 q -466 40 -488 40 l -488 40 q -515 40 -540 49 q -566 58 -584 80 q -603 101 -613 137 l -613 137 q -614 146 -615 157 q -616 167 -616 177 l -616 177 q -616 239 -599 260 q -582 281 -560 281 l -560 281 q -536 281 -522 265 q -509 248 -509 214 l -509 214 q -509 181 -523 166 q -537 150 -559 150 l -559 150 q -583 150 -601 161 q -619 171 -638 192 l -638 192 l -651 146 q -626 122 -601 108 q -576 93 -547 93 l -547 93 q -497 93 -471 126 q -445 158 -445 214 l -445 214 q -445 272 -474 305 q -504 337 -559 337 l -559 337 q -615 337 -647 295 q -680 253 -680 176 l -680 176 q -680 115 -654 72 q -629 28 -586 5 q -543 -18 -490 -18 z m -220 -16 l -220 -16 q -160 -16 -118 8 q -76 32 -54 76 q -33 120 -33 179 l -33 179 q -33 261 -67 299 q -102 337 -155 337 l -155 337 q -194 337 -219 320 q -245 302 -257 274 q -270 246 -270 212 l -270 212 q -270 169 -257 141 q -244 113 -220 99 q -196 84 -164 84 l -164 84 q -134 84 -114 96 q -95 108 -81 132 q -67 155 -55 189 l -55 189 l -77 196 q -91 167 -107 154 q -123 141 -146 141 l -146 141 q -178 141 -192 162 q -207 182 -207 212 l -207 212 q -207 244 -194 262 q -181 280 -155 280 l -155 280 q -126 280 -112 255 q -98 229 -98 182 l -98 182 q -98 172 -98 159 q -99 146 -100 137 l -100 137 l -103 121 q -107 102 -121 84 q -136 65 -160 53 q -184 40 -219 40 l -219 40 q -244 40 -262 47 q -281 53 -293 65 l -293 65 q -310 83 -317 108 q -325 132 -325 177 l -325 177 l -382 117 q -376 76 -355 47 q -334 17 -299 1 q -265 -16 -220 -16 z"},"ൣ":{"ha":0,"x_min":-680,"x_max":65,"o":"m -490 -18 l -490 -18 q -443 -18 -410 -1 q -378 15 -351 50 l -351 50 l -325 162 l -325 332 l -394 332 l -394 168 q -394 129 -400 103 q -407 77 -422 62 l -422 62 q -433 51 -449 46 q -466 40 -488 40 l -488 40 q -515 40 -540 49 q -566 58 -584 80 q -603 101 -613 137 l -613 137 q -614 146 -615 157 q -616 167 -616 177 l -616 177 q -616 239 -599 260 q -582 281 -560 281 l -560 281 q -536 281 -522 265 q -509 248 -509 214 l -509 214 q -509 181 -523 166 q -537 150 -559 150 l -559 150 q -583 150 -601 161 q -619 171 -638 192 l -638 192 l -651 146 q -626 122 -601 108 q -576 93 -547 93 l -547 93 q -497 93 -471 126 q -445 158 -445 214 l -445 214 q -445 272 -474 305 q -504 337 -559 337 l -559 337 q -615 337 -647 295 q -680 253 -680 176 l -680 176 q -680 115 -654 72 q -629 28 -586 5 q -543 -18 -490 -18 z m -220 -16 l -220 -16 q -168 -16 -126 5 q -85 25 -60 68 q -36 111 -36 177 l -36 177 q -36 233 -50 269 q -65 304 -92 321 q -119 337 -155 337 l -155 337 q -194 337 -219 322 q -245 306 -257 279 q -270 252 -270 220 l -270 220 q -270 160 -233 121 q -196 82 -117 82 l -117 82 q -108 82 -96 83 q -85 84 -73 86 l -73 86 q -36 95 -4 117 q 27 139 46 174 q 65 208 65 259 l 65 259 q 65 291 59 319 q 53 346 41 366 l 41 366 l -18 341 q -10 323 -5 303 q -1 282 -1 261 l -1 261 q -1 212 -17 187 q -34 162 -61 147 l -61 147 l -80 142 q -88 140 -98 139 q -109 137 -116 137 l -116 137 q -166 137 -186 162 q -207 186 -207 221 l -207 221 q -207 250 -194 265 q -182 280 -156 280 l -156 280 q -128 280 -114 254 q -101 228 -101 176 l -101 176 q -101 160 -102 145 q -104 129 -109 115 l -109 115 l -114 99 q -122 81 -137 68 q -152 55 -172 48 q -193 40 -219 40 l -219 40 q -244 40 -262 47 q -281 53 -293 65 l -293 65 q -310 83 -317 108 q -325 132 -325 177 l -325 177 l -382 117 q -378 87 -365 62 q -352 37 -331 20 q -310 3 -282 -6 q -254 -16 -220 -16 z"},"൦":{"ha":484,"x_min":38,"x_max":445,"o":"m 242 -43 l 242 -43 q 179 -43 134 -71 q 88 -99 63 -152 q 38 -206 38 -283 l 38 -283 q 38 -359 64 -412 q 90 -465 136 -493 q 181 -521 241 -521 l 241 -521 q 303 -521 349 -493 q 395 -466 420 -413 q 445 -360 445 -283 l 445 -283 q 445 -206 420 -152 q 394 -99 348 -71 q 302 -43 242 -43 z m 242 -112 l 242 -112 q 276 -112 303 -129 q 330 -147 346 -184 q 362 -222 362 -283 l 362 -283 q 362 -373 328 -412 q 293 -452 241 -452 l 241 -452 q 190 -452 156 -412 q 121 -373 121 -280 l 121 -280 q 121 -193 156 -152 q 191 -112 242 -112 z"},"൧":{"ha":750,"x_min":11,"x_max":694,"o":"m 324 132 l 324 201 l 215 201 q 163 201 128 194 q 92 186 66 171 l 66 171 q 40 154 26 129 q 11 103 11 69 l 11 69 q 11 34 24 7 q 37 -20 63 -38 l 63 -38 q 78 -48 96 -54 q 114 -60 139 -63 q 164 -67 199 -67 l 199 -67 l 370 -67 l 376 0 l 215 0 q 175 0 157 3 q 138 5 124 12 l 124 12 q 108 19 101 33 q 93 46 93 63 l 93 63 q 93 95 117 113 l 117 113 q 130 123 154 128 q 178 132 217 132 l 217 132 l 324 132 z m 488 -566 l 488 -566 q 539 -566 576 -552 q 612 -538 636 -514 l 636 -514 q 670 -481 682 -433 q 694 -385 694 -317 l 694 -317 l 694 0 l 285 0 l 285 -318 q 285 -364 290 -399 q 295 -435 308 -463 q 320 -492 342 -514 l 342 -514 q 367 -538 403 -552 q 439 -566 488 -566 z m 489 -497 l 489 -497 q 458 -497 436 -487 q 414 -478 400 -462 l 400 -462 q 382 -440 374 -403 q 366 -367 366 -306 l 366 -306 l 366 -67 l 613 -67 l 613 -303 q 613 -365 605 -402 q 596 -440 578 -462 l 578 -462 q 563 -478 542 -487 q 520 -497 489 -497 z"},"൨":{"ha":713,"x_min":37,"x_max":697,"o":"m 286 -566 l 286 -566 q 348 -566 394 -544 q 439 -523 470 -485 q 500 -448 515 -397 q 529 -346 529 -287 l 529 -287 q 529 -234 518 -191 q 507 -148 490 -114 q 472 -80 449 -52 l 449 -52 l 439 -67 l 697 -67 l 697 0 l 392 0 l 355 -56 q 378 -76 399 -107 q 419 -138 432 -180 q 444 -223 444 -278 l 444 -278 q 444 -348 425 -396 q 406 -445 370 -471 q 334 -497 284 -497 l 284 -497 q 234 -497 198 -470 q 161 -443 141 -394 q 121 -346 121 -279 l 121 -279 q 121 -226 133 -183 q 145 -140 168 -106 q 190 -73 219 -49 l 219 -49 l 165 8 q 130 -19 101 -60 q 72 -102 55 -158 q 37 -214 37 -285 l 37 -285 q 37 -345 53 -396 q 68 -448 100 -485 q 131 -523 178 -544 q 224 -566 286 -566 z"},"൩":{"ha":895,"x_min":37,"x_max":878,"o":"m 242 -566 l 242 -566 q 280 -566 307 -553 q 333 -540 353 -519 q 372 -499 386 -473 l 386 -473 l 373 -475 q 401 -524 436 -545 q 470 -566 520 -566 l 520 -566 q 584 -566 629 -531 q 674 -497 698 -437 q 721 -378 721 -301 l 721 -301 q 721 -243 712 -198 q 702 -153 684 -117 q 666 -82 643 -51 l 643 -51 l 616 0 l 585 0 l 549 -47 q 572 -77 592 -111 q 612 -145 625 -190 q 638 -235 638 -298 l 638 -298 q 638 -356 623 -400 q 608 -445 581 -471 q 554 -497 518 -497 l 518 -497 q 495 -497 478 -488 q 460 -480 448 -463 l 448 -463 q 432 -445 426 -412 q 420 -379 420 -320 l 420 -320 l 420 0 l 338 0 l 338 -316 q 338 -377 332 -410 q 326 -443 311 -463 l 311 -463 q 299 -479 283 -488 q 266 -497 243 -497 l 243 -497 q 208 -497 181 -472 q 153 -447 137 -402 q 121 -357 121 -296 l 121 -296 q 121 -234 135 -187 q 148 -141 170 -107 q 192 -73 217 -47 l 217 -47 l 156 8 q 123 -28 96 -70 q 69 -113 53 -169 q 37 -225 37 -298 l 37 -298 q 37 -379 62 -439 q 86 -499 132 -532 q 178 -566 242 -566 z m 597 0 l 644 -67 l 878 -67 l 878 0 l 597 0 z"},"൪":{"ha":663,"x_min":37,"x_max":658,"o":"m 303 -566 l 303 -566 q 368 -566 414 -543 q 460 -520 496 -483 l 496 -483 q 542 -435 568 -367 q 594 -300 594 -219 l 594 -219 q 594 -138 573 -87 q 551 -36 511 -12 q 471 12 414 12 l 414 12 q 357 12 319 -12 q 281 -37 263 -79 q 244 -122 244 -176 l 244 -176 q 244 -236 265 -285 q 286 -335 330 -381 q 374 -427 443 -476 l 443 -476 q 492 -509 521 -531 q 550 -554 562 -574 q 574 -594 574 -620 l 574 -620 q 574 -642 567 -660 q 559 -678 548 -695 l 548 -695 l 624 -730 q 641 -707 650 -681 q 658 -656 658 -626 l 658 -626 q 658 -579 638 -546 q 617 -514 579 -485 q 541 -456 488 -421 l 488 -421 q 433 -382 398 -345 q 362 -308 344 -267 q 326 -227 326 -177 l 326 -177 q 326 -114 351 -84 q 375 -55 414 -55 l 414 -55 q 446 -55 467 -71 q 488 -87 499 -122 q 509 -158 509 -215 l 509 -215 q 509 -278 492 -336 q 475 -395 438 -436 l 438 -436 q 415 -464 382 -480 q 348 -497 307 -497 l 307 -497 q 249 -497 207 -470 q 165 -444 143 -395 q 121 -347 121 -279 l 121 -279 q 121 -224 133 -181 q 145 -138 168 -105 q 190 -73 219 -49 l 219 -49 l 165 8 q 130 -20 101 -61 q 72 -103 55 -158 q 37 -214 37 -285 l 37 -285 q 37 -341 53 -392 q 69 -443 102 -482 q 135 -521 185 -543 q 235 -566 303 -566 z"},"൫":{"ha":824,"x_min":43,"x_max":781,"o":"m 420 -723 l 420 -723 q 511 -723 579 -690 q 647 -658 692 -598 q 737 -539 759 -458 q 781 -377 781 -280 l 781 -280 q 781 -207 768 -134 q 754 -61 721 10 l 721 10 l 645 -21 q 664 -60 676 -104 q 687 -148 693 -194 q 699 -240 699 -284 l 699 -284 q 699 -361 682 -428 q 665 -495 631 -545 q 597 -595 545 -623 q 493 -652 420 -652 l 420 -652 q 329 -652 263 -603 q 197 -555 161 -466 q 125 -377 125 -254 l 125 -254 q 125 -182 138 -116 q 150 -51 177 -1 q 204 49 250 78 q 295 107 360 107 l 360 107 q 443 107 484 64 q 525 20 525 -60 l 525 -60 q 525 -103 512 -138 q 499 -174 471 -195 q 443 -217 398 -217 l 398 -217 l 388 -217 l 388 -285 l 401 -285 q 432 -285 454 -291 q 476 -297 491 -312 l 491 -312 q 504 -324 510 -340 q 515 -357 515 -380 l 515 -380 q 515 -424 491 -448 q 467 -473 425 -473 l 425 -473 q 380 -473 352 -446 q 323 -420 310 -375 q 296 -331 296 -276 l 296 -276 q 296 -213 313 -147 q 330 -82 366 -29 l 366 -29 l 293 9 q 255 -57 235 -126 q 214 -196 214 -276 l 214 -276 q 214 -355 240 -415 q 266 -475 314 -509 q 361 -543 427 -543 l 427 -543 q 485 -543 523 -522 q 561 -501 579 -466 q 597 -431 597 -390 l 597 -390 q 597 -356 588 -328 q 578 -300 556 -279 q 533 -259 493 -245 l 493 -245 l 490 -253 q 548 -230 578 -179 q 607 -128 607 -60 l 607 -60 q 607 17 577 71 q 547 124 493 151 q 438 178 361 178 l 361 178 q 264 178 193 128 q 121 78 82 -18 q 43 -114 43 -252 l 43 -252 q 43 -371 73 -459 q 103 -547 155 -606 q 207 -665 276 -694 q 344 -723 420 -723 z"},"൬":{"ha":1012,"x_min":36,"x_max":970,"o":"m 502 -566 l 502 -566 q 554 -566 588 -543 q 621 -521 643 -479 l 643 -479 l 678 -300 l 678 0 l 597 0 l 597 -330 q 597 -381 593 -412 q 588 -444 574 -464 l 574 -464 q 563 -480 546 -488 q 528 -497 502 -497 l 502 -497 q 479 -497 462 -488 q 445 -479 434 -463 l 434 -463 q 419 -441 413 -408 q 407 -376 407 -326 l 407 -326 l 407 0 l 326 0 l 326 -319 q 326 -371 322 -405 q 317 -439 301 -462 l 301 -462 q 290 -479 274 -488 q 258 -497 235 -497 l 235 -497 q 202 -497 176 -473 q 150 -449 135 -403 q 120 -358 120 -296 l 120 -296 q 120 -234 134 -187 q 147 -141 169 -107 q 191 -73 216 -47 l 216 -47 l 155 8 q 122 -28 95 -71 q 67 -114 52 -169 q 36 -225 36 -298 l 36 -298 q 36 -379 60 -439 q 83 -499 127 -532 q 171 -566 232 -566 l 232 -566 q 285 -566 318 -543 q 350 -520 373 -478 l 373 -478 l 361 -479 q 386 -524 421 -545 q 456 -566 502 -566 z m 774 -566 l 774 -566 q 868 -566 919 -486 q 970 -406 970 -228 l 970 -228 q 970 -81 938 14 q 905 109 839 155 q 772 201 665 201 l 665 201 q 645 201 620 200 q 595 198 575 193 l 575 193 l 583 124 q 601 128 621 130 q 640 131 662 131 l 662 131 q 727 131 771 107 q 814 83 839 37 q 864 -9 875 -75 q 886 -142 886 -227 l 886 -227 q 886 -321 872 -380 q 858 -440 832 -468 q 806 -497 771 -497 l 771 -497 q 748 -497 732 -488 q 716 -480 705 -464 l 705 -464 q 689 -442 684 -407 q 678 -373 678 -318 l 678 -318 l 678 -10 l 605 -10 l 605 -332 l 631 -477 q 658 -525 693 -545 q 727 -566 774 -566 z"},"൭":{"ha":625,"x_min":38,"x_max":583,"o":"m 314 -566 l 314 -566 q 383 -566 434 -541 q 484 -517 517 -471 q 550 -425 567 -358 q 583 -292 583 -206 l 583 -206 q 583 -105 564 -28 q 545 48 507 99 q 469 150 411 176 q 352 201 273 201 l 273 201 q 248 201 224 200 q 199 198 174 193 l 174 193 l 181 124 q 200 127 222 129 q 244 131 271 131 l 271 131 q 336 131 380 108 q 423 84 449 40 q 475 -5 487 -67 q 499 -130 499 -208 l 499 -208 q 499 -349 451 -423 q 403 -497 312 -497 l 312 -497 q 253 -497 209 -463 q 164 -429 139 -371 q 114 -314 114 -241 l 114 -241 l 114 -220 q 114 -163 126 -126 q 137 -90 157 -73 q 176 -56 202 -56 l 202 -56 q 222 -56 236 -67 q 250 -78 259 -100 q 267 -122 267 -157 l 267 -157 q 267 -211 247 -235 q 227 -259 192 -259 l 192 -259 q 164 -259 140 -245 q 116 -231 92 -203 l 92 -203 l 68 -254 q 93 -283 130 -305 q 167 -327 209 -327 l 209 -327 q 252 -327 283 -308 q 313 -290 330 -253 q 346 -216 346 -161 l 346 -161 q 346 -104 329 -65 q 312 -26 280 -7 q 248 12 203 12 l 203 12 q 158 12 121 -12 q 83 -37 61 -92 q 38 -147 38 -236 l 38 -236 q 38 -344 74 -417 q 110 -491 174 -528 q 237 -566 314 -566 z"},"൮":{"ha":800,"x_min":37,"x_max":738,"o":"m 286 -566 l 286 -566 q 348 -566 394 -544 q 439 -523 470 -485 q 500 -448 515 -397 q 529 -346 529 -287 l 529 -287 q 529 -234 518 -191 q 507 -148 490 -114 q 472 -80 449 -52 l 449 -52 l 439 -67 l 657 -67 l 657 -554 l 738 -554 l 738 -147 l 677 0 l 392 0 l 355 -56 q 378 -76 399 -107 q 419 -138 432 -180 q 444 -223 444 -278 l 444 -278 q 444 -348 425 -396 q 406 -445 370 -471 q 334 -497 284 -497 l 284 -497 q 234 -497 198 -470 q 161 -443 141 -394 q 121 -346 121 -279 l 121 -279 q 121 -226 133 -183 q 145 -140 168 -106 q 190 -73 219 -49 l 219 -49 l 165 8 q 130 -19 101 -60 q 72 -102 55 -158 q 37 -214 37 -285 l 37 -285 q 37 -345 53 -396 q 68 -448 100 -485 q 131 -523 178 -544 q 224 -566 286 -566 z m 463 201 l 463 201 q 438 201 413 199 q 387 196 365 190 l 365 190 l 374 121 q 391 125 415 128 q 438 131 462 131 l 462 131 q 521 131 558 118 q 595 104 616 80 q 637 55 646 21 q 655 -14 657 -55 l 657 -55 l 738 -188 l 738 -112 q 738 -45 731 3 q 724 50 708 83 q 692 116 665 142 l 665 142 q 633 170 582 186 q 531 201 463 201 z"},"൯":{"ha":927,"x_min":37,"x_max":923,"o":"m 242 -566 l 242 -566 q 279 -566 308 -554 q 336 -542 357 -520 q 378 -499 393 -471 l 393 -471 l 420 -238 l 420 0 l 338 0 l 338 -313 q 338 -377 332 -410 q 326 -443 311 -463 l 311 -463 q 299 -479 283 -488 q 266 -497 243 -497 l 243 -497 q 208 -497 181 -472 q 153 -447 137 -401 q 121 -356 121 -296 l 121 -296 q 121 -234 135 -187 q 148 -141 170 -107 q 192 -73 217 -47 l 217 -47 l 156 8 q 123 -28 96 -70 q 69 -113 53 -169 q 37 -225 37 -298 l 37 -298 q 37 -378 62 -438 q 86 -498 132 -532 q 178 -566 242 -566 z m 560 -566 l 560 -566 q 625 -566 675 -543 q 724 -521 761 -482 l 761 -482 q 807 -434 833 -365 q 859 -297 859 -219 l 859 -219 q 859 -138 838 -87 q 816 -36 776 -12 q 736 12 679 12 l 679 12 q 622 12 585 -12 q 547 -37 528 -79 q 509 -122 509 -176 l 509 -176 q 509 -236 531 -285 q 552 -335 596 -381 q 640 -427 708 -476 l 708 -476 q 758 -509 787 -531 q 815 -554 828 -574 q 840 -594 840 -620 l 840 -620 q 840 -642 832 -660 q 824 -678 813 -695 l 813 -695 l 890 -730 q 907 -707 915 -681 q 923 -656 923 -626 l 923 -626 q 923 -579 903 -546 q 882 -514 845 -485 q 807 -456 753 -421 l 753 -421 q 699 -382 664 -345 q 628 -308 610 -267 q 592 -227 592 -177 l 592 -177 q 592 -114 616 -84 q 640 -55 680 -55 l 680 -55 q 711 -55 733 -71 q 754 -87 765 -122 q 775 -158 775 -215 l 775 -215 q 775 -278 758 -335 q 740 -393 703 -435 l 703 -435 q 678 -464 642 -480 q 605 -497 563 -497 l 563 -497 q 523 -497 499 -487 q 475 -477 459 -459 l 459 -459 q 445 -443 436 -422 q 427 -401 424 -372 q 420 -344 420 -303 l 420 -303 l 420 -77 l 348 -77 l 348 -296 l 366 -449 q 384 -485 411 -511 q 437 -538 474 -552 q 511 -566 560 -566 z"},"൰":{"ha":889,"x_min":-24,"x_max":852,"o":"m 190 -554 l 271 -554 l 271 -141 l 267 -96 q 267 -19 258 33 q 249 85 223 123 l 223 123 q 198 160 155 181 q 112 201 49 201 l 49 201 q 32 201 13 200 q -6 198 -24 193 l -24 193 l -18 124 q -5 127 10 129 q 24 131 41 131 l 41 131 q 83 131 111 118 q 138 105 154 84 l 154 84 q 176 56 183 13 q 190 -30 190 -96 l 190 -96 l 190 -554 z m 648 12 l 648 12 q 598 12 565 -10 q 531 -32 505 -77 l 505 -77 l 514 -77 q 490 -32 455 -10 q 419 12 370 12 l 370 12 q 333 12 306 0 q 279 -12 261 -34 q 242 -57 228 -89 l 228 -89 l 212 -258 l 212 -536 l 271 -536 l 271 -228 q 271 -170 276 -140 q 281 -110 295 -90 l 295 -90 q 306 -75 324 -66 q 342 -57 370 -57 l 370 -57 q 397 -57 414 -66 q 430 -76 442 -91 l 442 -91 q 459 -114 464 -145 q 469 -177 469 -232 l 469 -232 l 469 -554 l 550 -554 l 550 -233 q 550 -176 557 -142 q 563 -109 578 -91 l 578 -91 q 591 -74 609 -65 q 626 -57 648 -57 l 648 -57 q 684 -57 711 -83 q 738 -109 753 -154 q 768 -199 768 -256 l 768 -256 q 768 -318 755 -365 q 741 -412 719 -447 q 696 -482 671 -507 l 671 -507 l 732 -562 q 765 -527 793 -484 q 820 -441 836 -385 q 852 -329 852 -253 l 852 -253 q 852 -177 828 -117 q 804 -57 759 -22 q 714 12 648 12 z"},"൱":{"ha":759,"x_min":37,"x_max":717,"o":"m 242 -566 l 242 -566 q 280 -566 307 -553 q 333 -540 353 -519 q 372 -499 386 -473 l 386 -473 l 420 -238 l 420 0 l 338 0 l 338 -313 q 338 -377 332 -410 q 326 -443 311 -463 l 311 -463 q 299 -479 283 -488 q 266 -497 243 -497 l 243 -497 q 208 -497 181 -472 q 153 -447 137 -402 q 121 -357 121 -296 l 121 -296 q 121 -234 135 -187 q 148 -141 170 -107 q 192 -73 217 -47 l 217 -47 l 156 8 q 123 -28 96 -70 q 69 -113 53 -169 q 37 -225 37 -298 l 37 -298 q 37 -379 62 -439 q 86 -499 132 -532 q 178 -566 242 -566 z m 517 -566 l 517 -566 q 580 -566 625 -532 q 669 -498 693 -423 q 717 -349 717 -228 l 717 -228 q 717 -80 685 15 q 652 109 585 155 q 517 201 412 201 l 412 201 q 388 201 363 200 q 338 198 313 193 l 313 193 l 321 124 q 340 127 362 129 q 383 131 410 131 l 410 131 q 474 131 517 107 q 560 83 586 37 q 611 -9 622 -75 q 633 -142 633 -228 l 633 -228 q 633 -324 619 -383 q 604 -442 578 -469 q 551 -497 515 -497 l 515 -497 q 494 -497 477 -489 q 460 -481 448 -464 l 448 -464 q 433 -445 427 -412 q 420 -380 420 -321 l 420 -321 l 420 -10 l 347 -10 l 347 -316 l 374 -477 q 401 -523 436 -544 q 470 -566 517 -566 z"},"൲":{"ha":1174,"x_min":37,"x_max":1154,"o":"m 1015 -554 l 1015 -554 q 1064 -554 1095 -534 q 1125 -515 1140 -483 q 1154 -452 1154 -414 l 1154 -414 q 1154 -376 1141 -345 q 1127 -314 1101 -295 l 1101 -295 q 1083 -282 1062 -274 q 1041 -266 1013 -262 q 985 -259 948 -259 l 948 -259 l 802 -259 l 806 -327 l 959 -327 q 998 -327 1018 -333 q 1037 -339 1050 -350 l 1050 -350 q 1063 -360 1069 -376 q 1075 -393 1075 -415 l 1075 -415 q 1075 -448 1060 -468 q 1044 -488 1014 -488 l 1014 -488 q 981 -488 964 -465 q 946 -442 946 -404 l 946 -404 q 946 -366 958 -338 q 969 -310 985 -287 l 985 -287 l 910 -281 q 894 -307 882 -340 q 870 -373 870 -413 l 870 -413 q 870 -458 889 -489 q 907 -521 940 -537 q 973 -554 1015 -554 z m 242 -566 l 242 -566 q 280 -566 307 -554 q 334 -542 355 -520 q 376 -499 395 -467 l 395 -467 l 420 -238 l 420 0 l 338 0 l 338 -313 q 338 -377 332 -410 q 326 -443 311 -463 l 311 -463 q 299 -479 283 -488 q 266 -497 243 -497 l 243 -497 q 208 -497 181 -472 q 153 -447 137 -402 q 121 -357 121 -296 l 121 -296 q 121 -234 135 -187 q 148 -141 170 -107 q 192 -73 217 -47 l 217 -47 l 156 8 q 123 -28 96 -70 q 69 -113 53 -169 q 37 -225 37 -298 l 37 -298 q 37 -379 62 -439 q 86 -499 132 -532 q 178 -566 242 -566 z m 558 -566 l 558 -566 q 617 -566 665 -545 q 712 -524 746 -483 q 780 -442 798 -380 q 816 -318 816 -236 l 816 -236 q 816 -143 793 -88 q 770 -34 731 -11 q 692 12 641 12 l 641 12 q 587 12 553 -10 q 518 -33 502 -68 q 486 -104 486 -144 l 486 -144 q 486 -197 504 -231 q 522 -265 552 -286 l 552 -286 q 575 -301 601 -310 q 626 -319 663 -323 q 699 -327 752 -327 l 752 -327 l 937 -327 l 937 -259 l 753 -259 q 692 -259 660 -252 q 627 -246 603 -229 l 603 -229 q 586 -217 576 -196 q 566 -175 566 -144 l 566 -144 q 566 -103 586 -79 q 605 -55 641 -55 l 641 -55 q 672 -55 693 -73 q 714 -92 725 -132 q 736 -173 736 -239 l 736 -239 q 736 -256 736 -270 q 735 -285 733 -298 l 733 -298 l 732 -315 q 725 -364 704 -405 q 682 -446 646 -471 q 610 -497 559 -497 l 559 -497 q 530 -497 508 -490 q 485 -483 467 -467 l 467 -467 q 450 -453 440 -432 q 429 -412 425 -383 q 420 -354 420 -315 l 420 -315 l 420 -206 l 368 -211 l 365 -458 q 385 -491 412 -515 q 438 -539 474 -552 q 509 -566 558 -566 z"},"൳":{"ha":643,"x_min":37,"x_max":621,"o":"m 200 12 l 200 12 q 155 12 118 -12 q 81 -36 59 -87 q 37 -138 37 -218 l 37 -218 q 37 -299 62 -357 q 86 -415 136 -452 l 136 -452 q 168 -475 206 -490 q 244 -505 296 -512 q 347 -519 417 -519 l 417 -519 l 621 -519 l 621 -448 l 437 -448 q 364 -448 318 -442 q 271 -437 241 -426 q 210 -415 187 -398 l 187 -398 q 154 -374 138 -339 q 122 -304 115 -262 l 115 -262 l 115 -249 q 114 -240 114 -231 q 114 -222 114 -209 l 114 -209 q 114 -157 125 -123 q 135 -89 155 -72 q 174 -56 201 -56 l 201 -56 q 221 -56 236 -66 q 250 -77 258 -99 q 266 -122 266 -157 l 266 -157 q 266 -211 246 -235 q 226 -259 192 -259 l 192 -259 q 163 -259 139 -245 q 115 -231 91 -203 l 91 -203 l 78 -265 q 102 -289 137 -308 q 171 -327 209 -327 l 209 -327 q 251 -327 282 -308 q 312 -290 329 -253 q 346 -216 346 -161 l 346 -161 q 346 -104 329 -65 q 311 -26 279 -7 q 247 12 200 12 z"},"൴":{"ha":769,"x_min":37,"x_max":733,"o":"m 403 -792 l 484 -792 l 484 -204 q 484 -174 486 -152 q 488 -130 492 -114 q 496 -98 502 -86 l 502 -86 q 512 -70 528 -62 q 543 -55 564 -55 l 564 -55 q 594 -55 613 -73 q 632 -91 641 -126 q 649 -161 649 -212 l 649 -212 q 649 -267 638 -314 q 626 -361 603 -398 q 579 -435 543 -459 q 507 -484 458 -494 l 458 -494 l 426 -495 q 417 -497 407 -497 q 396 -498 386 -498 l 386 -498 q 324 -498 274 -479 q 224 -460 188 -425 q 152 -390 133 -342 q 114 -295 114 -236 l 114 -236 l 114 -217 q 114 -162 125 -126 q 135 -90 155 -73 q 175 -56 201 -56 l 201 -56 q 221 -56 236 -66 q 250 -77 258 -99 q 266 -122 266 -157 l 266 -157 q 266 -211 246 -235 q 226 -259 192 -259 l 192 -259 q 163 -259 139 -245 q 115 -231 91 -203 l 91 -203 l 78 -265 q 102 -289 137 -308 q 171 -327 209 -327 l 209 -327 q 251 -327 282 -308 q 312 -290 329 -253 q 346 -216 346 -161 l 346 -161 q 346 -104 329 -65 q 311 -26 279 -7 q 247 12 201 12 l 201 12 q 157 12 120 -12 q 82 -37 60 -89 q 37 -142 37 -226 l 37 -226 q 37 -304 60 -366 q 83 -429 129 -474 q 174 -519 239 -542 q 304 -566 388 -566 l 388 -566 q 399 -566 409 -566 q 419 -566 428 -564 l 428 -564 l 464 -562 q 523 -553 573 -526 q 622 -499 658 -454 q 694 -410 714 -349 q 733 -288 733 -211 l 733 -211 q 733 -142 714 -92 q 695 -42 658 -15 q 621 12 565 12 l 565 12 q 525 12 497 1 q 468 -11 449 -32 l 449 -32 q 431 -52 421 -76 q 411 -101 407 -136 q 403 -171 403 -222 l 403 -222 l 403 -792 z"},"൵":{"ha":1021,"x_min":39,"x_max":1016,"o":"m 301 -566 l 301 -566 q 370 -566 412 -540 q 454 -515 486 -465 l 486 -465 l 499 -410 l 513 -254 l 513 0 l 432 0 l 432 -320 q 432 -376 424 -408 q 416 -441 397 -462 l 397 -462 q 381 -479 359 -488 q 336 -497 302 -497 l 302 -497 q 245 -497 204 -464 q 162 -432 139 -375 q 116 -319 116 -247 l 116 -247 l 116 -224 q 116 -164 127 -127 q 138 -90 158 -73 q 177 -56 203 -56 l 203 -56 q 223 -56 238 -66 q 252 -77 260 -99 q 268 -121 268 -157 l 268 -157 q 268 -211 249 -235 q 229 -259 194 -259 l 194 -259 q 164 -259 139 -244 q 113 -229 89 -199 l 89 -199 l 69 -254 q 94 -283 132 -305 q 169 -327 211 -327 l 211 -327 q 253 -327 284 -308 q 314 -290 331 -253 q 348 -216 348 -161 l 348 -161 q 348 -104 331 -65 q 313 -26 281 -7 q 249 12 204 12 l 204 12 q 159 12 122 -13 q 84 -38 62 -93 q 39 -149 39 -241 l 39 -241 q 39 -351 74 -423 q 109 -495 168 -530 q 227 -566 301 -566 z m 653 -566 l 653 -566 q 717 -566 767 -543 q 817 -521 854 -482 l 854 -482 q 900 -434 926 -365 q 952 -297 952 -219 l 952 -219 q 952 -138 931 -87 q 909 -36 869 -12 q 829 12 772 12 l 772 12 q 715 12 678 -12 q 640 -37 621 -79 q 602 -122 602 -176 l 602 -176 q 602 -236 624 -285 q 645 -335 689 -381 q 733 -427 801 -476 l 801 -476 q 851 -509 880 -531 q 908 -554 921 -574 q 933 -594 933 -620 l 933 -620 q 933 -642 925 -660 q 917 -678 906 -695 l 906 -695 l 982 -730 q 999 -707 1008 -681 q 1016 -656 1016 -626 l 1016 -626 q 1016 -579 996 -546 q 975 -514 938 -485 q 900 -456 846 -421 l 846 -421 q 792 -382 756 -345 q 720 -308 703 -267 q 685 -227 685 -177 l 685 -177 q 685 -114 709 -84 q 733 -55 773 -55 l 773 -55 q 804 -55 826 -71 q 847 -87 858 -122 q 868 -158 868 -215 l 868 -215 q 868 -278 850 -335 q 832 -393 796 -435 l 796 -435 q 771 -464 735 -480 q 698 -497 656 -497 l 656 -497 q 616 -497 592 -487 q 568 -477 552 -459 l 552 -459 q 538 -443 529 -422 q 520 -401 517 -372 q 513 -344 513 -303 l 513 -303 l 513 -77 l 441 -77 l 441 -296 l 459 -449 q 477 -485 504 -511 q 530 -538 567 -552 q 603 -566 653 -566 z"},"൶":{"ha":1143,"x_min":31,"x_max":1089,"o":"m 197 -346 l 197 -346 q 254 -346 291 -321 q 327 -297 345 -258 q 363 -220 363 -177 l 363 -177 q 363 -134 350 -102 q 337 -71 323 -57 l 323 -57 l 307 -67 l 608 -67 l 609 0 l 275 0 l 244 -52 q 260 -73 272 -100 q 283 -127 283 -166 l 283 -166 q 283 -218 261 -248 q 239 -279 197 -279 l 197 -279 q 171 -279 151 -265 q 131 -251 121 -227 q 110 -203 110 -171 l 110 -171 q 110 -131 124 -100 q 138 -70 162 -41 l 162 -41 l 109 7 q 77 -27 54 -71 q 31 -115 31 -171 l 31 -171 q 31 -225 52 -264 q 73 -303 111 -324 q 148 -346 197 -346 z m 832 -566 l 832 -566 q 897 -566 945 -548 q 992 -531 1023 -498 l 1023 -498 q 1046 -473 1061 -442 q 1075 -411 1082 -370 q 1089 -329 1089 -274 l 1089 -274 l 1089 0 l 587 0 l 587 -277 q 587 -330 594 -370 q 601 -411 616 -442 q 630 -474 651 -497 l 651 -497 q 683 -531 726 -548 q 769 -566 832 -566 z m 788 -498 l 788 -498 q 758 -498 734 -478 q 709 -458 694 -423 l 694 -423 q 681 -395 675 -355 q 668 -316 668 -257 l 668 -257 l 668 -62 l 669 -64 q 722 -115 762 -172 q 802 -230 825 -289 q 847 -349 847 -406 l 847 -406 q 847 -434 841 -454 q 835 -475 823 -486 q 810 -498 788 -498 z m 929 -396 l 929 -396 q 929 -333 908 -274 q 886 -216 847 -159 q 807 -103 753 -45 l 753 -45 l 744 -62 q 766 -64 795 -65 q 824 -67 844 -67 l 844 -67 l 1008 -67 l 1008 -270 q 1008 -338 996 -384 q 984 -430 958 -458 q 932 -486 889 -498 l 889 -498 l 890 -504 q 908 -483 919 -456 q 929 -430 929 -396 z"},"൷":{"ha":1441,"x_min":31,"x_max":1421,"o":"m 197 -346 l 197 -346 q 254 -346 291 -321 q 327 -297 345 -258 q 363 -220 363 -177 l 363 -177 q 363 -134 350 -102 q 337 -71 323 -57 l 323 -57 l 306 -67 l 571 -67 l 590 0 l 275 0 l 245 -52 q 261 -73 272 -100 q 283 -127 283 -165 l 283 -165 q 283 -218 261 -248 q 239 -279 197 -279 l 197 -279 q 171 -279 151 -265 q 131 -251 121 -227 q 110 -203 110 -171 l 110 -171 q 110 -131 124 -100 q 138 -70 162 -41 l 162 -41 l 109 7 q 77 -27 54 -71 q 31 -115 31 -172 l 31 -172 q 31 -225 52 -264 q 73 -303 111 -324 q 148 -346 197 -346 z m 667 -566 l 667 -566 q 705 -566 732 -554 q 759 -542 780 -520 q 801 -499 820 -467 l 820 -467 l 844 -277 l 844 -230 l 763 -230 l 763 -313 q 763 -377 757 -410 q 751 -443 736 -463 l 736 -463 q 723 -479 707 -488 q 690 -497 667 -497 l 667 -497 q 633 -497 606 -472 q 578 -448 562 -404 q 545 -361 545 -301 l 545 -301 q 545 -216 571 -155 q 596 -95 635 -46 l 635 -46 l 599 0 l 561 0 l 540 -50 q 516 -85 499 -122 q 481 -159 472 -204 q 462 -249 462 -305 l 462 -305 q 462 -383 487 -441 q 511 -500 557 -533 q 603 -566 667 -566 z m 983 -566 l 983 -566 q 1041 -566 1089 -545 q 1137 -524 1171 -482 q 1205 -440 1223 -378 q 1241 -317 1241 -236 l 1241 -236 q 1241 -142 1218 -88 q 1195 -34 1156 -11 q 1117 12 1066 12 l 1066 12 q 1011 12 977 -10 q 943 -33 927 -68 q 910 -104 910 -144 l 910 -144 q 910 -197 929 -231 q 947 -265 977 -286 l 977 -286 q 999 -301 1025 -310 q 1050 -319 1087 -323 q 1123 -327 1174 -327 l 1174 -327 l 1204 -327 l 1204 -259 l 1178 -259 q 1117 -259 1084 -252 q 1051 -246 1028 -229 l 1028 -229 q 1011 -217 1001 -196 q 991 -175 991 -144 l 991 -144 q 991 -103 1011 -79 q 1030 -55 1066 -55 l 1066 -55 q 1097 -55 1118 -73 q 1139 -92 1150 -132 q 1161 -173 1161 -239 l 1161 -239 q 1161 -256 1160 -270 q 1159 -285 1158 -298 l 1158 -298 l 1156 -315 q 1149 -364 1128 -405 q 1107 -446 1071 -471 q 1035 -497 983 -497 l 983 -497 q 955 -497 932 -490 q 909 -483 891 -467 l 891 -467 q 875 -453 865 -432 q 854 -412 849 -383 q 844 -354 844 -315 l 844 -315 l 844 -251 l 793 -254 l 789 -458 q 810 -491 836 -515 q 862 -539 898 -552 q 934 -566 983 -566 z m 1332 -447 l 1411 -462 q 1416 -450 1419 -435 q 1421 -421 1421 -403 l 1421 -403 q 1421 -367 1407 -339 q 1393 -312 1368 -294 l 1368 -294 q 1340 -275 1304 -267 q 1268 -259 1214 -259 l 1214 -259 l 1198 -259 l 1198 -327 l 1210 -327 q 1245 -327 1267 -330 q 1289 -334 1305 -342 l 1305 -342 q 1322 -350 1331 -366 q 1339 -382 1339 -406 l 1339 -406 q 1339 -415 1337 -427 q 1335 -439 1332 -447 l 1332 -447 z"},"൸":{"ha":1809,"x_min":10,"x_max":1755,"o":"m 1166 -566 l 1166 -566 q 1195 -566 1218 -558 q 1241 -551 1260 -536 q 1278 -521 1292 -499 q 1306 -478 1316 -450 l 1316 -450 l 1286 -445 q 1308 -489 1339 -515 q 1369 -542 1409 -554 q 1449 -566 1498 -566 l 1498 -566 q 1564 -566 1612 -548 q 1659 -531 1689 -498 l 1689 -498 q 1712 -473 1727 -442 q 1742 -411 1749 -370 q 1755 -329 1755 -274 l 1755 -274 l 1755 0 l 1337 0 l 1337 -65 q 1388 -115 1428 -172 q 1468 -230 1491 -289 q 1513 -349 1513 -406 l 1513 -406 q 1513 -434 1508 -454 q 1502 -475 1489 -486 q 1476 -498 1454 -498 l 1454 -498 q 1423 -498 1399 -478 q 1375 -458 1361 -425 l 1361 -425 q 1348 -393 1343 -355 q 1338 -317 1338 -257 l 1338 -257 l 1338 -230 l 1256 -230 l 1256 -335 q 1256 -386 1252 -418 q 1247 -451 1231 -471 l 1231 -471 q 1221 -484 1205 -490 q 1189 -497 1169 -497 l 1169 -497 q 1151 -497 1135 -490 q 1119 -484 1109 -471 l 1109 -471 q 1093 -451 1088 -418 q 1083 -385 1083 -332 l 1083 -332 l 1083 -219 q 1083 -167 1078 -131 q 1072 -95 1062 -72 q 1051 -49 1035 -33 l 1035 -33 q 1014 -10 985 1 q 956 12 914 12 l 914 12 q 874 12 845 1 q 816 -10 794 -32 l 794 -32 q 779 -49 769 -72 q 758 -96 752 -131 q 746 -166 746 -218 l 746 -218 l 746 -335 q 746 -386 742 -418 q 737 -451 721 -471 l 721 -471 q 711 -484 695 -490 q 679 -497 660 -497 l 660 -497 q 641 -497 625 -490 q 609 -484 599 -471 l 599 -471 q 583 -451 578 -418 q 573 -385 573 -332 l 573 -332 l 573 -208 q 573 -137 562 -99 q 551 -62 525 -35 l 525 -35 q 504 -12 474 0 q 443 12 403 12 l 403 12 q 347 12 312 -13 q 277 -39 256 -83 l 256 -83 l 270 -78 q 254 -50 235 -29 q 215 -9 188 2 q 161 12 122 12 l 122 12 q 89 12 62 5 q 34 -2 10 -15 l 10 -15 l 38 -80 q 56 -71 78 -64 q 99 -58 123 -58 l 123 -58 q 149 -58 167 -66 q 184 -74 196 -91 l 196 -91 q 211 -110 218 -142 q 224 -175 224 -233 l 224 -233 l 224 -554 l 305 -554 l 305 -227 q 305 -172 310 -140 q 315 -109 329 -89 l 329 -89 q 340 -74 357 -65 q 374 -57 397 -57 l 397 -57 q 421 -57 439 -66 q 456 -75 466 -88 l 466 -88 q 482 -110 487 -142 q 491 -175 491 -228 l 491 -228 l 491 -332 q 491 -386 497 -422 q 502 -458 513 -481 q 524 -505 539 -521 l 539 -521 q 560 -544 589 -555 q 618 -566 660 -566 l 660 -566 q 699 -566 729 -555 q 759 -545 780 -522 l 780 -522 q 796 -506 807 -483 q 817 -460 823 -425 q 828 -391 828 -336 l 828 -336 l 828 -219 q 828 -168 833 -135 q 838 -103 854 -83 l 854 -83 q 864 -70 880 -63 q 896 -57 914 -57 l 914 -57 q 933 -57 950 -63 q 966 -70 976 -83 l 976 -83 q 992 -103 997 -135 q 1001 -168 1001 -219 l 1001 -219 l 1001 -332 q 1001 -386 1007 -422 q 1012 -458 1023 -481 q 1034 -505 1049 -521 l 1049 -521 q 1070 -544 1099 -555 q 1128 -566 1166 -566 z m 1595 -396 l 1595 -396 q 1595 -333 1574 -274 q 1552 -216 1513 -159 q 1473 -103 1420 -45 l 1420 -45 l 1410 -62 q 1433 -64 1462 -65 q 1491 -67 1510 -67 l 1510 -67 l 1674 -67 l 1674 -270 q 1674 -338 1662 -384 q 1650 -430 1624 -458 q 1598 -486 1555 -498 l 1555 -498 l 1556 -504 q 1574 -483 1585 -456 q 1595 -430 1595 -396 z"},"൹":{"ha":959,"x_min":37,"x_max":937,"o":"m 242 -566 l 242 -566 q 280 -566 307 -554 q 334 -542 355 -520 q 376 -499 395 -467 l 395 -467 l 420 -238 l 420 0 l 338 0 l 338 -313 q 338 -377 332 -410 q 326 -443 311 -463 l 311 -463 q 299 -479 283 -488 q 266 -497 243 -497 l 243 -497 q 208 -497 181 -472 q 153 -447 137 -402 q 121 -357 121 -296 l 121 -296 q 121 -234 135 -187 q 148 -141 170 -107 q 192 -73 217 -47 l 217 -47 l 156 8 q 123 -28 96 -70 q 69 -113 53 -169 q 37 -225 37 -298 l 37 -298 q 37 -379 62 -439 q 86 -499 132 -532 q 178 -566 242 -566 z m 558 -566 l 558 -566 q 617 -566 665 -545 q 712 -524 746 -483 q 780 -442 798 -380 q 816 -318 816 -236 l 816 -236 q 816 -143 793 -88 q 770 -34 731 -11 q 692 12 641 12 l 641 12 q 587 12 553 -10 q 518 -33 502 -68 q 486 -104 486 -144 l 486 -144 q 486 -197 504 -231 q 522 -265 552 -286 l 552 -286 q 575 -301 601 -310 q 626 -319 663 -323 q 699 -327 752 -327 l 752 -327 l 937 -327 l 937 -259 l 753 -259 q 692 -259 660 -252 q 627 -246 603 -229 l 603 -229 q 586 -217 576 -196 q 566 -175 566 -144 l 566 -144 q 566 -103 586 -79 q 605 -55 641 -55 l 641 -55 q 672 -55 693 -73 q 714 -92 725 -132 q 736 -173 736 -239 l 736 -239 q 736 -256 736 -270 q 735 -285 733 -298 l 733 -298 l 732 -315 q 725 -364 704 -405 q 682 -446 646 -471 q 610 -497 559 -497 l 559 -497 q 530 -497 508 -490 q 485 -483 467 -467 l 467 -467 q 450 -453 440 -432 q 429 -412 425 -383 q 420 -354 420 -315 l 420 -315 l 420 -206 l 368 -211 l 365 -458 q 385 -491 412 -515 q 438 -539 474 -552 q 509 -566 558 -566 z"},"ൺ":{"ha":1259,"x_min":39,"x_max":1222,"o":"m 301 -566 l 301 -566 q 370 -566 411 -541 q 452 -516 484 -472 l 484 -472 l 463 -472 q 491 -520 528 -543 q 564 -566 617 -566 l 617 -566 q 670 -566 706 -540 q 742 -515 766 -468 l 766 -468 l 758 -445 l 793 -320 l 793 0 l 711 0 l 711 -326 q 711 -384 706 -414 q 701 -444 687 -464 l 687 -464 q 676 -480 659 -488 q 641 -497 612 -497 l 612 -497 q 585 -497 569 -487 q 552 -478 540 -463 l 540 -463 q 523 -440 518 -408 q 513 -377 513 -322 l 513 -322 l 513 0 l 432 0 l 432 -318 q 432 -375 424 -408 q 416 -441 397 -462 l 397 -462 q 381 -479 358 -488 q 335 -497 302 -497 l 302 -497 q 245 -497 204 -465 q 162 -433 139 -376 q 116 -320 116 -247 l 116 -247 l 116 -224 q 116 -164 127 -127 q 138 -90 158 -73 q 177 -56 203 -56 l 203 -56 q 223 -56 238 -66 q 252 -77 260 -99 q 268 -121 268 -157 l 268 -157 q 268 -211 249 -235 q 229 -259 194 -259 l 194 -259 q 164 -259 139 -244 q 113 -229 89 -199 l 89 -199 l 69 -254 q 94 -283 132 -305 q 169 -327 211 -327 l 211 -327 q 253 -327 284 -308 q 314 -290 331 -253 q 348 -216 348 -161 l 348 -161 q 348 -104 331 -65 q 313 -26 281 -7 q 249 12 204 12 l 204 12 q 159 12 122 -13 q 84 -38 62 -93 q 39 -149 39 -241 l 39 -241 q 39 -351 74 -423 q 109 -495 168 -530 q 227 -566 301 -566 z m 1056 12 l 1056 12 q 1001 12 964 -13 q 926 -39 907 -88 q 888 -138 888 -209 l 888 -209 q 888 -276 905 -329 q 922 -382 950 -426 q 978 -470 1008 -509 l 1008 -509 l 1029 -538 q 1054 -570 1071 -599 q 1087 -629 1087 -657 l 1087 -657 q 1087 -684 1071 -702 q 1055 -720 1022 -720 l 1022 -720 q 1005 -720 987 -717 q 968 -715 958 -710 l 958 -710 l 942 -779 q 957 -784 983 -788 q 1008 -792 1035 -792 l 1035 -792 q 1088 -792 1117 -772 q 1146 -752 1157 -724 q 1168 -697 1168 -672 l 1168 -672 q 1168 -627 1148 -586 q 1127 -545 1088 -497 l 1088 -497 l 1070 -472 q 1040 -434 1018 -393 q 995 -352 983 -306 q 971 -261 971 -208 l 971 -208 q 971 -150 982 -116 q 992 -82 1012 -68 q 1031 -54 1054 -54 l 1054 -54 q 1096 -54 1117 -89 q 1138 -124 1138 -209 l 1138 -209 q 1138 -257 1127 -309 q 1115 -362 1090 -407 q 1065 -452 1024 -476 l 1024 -476 q 1007 -486 985 -492 q 963 -499 937 -499 l 937 -499 q 897 -499 872 -489 q 847 -479 832 -461 l 832 -461 q 817 -445 809 -424 q 800 -403 797 -374 q 793 -345 793 -303 l 793 -303 l 793 -52 l 719 -52 l 719 -256 l 738 -451 q 757 -487 784 -513 q 810 -539 847 -552 q 884 -566 933 -566 l 933 -566 q 970 -566 1001 -558 q 1031 -551 1057 -537 l 1057 -537 q 1061 -536 1065 -533 q 1068 -531 1072 -529 l 1072 -529 q 1122 -498 1156 -449 q 1189 -401 1206 -341 q 1222 -281 1222 -215 l 1222 -215 q 1222 -100 1180 -44 q 1137 12 1056 12 z"},"ൻ":{"ha":886,"x_min":37,"x_max":849,"o":"m 242 -566 l 242 -566 q 279 -566 306 -553 q 333 -541 354 -520 q 374 -499 389 -471 l 389 -471 l 420 -238 l 420 0 l 338 0 l 338 -313 q 338 -377 332 -410 q 326 -443 311 -463 l 311 -463 q 299 -479 283 -488 q 266 -497 243 -497 l 243 -497 q 208 -497 181 -472 q 153 -447 137 -402 q 121 -357 121 -296 l 121 -296 q 121 -234 135 -187 q 148 -141 170 -107 q 192 -73 217 -47 l 217 -47 l 156 8 q 123 -28 96 -70 q 69 -113 53 -169 q 37 -225 37 -298 l 37 -298 q 37 -379 62 -439 q 86 -499 132 -532 q 178 -566 242 -566 z m 683 12 l 683 12 q 628 12 591 -13 q 553 -39 534 -88 q 515 -138 515 -209 l 515 -209 q 515 -276 532 -329 q 549 -382 577 -426 q 605 -470 635 -509 l 635 -509 l 656 -538 q 681 -570 698 -599 q 714 -629 714 -657 l 714 -657 q 714 -684 698 -702 q 682 -720 649 -720 l 649 -720 q 632 -720 615 -717 q 598 -715 585 -710 l 585 -710 l 569 -779 q 584 -784 610 -788 q 635 -792 662 -792 l 662 -792 q 715 -792 744 -772 q 773 -752 784 -724 q 795 -697 795 -672 l 795 -672 q 795 -627 775 -586 q 754 -545 715 -497 l 715 -497 l 697 -472 q 667 -434 645 -393 q 622 -352 610 -306 q 598 -261 598 -208 l 598 -208 q 598 -150 609 -116 q 619 -82 639 -68 q 658 -54 681 -54 l 681 -54 q 723 -54 744 -89 q 765 -124 765 -209 l 765 -209 q 765 -257 754 -309 q 742 -362 717 -407 q 692 -452 651 -476 l 651 -476 q 634 -486 612 -492 q 590 -499 564 -499 l 564 -499 q 524 -499 499 -489 q 474 -479 459 -461 l 459 -461 q 444 -445 436 -424 q 427 -403 424 -374 q 420 -345 420 -303 l 420 -303 l 420 -52 l 346 -52 l 346 -256 l 365 -451 q 384 -487 411 -513 q 437 -539 474 -552 q 511 -566 560 -566 l 560 -566 q 597 -566 628 -558 q 658 -551 684 -537 l 684 -537 q 688 -536 692 -533 q 695 -531 699 -529 l 699 -529 q 749 -498 783 -449 q 816 -401 833 -341 q 849 -281 849 -215 l 849 -215 q 849 -100 807 -44 q 764 12 683 12 z"},"ർ":{"ha":618,"x_min":37,"x_max":581,"o":"m 414 12 l 414 12 q 361 12 324 -13 q 286 -39 267 -88 q 247 -138 247 -209 l 247 -209 q 247 -276 264 -329 q 281 -382 309 -426 q 336 -470 367 -509 l 367 -509 l 388 -538 q 413 -570 430 -599 q 446 -629 446 -657 l 446 -657 q 446 -684 430 -702 q 414 -720 381 -720 l 381 -720 q 364 -720 346 -717 q 327 -715 317 -710 l 317 -710 l 301 -779 q 316 -784 342 -788 q 367 -792 394 -792 l 394 -792 q 447 -792 476 -772 q 505 -752 517 -724 q 528 -697 528 -672 l 528 -672 q 528 -627 507 -586 q 486 -545 447 -497 l 447 -497 l 429 -472 q 399 -434 377 -393 q 354 -352 342 -306 q 330 -261 330 -208 l 330 -208 q 330 -150 341 -116 q 352 -82 371 -68 q 390 -54 413 -54 l 413 -54 q 455 -54 476 -89 q 497 -124 497 -209 l 497 -209 q 497 -245 491 -284 q 484 -323 471 -361 q 457 -399 436 -429 q 414 -460 383 -477 l 383 -477 q 365 -488 345 -493 q 324 -499 299 -499 l 299 -499 q 241 -499 201 -469 q 161 -440 141 -390 q 121 -341 121 -279 l 121 -279 q 121 -224 133 -181 q 145 -138 168 -105 q 190 -73 219 -49 l 219 -49 l 165 8 q 130 -20 101 -61 q 72 -103 55 -158 q 37 -214 37 -285 l 37 -285 q 37 -345 55 -396 q 72 -448 106 -485 q 139 -523 188 -544 q 236 -566 298 -566 l 298 -566 q 332 -566 361 -559 q 390 -552 416 -539 l 416 -539 q 420 -537 424 -534 q 427 -532 431 -530 l 431 -530 q 481 -500 515 -451 q 548 -402 565 -341 q 581 -281 581 -215 l 581 -215 q 581 -100 539 -44 q 496 12 414 12 z"},"ൽ":{"ha":1010,"x_min":37,"x_max":973,"o":"m 615 -566 l 615 -566 q 654 -566 690 -561 q 725 -556 757 -545 q 789 -534 816 -516 l 816 -516 l 830 -509 q 902 -464 938 -385 q 973 -306 973 -215 l 973 -215 q 973 -100 930 -44 q 887 12 806 12 l 806 12 q 752 12 715 -13 q 677 -39 658 -88 q 639 -138 639 -209 l 639 -209 q 639 -276 656 -329 q 672 -382 700 -426 q 728 -470 758 -509 l 758 -509 l 774 -531 q 803 -565 820 -597 q 837 -629 837 -657 l 837 -657 q 837 -684 821 -702 q 805 -720 772 -720 l 772 -720 q 756 -720 737 -717 q 718 -715 708 -710 l 708 -710 l 692 -779 q 707 -784 733 -788 q 759 -792 786 -792 l 786 -792 q 839 -792 868 -772 q 896 -752 908 -724 q 919 -697 919 -672 l 919 -672 q 919 -627 898 -586 q 877 -545 839 -497 l 839 -497 l 821 -472 q 790 -434 768 -393 q 746 -352 734 -306 q 721 -261 721 -208 l 721 -208 q 721 -150 732 -116 q 743 -82 762 -68 q 781 -54 804 -54 l 804 -54 q 846 -54 868 -89 q 889 -124 889 -209 l 889 -209 q 889 -261 877 -309 q 865 -357 841 -397 q 816 -437 773 -462 l 773 -462 l 754 -470 q 724 -485 689 -491 q 653 -497 613 -497 l 613 -497 q 574 -497 538 -491 q 501 -485 471 -469 l 471 -469 l 451 -461 q 397 -428 367 -365 q 336 -302 336 -214 l 336 -214 q 336 -150 349 -115 q 361 -81 381 -68 q 401 -55 424 -55 l 424 -55 q 448 -55 468 -68 q 487 -81 499 -115 q 511 -150 511 -214 l 511 -214 q 511 -274 496 -325 q 481 -377 455 -415 q 429 -453 394 -473 l 394 -473 l 378 -483 q 360 -492 342 -496 q 324 -500 304 -500 l 304 -500 q 245 -500 204 -472 q 163 -444 142 -394 q 121 -345 121 -279 l 121 -279 q 121 -223 133 -180 q 145 -138 168 -105 q 190 -73 219 -49 l 219 -49 l 165 8 q 130 -20 101 -60 q 72 -101 55 -157 q 37 -213 37 -285 l 37 -285 q 37 -343 53 -394 q 69 -445 102 -484 q 134 -523 182 -544 q 230 -566 295 -566 l 295 -566 q 336 -566 371 -556 q 405 -547 438 -524 l 438 -524 l 459 -505 q 520 -463 557 -391 q 594 -319 594 -214 l 594 -214 q 594 -142 575 -91 q 555 -40 517 -14 q 478 12 423 12 l 423 12 q 368 12 331 -15 q 293 -42 273 -93 q 253 -144 253 -214 l 253 -214 q 253 -277 268 -329 q 283 -381 313 -423 q 343 -465 386 -498 l 386 -498 l 405 -512 q 444 -538 495 -552 q 546 -566 615 -566 z"},"ൾ":{"ha":872,"x_min":37,"x_max":835,"o":"m 648 -792 l 648 -792 q 701 -792 730 -772 q 758 -752 770 -724 q 781 -697 781 -672 l 781 -672 q 781 -627 760 -586 q 739 -545 701 -497 l 701 -497 l 683 -472 q 653 -434 631 -393 q 608 -352 596 -306 q 583 -261 583 -208 l 583 -208 q 583 -150 594 -116 q 605 -82 624 -68 q 643 -54 666 -54 l 666 -54 q 709 -54 730 -89 q 751 -125 751 -209 l 751 -209 q 751 -245 745 -284 q 738 -323 725 -360 q 711 -398 690 -428 q 668 -459 638 -477 l 638 -477 q 622 -487 603 -493 q 584 -499 561 -499 l 561 -499 q 534 -499 513 -493 q 491 -487 475 -475 l 475 -475 q 438 -449 426 -401 q 414 -353 414 -285 l 414 -285 l 414 -210 q 414 -169 410 -137 q 405 -106 395 -81 q 385 -57 366 -37 l 366 -37 q 344 -13 313 0 q 281 12 236 12 l 236 12 q 174 12 129 -19 q 84 -50 61 -109 q 37 -169 37 -253 l 37 -253 q 37 -327 53 -383 q 68 -440 96 -484 q 123 -529 158 -566 l 158 -566 l 218 -511 q 192 -486 170 -450 q 147 -414 134 -366 q 121 -318 121 -257 l 121 -257 q 121 -195 135 -150 q 149 -105 175 -81 q 201 -57 235 -57 l 235 -57 q 263 -57 280 -65 q 296 -74 307 -88 l 307 -88 q 323 -111 328 -149 q 332 -187 332 -245 l 332 -245 l 332 -300 q 332 -378 349 -431 q 365 -485 409 -521 l 409 -521 q 436 -543 473 -554 q 509 -566 556 -566 l 556 -566 q 589 -566 617 -559 q 645 -552 669 -539 l 669 -539 l 684 -531 q 734 -501 768 -452 q 801 -403 818 -342 q 835 -282 835 -215 l 835 -215 q 835 -100 792 -44 q 749 12 668 12 l 668 12 q 614 12 577 -13 q 539 -39 520 -88 q 501 -138 501 -209 l 501 -209 q 501 -276 518 -329 q 535 -382 563 -426 q 590 -470 621 -509 l 621 -509 l 641 -538 q 667 -570 684 -599 q 700 -629 700 -657 l 700 -657 q 700 -684 684 -702 q 667 -720 634 -720 l 634 -720 q 618 -720 600 -717 q 581 -715 570 -710 l 570 -710 l 554 -779 q 569 -784 595 -788 q 621 -792 648 -792 z"},"ൿ":{"ha":1006,"x_min":31,"x_max":975,"o":"m 435 -566 l 435 -566 q 503 -566 546 -531 q 588 -496 609 -432 q 630 -368 630 -279 l 630 -279 q 630 -180 607 -115 q 583 -51 540 -19 q 496 12 435 12 l 435 12 q 385 12 350 -7 q 314 -27 290 -61 l 290 -61 q 264 -101 252 -157 q 240 -214 240 -279 l 240 -279 q 240 -422 292 -494 q 343 -566 435 -566 z m 435 -499 l 435 -499 q 377 -499 349 -445 q 320 -392 320 -278 l 320 -278 q 320 -200 333 -150 q 345 -101 371 -78 q 397 -55 434 -55 l 434 -55 q 472 -55 498 -77 q 523 -100 537 -149 q 550 -199 550 -278 l 550 -278 q 550 -356 537 -405 q 524 -454 499 -476 q 473 -499 435 -499 z m 189 12 l 189 12 q 113 12 72 -32 q 31 -76 31 -152 l 31 -152 q 31 -203 51 -236 q 71 -269 104 -289 l 104 -289 q 126 -302 153 -310 q 180 -319 219 -323 q 257 -327 313 -327 l 313 -327 l 731 -327 q 796 -327 839 -318 q 881 -309 913 -286 l 913 -286 q 940 -267 958 -234 q 975 -201 975 -150 l 975 -150 q 975 -74 938 -31 q 901 12 828 12 l 828 12 q 754 12 717 -34 q 679 -81 679 -152 l 679 -152 q 679 -186 687 -218 q 694 -251 707 -287 l 707 -287 q 709 -291 710 -296 q 710 -301 712 -305 l 712 -305 q 724 -334 739 -367 q 753 -401 771 -440 l 771 -440 q 796 -493 811 -530 q 826 -567 833 -596 q 840 -625 840 -650 l 840 -650 q 840 -682 824 -701 q 807 -720 774 -720 l 774 -720 q 758 -720 739 -717 q 720 -715 710 -710 l 710 -710 l 694 -779 q 709 -784 735 -788 q 761 -792 788 -792 l 788 -792 q 841 -792 870 -772 q 899 -752 910 -723 q 921 -695 921 -669 l 921 -669 q 921 -643 917 -618 q 913 -594 904 -566 q 894 -538 879 -501 q 863 -465 840 -413 l 840 -413 q 826 -381 814 -354 q 802 -327 793 -304 l 793 -304 q 790 -297 788 -291 q 786 -285 784 -279 l 784 -279 q 771 -242 764 -212 q 757 -183 757 -152 l 757 -152 q 757 -116 768 -95 q 778 -74 794 -65 q 810 -57 828 -57 l 828 -57 q 861 -57 878 -81 q 895 -105 895 -147 l 895 -147 q 895 -176 886 -197 q 877 -219 861 -231 l 861 -231 q 840 -248 810 -253 q 780 -259 738 -259 l 738 -259 l 298 -259 q 238 -259 205 -253 q 171 -248 147 -231 l 147 -231 q 131 -219 121 -199 q 110 -180 110 -152 l 110 -152 q 110 -121 121 -99 q 131 -78 150 -67 q 169 -57 196 -57 l 196 -57 q 226 -57 250 -66 q 274 -76 302 -98 l 302 -98 l 344 -45 q 316 -23 291 -10 q 266 2 242 7 q 217 12 189 12 z"},"!":{"ha":254,"x_min":71,"x_max":183,"o":"m 155 -201 l 98 -201 l 76 -714 l 177 -714 l 155 -201 z m 127 12 l 127 12 q 100 12 86 -4 q 71 -21 71 -53 l 71 -53 q 71 -85 85 -101 q 99 -118 127 -118 l 127 -118 q 153 -118 168 -102 q 183 -87 183 -53 l 183 -53 q 183 -20 167 -4 q 151 12 127 12 z"},"\"":{"ha":399,"x_min":64,"x_max":335,"o":"m 145 -542 l 84 -542 l 64 -800 l 163 -800 l 145 -542 z m 316 -542 l 255 -542 l 236 -800 l 335 -800 l 316 -542 z"},"#":{"ha":542,"x_min":24,"x_max":517,"o":"m 143 0 l 78 0 l 118 -213 l 24 -213 l 24 -277 l 131 -277 l 162 -442 l 51 -442 l 51 -506 l 174 -506 l 214 -714 l 279 -714 l 239 -506 l 359 -506 l 399 -714 l 464 -714 l 424 -506 l 517 -506 l 517 -442 l 412 -442 l 381 -277 l 491 -277 l 491 -213 l 369 -213 l 328 0 l 263 0 l 304 -213 l 183 -213 l 143 0 z m 226 -442 l 195 -277 l 316 -277 l 347 -442 l 226 -442 z"},"%":{"ha":722,"x_min":46,"x_max":676,"o":"m 248 0 l 179 0 l 473 -714 l 542 -714 l 248 0 z m 170 -276 l 170 -276 q 109 -276 78 -333 q 46 -391 46 -500 l 46 -500 q 46 -610 78 -667 q 109 -724 173 -724 l 173 -724 q 235 -724 267 -666 q 298 -609 298 -501 l 298 -501 q 298 -391 266 -333 q 234 -276 170 -276 z m 171 -337 l 171 -337 q 202 -337 216 -377 q 229 -418 229 -500 l 229 -500 q 229 -583 216 -623 q 202 -663 172 -663 l 172 -663 q 142 -663 129 -622 q 115 -582 115 -500 l 115 -500 q 115 -417 129 -377 q 142 -337 171 -337 z m 548 11 l 548 11 q 487 11 456 -47 q 424 -105 424 -213 l 424 -213 q 424 -324 456 -380 q 487 -437 550 -437 l 550 -437 q 612 -437 644 -379 q 676 -322 676 -214 l 676 -214 q 676 -104 644 -46 q 611 11 548 11 z m 549 -50 l 549 -50 q 579 -50 593 -90 q 607 -131 607 -214 l 607 -214 q 607 -297 593 -337 q 579 -377 549 -377 l 549 -377 q 519 -377 506 -336 q 492 -296 492 -214 l 492 -214 q 492 -130 506 -90 q 520 -50 549 -50 z"},"'":{"ha":228,"x_min":64,"x_max":163,"o":"m 145 -542 l 84 -542 l 64 -800 l 163 -800 l 145 -542 z"},"(":{"ha":305,"x_min":45,"x_max":275,"o":"m 45 -277 l 45 -277 q 45 -374 62 -468 q 79 -562 113 -647 q 146 -732 194 -800 l 194 -800 l 275 -800 q 227 -726 194 -641 q 161 -557 145 -465 q 128 -374 128 -277 l 128 -277 q 128 -181 145 -90 q 161 1 194 85 q 226 168 274 244 l 274 244 l 194 244 q 143 173 110 87 q 77 1 61 -92 q 45 -185 45 -277 z"},")":{"ha":305,"x_min":30,"x_max":259,"o":"m 259 -280 l 259 -280 q 259 -183 242 -88 q 225 6 192 91 q 159 175 111 244 l 111 244 l 30 244 q 78 169 111 85 q 143 1 160 -91 q 177 -183 177 -280 l 177 -280 q 177 -377 161 -467 q 144 -558 112 -641 q 79 -725 30 -800 l 30 -800 l 111 -800 q 162 -729 195 -643 q 227 -558 243 -465 q 259 -372 259 -280 z"},"*":{"ha":524,"x_min":39,"x_max":485,"o":"m 216 -800 l 306 -800 l 289 -619 l 470 -669 l 485 -582 l 306 -568 l 421 -417 l 342 -372 l 260 -543 l 184 -372 l 103 -417 l 216 -568 l 39 -582 l 53 -669 l 233 -619 l 216 -800 z"},"+":{"ha":472,"x_min":36,"x_max":435,"o":"m 271 -117 l 201 -117 l 201 -318 l 36 -318 l 36 -387 l 201 -387 l 201 -590 l 271 -590 l 271 -387 l 435 -387 l 435 -318 l 271 -318 l 271 -117 z"},",":{"ha":251,"x_min":41,"x_max":183,"o":"m 87 -115 l 176 -115 l 183 -104 q 174 -64 162 -23 q 149 17 135 56 q 121 95 104 131 l 104 131 l 41 131 q 52 90 61 47 q 69 4 76 -37 q 83 -79 87 -115 l 87 -115 z"},"-":{"ha":312,"x_min":39,"x_max":274,"o":"m 274 -233 l 39 -233 l 39 -307 l 274 -307 l 274 -233 z"},".":{"ha":257,"x_min":72,"x_max":185,"o":"m 128 12 l 128 12 q 103 12 88 -4 q 72 -21 72 -53 l 72 -53 q 72 -87 87 -102 q 102 -118 128 -118 l 128 -118 q 154 -118 170 -103 q 185 -88 185 -53 l 185 -53 q 185 -19 169 -3 q 153 12 128 12 z"},"/":{"ha":385,"x_min":20,"x_max":365,"o":"m 101 244 l 20 244 l 284 -800 l 365 -800 l 101 244 z"},":":{"ha":257,"x_min":72,"x_max":185,"o":"m 128 12 l 128 12 q 102 12 87 -4 q 72 -21 72 -53 l 72 -53 q 72 -87 87 -102 q 102 -118 128 -118 l 128 -118 q 154 -118 170 -103 q 185 -88 185 -53 l 185 -53 q 185 -19 169 -3 q 152 12 128 12 z m 128 -408 l 128 -408 q 102 -408 87 -424 q 72 -440 72 -474 l 72 -474 q 72 -507 87 -523 q 102 -539 128 -539 l 128 -539 q 154 -539 170 -523 q 185 -507 185 -474 l 185 -474 q 185 -440 169 -424 q 152 -408 128 -408 z"},";":{"ha":257,"x_min":41,"x_max":185,"o":"m 88 -115 l 176 -115 l 183 -104 q 174 -64 162 -23 q 149 17 135 56 q 121 95 104 131 l 104 131 l 41 131 q 52 90 61 47 q 70 4 77 -37 q 83 -79 88 -115 l 88 -115 z m 128 -408 l 128 -408 q 102 -408 87 -424 q 72 -440 72 -474 l 72 -474 q 72 -507 87 -523 q 102 -539 128 -539 l 128 -539 q 154 -539 170 -523 q 185 -507 185 -474 l 185 -474 q 185 -440 169 -424 q 152 -408 128 -408 z"},"<":{"ha":472,"x_min":35,"x_max":436,"o":"m 436 -205 l 436 -127 l 35 -329 l 35 -378 l 436 -587 l 436 -509 l 128 -354 l 436 -205 z"},"=":{"ha":472,"x_min":38,"x_max":433,"o":"m 433 -213 l 38 -213 l 38 -282 l 433 -282 l 433 -213 z m 433 -422 l 38 -422 l 38 -491 l 433 -491 l 433 -422 z"},">":{"ha":472,"x_min":35,"x_max":436,"o":"m 436 -329 l 35 -127 l 35 -205 l 344 -354 l 35 -509 l 35 -587 l 436 -378 l 436 -329 z"},"?":{"ha":378,"x_min":34,"x_max":346,"o":"m 180 -724 l 180 -724 q 259 -724 303 -679 q 346 -634 346 -557 l 346 -557 q 346 -513 336 -481 q 326 -449 306 -420 q 286 -392 255 -355 l 255 -355 q 231 -329 219 -308 q 206 -288 201 -267 q 196 -246 196 -218 l 196 -218 l 196 -201 l 130 -201 l 130 -227 q 130 -262 135 -289 q 140 -317 154 -341 q 168 -366 192 -393 l 192 -393 q 218 -423 234 -446 q 250 -470 258 -495 q 266 -520 266 -550 l 266 -550 q 266 -598 243 -624 q 220 -651 174 -651 l 174 -651 q 144 -651 117 -641 q 90 -631 64 -618 l 64 -618 l 34 -684 q 66 -701 103 -712 q 140 -724 180 -724 z m 165 12 l 165 12 q 140 12 124 -4 q 108 -21 108 -53 l 108 -53 q 108 -87 124 -102 q 139 -118 165 -118 l 165 -118 q 190 -118 206 -103 q 221 -88 221 -53 l 221 -53 q 221 -19 205 -3 q 189 12 165 12 z"},"[":{"ha":324,"x_min":79,"x_max":284,"o":"m 284 244 l 79 244 l 79 -800 l 284 -800 l 284 -732 l 160 -732 l 160 176 l 284 176 l 284 244 z"},"\\":{"ha":385,"x_min":20,"x_max":365,"o":"m 365 244 l 284 244 l 20 -800 l 101 -800 l 365 244 z"},"]":{"ha":325,"x_min":39,"x_max":245,"o":"m 245 244 l 39 244 l 39 176 l 164 176 l 164 -732 l 39 -732 l 39 -800 l 245 -800 l 245 244 z"},"^":{"ha":472,"x_min":22,"x_max":449,"o":"m 100 -325 l 22 -325 l 212 -715 l 261 -715 l 449 -325 l 370 -325 l 236 -619 l 100 -325 z"},"_":{"ha":383,"x_min":-2,"x_max":385,"o":"m 385 154 l -2 154 l -2 90 l 385 90 l 385 154 z"},"{":{"ha":364,"x_min":30,"x_max":325,"o":"m 325 177 l 325 244 q 274 243 235 226 q 196 209 175 173 q 153 136 153 81 l 153 81 l 153 -144 q 153 -198 122 -221 q 91 -244 30 -244 l 30 -244 l 30 -311 q 91 -312 122 -334 q 153 -357 153 -410 l 153 -410 l 153 -638 q 153 -694 175 -729 q 196 -765 235 -782 q 274 -800 325 -800 l 325 -800 l 325 -733 q 279 -732 257 -711 q 235 -690 235 -638 l 235 -638 l 235 -411 q 235 -356 209 -324 q 183 -292 129 -281 l 129 -281 l 129 -275 q 183 -264 209 -231 q 235 -199 235 -145 l 235 -145 l 235 83 q 235 117 245 138 q 254 158 275 167 q 295 176 325 177 l 325 177 z"},"|":{"ha":551,"x_min":238,"x_max":313,"o":"m 313 244 l 238 244 l 238 -800 l 313 -800 l 313 244 z"},"}":{"ha":364,"x_min":39,"x_max":334,"o":"m 39 -733 l 39 -800 q 91 -800 130 -782 q 168 -764 190 -728 q 211 -693 211 -637 l 211 -637 l 211 -412 q 211 -358 242 -335 q 273 -312 334 -312 l 334 -312 l 334 -244 q 273 -244 242 -221 q 211 -199 211 -146 l 211 -146 l 211 82 q 211 137 189 173 q 166 209 128 227 q 89 244 39 244 l 39 244 l 39 177 q 86 175 108 155 q 129 134 129 82 l 129 82 l 129 -145 q 129 -200 156 -232 q 182 -264 235 -275 l 235 -275 l 235 -281 q 181 -292 155 -324 q 129 -356 129 -411 l 129 -411 l 129 -639 q 129 -674 120 -694 q 110 -714 91 -723 q 71 -732 39 -733 l 39 -733 z"},"~":{"ha":472,"x_min":35,"x_max":438,"o":"m 224 -320 l 224 -320 q 198 -334 177 -340 q 155 -347 135 -347 l 135 -347 q 111 -347 85 -331 q 59 -315 35 -288 l 35 -288 l 35 -365 q 57 -390 83 -403 q 108 -417 139 -417 l 139 -417 q 167 -417 192 -409 q 216 -402 247 -387 l 247 -387 q 277 -372 298 -365 q 318 -359 339 -359 l 339 -359 q 364 -359 390 -375 q 416 -392 438 -417 l 438 -417 l 438 -340 q 417 -316 391 -303 q 365 -290 334 -290 l 334 -290 q 304 -290 281 -297 q 258 -304 224 -320 z"}," ":{"ha":247,"x_min":0,"x_max":0,"o":""},"­":{"ha":312,"x_min":39,"x_max":274,"o":"m 274 -233 l 39 -233 l 39 -307 l 274 -307 l 274 -233 z"},"–":{"ha":500,"x_min":39,"x_max":461,"o":"m 461 -232 l 39 -232 l 39 -305 l 461 -305 l 461 -232 z"},"—":{"ha":1000,"x_min":39,"x_max":961,"o":"m 961 -232 l 39 -232 l 39 -305 l 961 -305 l 961 -232 z"},"‘":{"ha":222,"x_min":39,"x_max":181,"o":"m 135 -554 l 45 -554 l 39 -565 q 48 -606 61 -646 q 73 -686 88 -725 q 102 -764 118 -800 l 118 -800 l 181 -800 q 170 -759 161 -715 q 152 -672 146 -631 q 139 -590 135 -554 l 135 -554 z"},"’":{"ha":222,"x_min":39,"x_max":181,"o":"m 85 -800 l 174 -800 l 181 -789 q 172 -750 160 -709 q 147 -669 133 -630 q 118 -592 102 -554 l 102 -554 l 39 -554 q 47 -584 54 -616 q 61 -649 67 -681 q 73 -714 78 -744 q 82 -774 85 -800 l 85 -800 z"},"“":{"ha":395,"x_min":39,"x_max":354,"o":"m 308 -554 l 217 -554 l 211 -565 q 221 -606 234 -646 q 246 -686 261 -725 q 275 -764 290 -800 l 290 -800 l 354 -800 q 344 -759 335 -716 q 326 -673 319 -632 q 312 -591 308 -554 l 308 -554 z m 135 -554 l 45 -554 l 39 -565 q 49 -606 61 -646 q 73 -686 88 -725 q 102 -764 118 -800 l 118 -800 l 181 -800 q 171 -759 162 -715 q 152 -672 146 -631 q 139 -590 135 -554 l 135 -554 z"},"”":{"ha":395,"x_min":39,"x_max":354,"o":"m 258 -800 l 347 -800 l 354 -789 q 345 -750 332 -709 q 319 -669 305 -630 q 291 -592 275 -554 l 275 -554 l 211 -554 q 222 -597 231 -639 q 240 -682 247 -722 q 254 -763 258 -800 l 258 -800 z m 85 -800 l 174 -800 l 181 -789 q 172 -750 160 -709 q 147 -669 133 -630 q 118 -592 102 -554 l 102 -554 l 39 -554 q 47 -584 54 -616 q 61 -649 67 -681 q 73 -714 78 -744 q 82 -774 85 -800 l 85 -800 z"},"…":{"ha":735,"x_min":72,"x_max":663,"o":"m 128 12 l 128 12 q 103 12 88 -4 q 72 -21 72 -53 l 72 -53 q 72 -87 87 -102 q 102 -118 128 -118 l 128 -118 q 154 -118 170 -103 q 185 -88 185 -53 l 185 -53 q 185 -19 169 -3 q 153 12 128 12 z m 367 12 l 367 12 q 342 12 327 -4 q 311 -21 311 -53 l 311 -53 q 311 -87 326 -102 q 341 -118 367 -118 l 367 -118 q 392 -118 408 -103 q 423 -88 423 -53 l 423 -53 q 423 -19 408 -3 q 392 12 367 12 z m 606 12 l 606 12 q 581 12 566 -4 q 550 -21 550 -53 l 550 -53 q 550 -87 565 -102 q 580 -118 606 -118 l 606 -118 q 632 -118 648 -103 q 663 -88 663 -53 l 663 -53 q 663 -19 647 -3 q 631 12 606 12 z"},"×":{"ha":472,"x_min":41,"x_max":431,"o":"m 235 -401 l 382 -548 l 431 -501 l 283 -353 l 428 -207 l 381 -159 l 235 -305 l 89 -159 l 41 -207 l 187 -353 l 41 -498 l 89 -547 l 235 -401 z"},"÷":{"ha":472,"x_min":36,"x_max":435,"o":"m 435 -318 l 36 -318 l 36 -387 l 435 -387 l 435 -318 z m 237 -115 l 237 -115 q 211 -115 198 -130 q 184 -146 184 -176 l 184 -176 q 184 -207 198 -222 q 211 -238 237 -238 l 237 -238 q 262 -238 275 -222 q 288 -207 288 -176 l 288 -176 q 288 -146 274 -130 q 260 -115 237 -115 z m 237 -467 l 237 -467 q 212 -467 198 -482 q 184 -498 184 -529 l 184 -529 q 184 -559 198 -574 q 211 -590 237 -590 l 237 -590 q 262 -590 275 -574 q 288 -559 288 -529 l 288 -529 q 287 -498 274 -482 q 260 -467 237 -467 z"},"−":{"ha":472,"x_min":36,"x_max":436,"o":"m 436 -318 l 36 -318 l 36 -387 l 436 -387 l 436 -318 z"},"₹":{"ha":472,"x_min":60,"x_max":419,"o":"m 324 0 l 225 0 l 60 -282 l 70 -353 l 89 -353 q 136 -353 158 -363 q 180 -373 192 -392 l 192 -392 q 205 -411 210 -437 q 214 -464 214 -498 l 214 -498 q 214 -549 208 -575 q 201 -601 184 -619 l 184 -619 q 171 -634 151 -641 q 131 -649 93 -649 l 93 -649 l 60 -649 l 60 -714 l 419 -714 l 419 -649 l 245 -649 q 269 -630 283 -596 q 297 -562 297 -499 l 297 -499 q 297 -435 280 -390 q 262 -346 226 -320 q 189 -294 132 -284 l 132 -284 l 144 -294 l 324 0 z m 419 -473 l 60 -473 l 60 -538 l 419 -538 l 419 -473 z"},"꠰":{"ha":219,"x_min":69,"x_max":150,"o":"m 69 0 l 69 -554 l 150 -554 l 150 0 l 69 0 z"},"꠱":{"ha":388,"x_min":69,"x_max":319,"o":"m 69 0 l 69 -554 l 150 -554 l 150 0 l 69 0 z m 238 0 l 238 -554 l 319 -554 l 319 0 l 238 0 z"},"꠲":{"ha":557,"x_min":69,"x_max":489,"o":"m 69 0 l 69 -554 l 150 -554 l 150 0 l 69 0 z m 238 0 l 238 -554 l 319 -554 l 319 0 l 238 0 z m 407 0 l 407 -554 l 489 -554 l 489 0 l 407 0 z"},"॑":{"ha":0,"x_min":-313,"x_max":-244,"o":"m -313 -653 l -313 -864 l -244 -864 l -244 -653 l -313 -653 z"},"॒":{"ha":0,"x_min":-481,"x_max":-76,"o":"m -76 112 l -76 180 l -481 180 l -481 112 l -76 112 z"},"।":{"ha":302,"x_min":147,"x_max":228,"o":"m 228 49 l 147 49 l 147 -603 l 228 -603 l 228 49 z"},"॥":{"ha":501,"x_min":147,"x_max":427,"o":"m 427 49 l 346 49 l 346 -603 l 427 -603 l 427 49 z m 228 49 l 147 49 l 147 -603 l 228 -603 l 228 49 z"},"᳚":{"ha":0,"x_min":-374,"x_max":-183,"o":"m -374 -653 l -374 -864 l -309 -864 l -309 -653 l -374 -653 z m -248 -653 l -248 -864 l -183 -864 l -183 -653 l -248 -653 z"},"̇":{"ha":0,"x_min":-329,"x_max":-230,"o":"m -329 -701 l -329 -701 q -329 -730 -315 -744 q -301 -758 -279 -758 l -279 -758 q -256 -758 -243 -744 q -230 -730 -230 -701 l -230 -701 q -230 -673 -243 -658 q -257 -644 -279 -644 l -279 -644 q -301 -644 -315 -658 q -329 -673 -329 -701 z"},"̣":{"ha":0,"x_min":-329,"x_max":-230,"o":"m -329 135 l -329 135 q -329 106 -315 93 q -301 79 -279 79 l -279 79 q -256 79 -243 93 q -230 106 -230 135 l -230 135 q -230 163 -243 178 q -257 192 -279 192 l -279 192 q -301 192 -315 178 q -329 163 -329 135 z"},"‐":{"ha":312,"x_min":39,"x_max":274,"o":"m 274 -233 l 39 -233 l 39 -307 l 274 -307 l 274 -233 z"},"​":{"ha":0,"x_min":0,"x_max":0,"o":""},"‌":{"ha":0,"x_min":0,"x_max":0,"o":""},"‍":{"ha":0,"x_min":-161,"x_max":161,"o":"m 29 244 l -29 244 l -29 -565 l -121 -474 l -161 -514 l -40 -631 l -161 -748 l -121 -788 l 0 -669 l 121 -788 l 161 -748 l 40 -631 l 161 -514 l 121 -474 l 29 -565 l 29 244 z"},"◌":{"ha":562,"x_min":57,"x_max":504,"o":"m 89 -231 l 89 -231 q 57 -231 57 -264 l 57 -264 q 57 -295 89 -295 l 89 -295 q 121 -295 121 -264 l 121 -264 q 121 -231 89 -231 z m 138 -95 l 138 -95 q 106 -95 106 -127 l 106 -127 q 106 -158 138 -158 l 138 -158 q 169 -158 169 -127 l 169 -127 q 169 -95 138 -95 z m 281 -40 l 281 -40 q 249 -40 249 -72 l 249 -72 q 249 -104 281 -104 l 281 -104 q 312 -104 312 -72 l 312 -72 q 312 -40 281 -40 z m 138 -369 l 138 -369 q 106 -369 106 -401 l 106 -401 q 106 -432 138 -432 l 138 -432 q 169 -432 169 -401 l 169 -401 q 169 -369 138 -369 z m 423 -95 l 423 -95 q 391 -95 391 -127 l 391 -127 q 391 -158 423 -158 l 423 -158 q 455 -158 455 -127 l 455 -127 q 455 -95 423 -95 z m 281 -424 l 281 -424 q 249 -424 249 -456 l 249 -456 q 249 -487 281 -487 l 281 -487 q 312 -487 312 -456 l 312 -456 q 312 -424 281 -424 z m 472 -231 l 472 -231 q 441 -231 441 -264 l 441 -264 q 441 -295 472 -295 l 472 -295 q 504 -295 504 -264 l 504 -264 q 504 -231 472 -231 z m 423 -369 l 423 -369 q 391 -369 391 -401 l 391 -401 q 391 -432 423 -432 l 423 -432 q 455 -432 455 -401 l 455 -401 q 455 -369 423 -369 z"},"«":{"ha":475,"x_min":36,"x_max":438,"o":"m 36 -257 l 36 -271 l 188 -467 l 246 -436 l 130 -264 l 246 -94 l 188 -61 l 36 -257 z m 228 -257 l 228 -271 l 381 -467 l 438 -436 l 323 -264 l 438 -94 l 381 -61 l 228 -257 z"},"»":{"ha":475,"x_min":37,"x_max":439,"o":"m 439 -271 l 439 -257 l 286 -61 l 229 -94 l 344 -264 l 229 -436 l 286 -467 l 439 -271 z m 247 -271 l 247 -257 l 94 -61 l 37 -94 l 152 -264 l 37 -436 l 94 -467 l 247 -271 z"},"̈":{"ha":0,"x_min":-129,"x_max":129,"o":"m -129 -672 l -129 -672 q -129 -698 -116 -710 q -104 -722 -85 -722 l -85 -722 q -67 -722 -54 -709 q -42 -697 -42 -672 l -42 -672 q -42 -646 -54 -633 q -67 -620 -85 -620 l -85 -620 q -104 -620 -116 -633 q -129 -646 -129 -672 z m 41 -672 l 41 -672 q 41 -698 54 -710 q 67 -722 85 -722 l 85 -722 q 103 -722 116 -709 q 129 -697 129 -672 l 129 -672 q 129 -646 116 -633 q 103 -620 85 -620 l 85 -620 q 66 -620 54 -633 q 41 -646 41 -672 z"},"̀":{"ha":0,"x_min":-422,"x_max":-231,"o":"m -422 -766 l -323 -766 q -312 -743 -296 -715 q -280 -688 -263 -662 q -246 -636 -232 -617 l -232 -617 l -232 -606 l -286 -606 q -301 -619 -320 -638 q -340 -658 -360 -679 q -380 -701 -396 -721 q -412 -741 -422 -757 l -422 -757 l -422 -766 z"},"́":{"ha":0,"x_min":-301,"x_max":-111,"o":"m -111 -766 l -111 -757 q -120 -741 -136 -721 q -153 -701 -172 -679 q -192 -658 -211 -639 q -231 -620 -247 -606 l -247 -606 l -301 -606 l -301 -617 q -283 -642 -266 -667 q -250 -693 -235 -718 q -221 -744 -210 -766 l -210 -766 l -111 -766 z"},"̋":{"ha":0,"x_min":-106,"x_max":217,"o":"m 217 -766 l 217 -757 q 209 -742 194 -721 q 179 -700 161 -678 q 142 -657 124 -638 q 106 -619 91 -606 l 91 -606 l 48 -606 l 48 -617 q 62 -638 78 -666 q 94 -695 108 -722 q 122 -749 129 -766 l 129 -766 l 217 -766 z m 63 -766 l 63 -757 q 54 -741 40 -721 q 26 -701 9 -680 q -8 -659 -27 -640 q -46 -621 -64 -606 l -64 -606 l -106 -606 l -106 -617 q -91 -640 -75 -667 q -60 -695 -46 -721 q -33 -748 -25 -766 l -25 -766 l 63 -766 z"},"̄":{"ha":0,"x_min":-129,"x_max":130,"o":"m -129 -676 l 130 -676 l 130 -612 l -129 -612 l -129 -676 z"},"˙":{"ha":177,"x_min":40,"x_max":137,"o":"m 89 -738 l 89 -738 q 111 -738 124 -723 q 137 -709 137 -681 l 137 -681 q 137 -654 124 -639 q 111 -624 89 -624 l 89 -624 q 67 -624 54 -639 q 40 -654 40 -681 l 40 -681 q 40 -710 53 -724 q 66 -738 89 -738 z"},"°":{"ha":384,"x_min":48,"x_max":336,"o":"m 192 -444 l 192 -444 q 149 -444 117 -461 q 84 -478 66 -509 q 48 -541 48 -583 l 48 -583 q 48 -627 67 -658 q 85 -689 118 -706 q 150 -723 192 -723 l 192 -723 q 234 -723 267 -706 q 299 -689 318 -657 q 336 -626 336 -583 l 336 -583 q 336 -541 318 -509 q 299 -478 266 -461 q 233 -444 192 -444 z m 193 -498 l 193 -498 q 232 -498 254 -521 q 276 -545 276 -583 l 276 -583 q 276 -622 254 -646 q 232 -670 193 -670 l 193 -670 q 151 -670 130 -645 q 108 -621 108 -583 l 108 -583 q 108 -544 131 -521 q 153 -498 193 -498 z"},"A":{"ha":507,"x_min":0,"x_max":506,"o":"m 506 0 l 416 0 l 354 -222 l 152 -222 l 90 0 l 0 0 l 205 -715 l 300 -715 l 506 0 z m 335 -301 l 274 -530 q 271 -545 266 -563 q 261 -582 258 -601 q 254 -620 251 -634 l 251 -634 q 249 -617 246 -599 q 242 -581 238 -564 q 234 -547 230 -530 l 230 -530 l 170 -301 l 335 -301 z"},"Á":{"ha":507,"x_min":0,"x_max":506,"o":"m 506 0 l 416 0 l 354 -222 l 152 -222 l 90 0 l 0 0 l 205 -715 l 300 -715 l 506 0 z m 335 -301 l 274 -530 q 271 -545 266 -563 q 261 -582 258 -601 q 254 -620 251 -634 l 251 -634 q 249 -617 246 -599 q 242 -581 238 -564 q 234 -547 230 -530 l 230 -530 l 170 -301 l 335 -301 z m 387 -943 l 387 -934 q 378 -918 362 -898 q 345 -878 326 -856 q 306 -835 287 -816 q 267 -797 251 -783 l 251 -783 l 197 -783 l 197 -794 q 215 -819 232 -844 q 248 -870 263 -895 q 277 -921 288 -943 l 288 -943 l 387 -943 z"},"Ă":{"ha":507,"x_min":0,"x_max":506,"o":"m 506 0 l 416 0 l 354 -222 l 152 -222 l 90 0 l 0 0 l 205 -715 l 300 -715 l 506 0 z m 335 -301 l 274 -530 q 271 -545 266 -563 q 261 -582 258 -601 q 254 -620 251 -634 l 251 -634 q 249 -617 246 -599 q 242 -581 238 -564 q 234 -547 230 -530 l 230 -530 l 170 -301 l 335 -301 z m 331 -918 l 384 -918 q 383 -877 366 -846 q 349 -816 320 -800 q 290 -784 250 -784 l 250 -784 q 189 -784 156 -818 q 123 -852 120 -918 l 120 -918 l 173 -918 q 176 -893 186 -877 q 195 -862 212 -855 q 229 -848 252 -848 l 252 -848 q 274 -848 291 -855 q 308 -863 319 -878 q 329 -893 331 -918 l 331 -918 z"},"Â":{"ha":507,"x_min":0,"x_max":506,"o":"m 506 0 l 416 0 l 354 -222 l 152 -222 l 90 0 l 0 0 l 205 -715 l 300 -715 l 506 0 z m 335 -301 l 274 -530 q 271 -545 266 -563 q 261 -582 258 -601 q 254 -620 251 -634 l 251 -634 q 249 -617 246 -599 q 242 -581 238 -564 q 234 -547 230 -530 l 230 -530 l 170 -301 l 335 -301 z m 211 -943 l 292 -943 q 303 -921 321 -894 q 338 -867 358 -840 q 378 -814 395 -793 l 395 -793 l 395 -783 l 345 -783 q 322 -802 299 -826 q 276 -850 252 -876 l 252 -876 q 228 -850 204 -825 q 180 -800 159 -783 l 159 -783 l 110 -783 l 110 -793 q 128 -817 148 -843 q 167 -870 184 -896 q 201 -922 211 -943 l 211 -943 z"},"Ä":{"ha":507,"x_min":0,"x_max":506,"o":"m 506 0 l 416 0 l 354 -222 l 152 -222 l 90 0 l 0 0 l 205 -715 l 300 -715 l 506 0 z m 335 -301 l 274 -530 q 271 -545 266 -563 q 261 -582 258 -601 q 254 -620 251 -634 l 251 -634 q 249 -617 246 -599 q 242 -581 238 -564 q 234 -547 230 -530 l 230 -530 l 170 -301 l 335 -301 z m 123 -849 l 123 -849 q 123 -875 136 -887 q 148 -899 167 -899 l 167 -899 q 185 -899 198 -886 q 210 -874 210 -849 l 210 -849 q 210 -823 198 -810 q 185 -797 167 -797 l 167 -797 q 148 -797 136 -810 q 123 -823 123 -849 z m 293 -849 l 293 -849 q 293 -875 306 -887 q 319 -899 337 -899 l 337 -899 q 355 -899 368 -886 q 381 -874 381 -849 l 381 -849 q 381 -823 368 -810 q 355 -797 337 -797 l 337 -797 q 318 -797 306 -810 q 293 -823 293 -849 z"},"À":{"ha":507,"x_min":0,"x_max":506,"o":"m 506 0 l 416 0 l 354 -222 l 152 -222 l 90 0 l 0 0 l 205 -715 l 300 -715 l 506 0 z m 335 -301 l 274 -530 q 271 -545 266 -563 q 261 -582 258 -601 q 254 -620 251 -634 l 251 -634 q 249 -617 246 -599 q 242 -581 238 -564 q 234 -547 230 -530 l 230 -530 l 170 -301 l 335 -301 z m 134 -943 l 233 -943 q 244 -920 260 -892 q 276 -865 293 -839 q 310 -813 324 -794 l 324 -794 l 324 -783 l 270 -783 q 255 -796 236 -815 q 216 -835 196 -856 q 176 -878 160 -898 q 144 -918 134 -934 l 134 -934 l 134 -943 z"},"Ā":{"ha":507,"x_min":0,"x_max":506,"o":"m 506 0 l 416 0 l 354 -222 l 152 -222 l 90 0 l 0 0 l 205 -715 l 300 -715 l 506 0 z m 335 -301 l 274 -530 q 271 -545 266 -563 q 261 -582 258 -601 q 254 -620 251 -634 l 251 -634 q 249 -617 246 -599 q 242 -581 238 -564 q 234 -547 230 -530 l 230 -530 l 170 -301 l 335 -301 z m 122 -853 l 381 -853 l 381 -789 l 122 -789 l 122 -853 z"},"Ą":{"ha":507,"x_min":0,"x_max":506,"o":"m 506 0 l 416 0 l 354 -222 l 152 -222 l 90 0 l 0 0 l 205 -715 l 300 -715 l 506 0 z m 335 -301 l 274 -530 q 271 -545 266 -563 q 261 -582 258 -601 q 254 -620 251 -634 l 251 -634 q 249 -617 246 -599 q 242 -581 238 -564 q 234 -547 230 -530 l 230 -530 l 170 -301 l 335 -301 z m 416 117 l 416 117 q 416 140 428 153 q 440 165 461 165 l 461 165 q 474 165 483 163 q 492 160 498 159 l 498 159 l 498 215 q 488 219 476 221 q 463 223 446 223 l 446 223 q 397 223 373 199 q 348 175 348 130 l 348 130 q 348 103 359 78 q 370 52 390 29 q 409 5 432 -13 l 432 -13 l 479 0 q 445 33 431 60 q 416 87 416 117 z"}}}
